<?xml version="1.0" standalone="no"?>
<!DOCTYPE svg PUBLIC "-//W3C//DTD SVG 20010904//EN"
 "http://www.w3.org/TR/2001/REC-SVG-20010904/DTD/svg10.dtd">
<svg version="1.0" xmlns="http://www.w3.org/2000/svg"
 width="1093.000000pt" height="1057.000000pt" viewBox="0 0 1093.000000 1057.000000"
 preserveAspectRatio="xMidYMid meet">

<g transform="translate(0.000000,1057.000000) scale(0.100000,-0.100000)"
fill="#000000" stroke="none">
<path d="M5862 9583 c-35 -52 -59 -93 -54 -89 5 3 33 42 62 86 29 44 57 80 62
80 15 0 308 -209 518 -369 386 -295 696 -567 1061 -931 531 -529 958 -1048
1359 -1650 67 -102 127 -189 133 -195 16 -15 -15 34 -157 245 -641 952 -1451
1814 -2364 2518 -131 101 -467 344 -532 385 l-25 16 -63 -96z"/>
<path d="M5710 9360 c-44 -66 -78 -120 -75 -120 2 0 41 54 85 120 44 66 78
120 75 120 -2 0 -41 -54 -85 -120z"/>
<path d="M5966 9404 c12 -11 99 -75 193 -144 94 -69 171 -128 171 -132 0 -7
-187 -256 -216 -287 -11 -12 -36 4 -161 96 -192 142 -213 156 -219 150 -3 -3
16 -20 43 -38 123 -84 314 -231 311 -239 -6 -18 -219 -290 -227 -290 -5 0 -26
14 -47 31 -75 60 -305 221 -309 217 -3 -2 62 -52 143 -111 81 -59 160 -118
177 -131 l30 -24 -115 -150 c-71 -94 -118 -148 -125 -143 -24 19 -205 151
-267 195 -38 26 -68 44 -68 39 0 -4 19 -21 43 -37 163 -115 287 -212 282 -224
-12 -32 -219 -291 -228 -285 -6 3 -80 57 -165 120 -86 62 -158 111 -160 108
-3 -3 -3 -7 -1 -8 3 -3 185 -135 296 -216 12 -9 23 -20 23 -24 0 -9 -220 -297
-227 -297 -2 0 -30 20 -61 43 -116 89 -242 177 -253 177 -7 0 44 -40 112 -89
68 -50 140 -103 159 -119 l34 -29 -86 -114 c-48 -63 -100 -129 -116 -148 l-29
-35 -141 105 c-78 57 -148 106 -155 108 -23 7 6 -16 142 -116 74 -54 136 -103
138 -109 4 -12 -211 -295 -224 -295 -7 0 -76 50 -252 181 -19 13 -32 20 -30
13 2 -6 64 -55 137 -108 72 -53 132 -100 132 -105 0 -5 -50 -74 -111 -154 -92
-120 -115 -143 -128 -135 -9 5 -70 49 -136 98 -66 49 -122 87 -125 84 -3 -3 5
-12 18 -20 12 -9 74 -53 137 -100 l114 -84 -101 -132 c-55 -73 -108 -140 -117
-150 -16 -16 -22 -13 -116 56 -116 85 -155 111 -155 104 0 -2 48 -40 108 -82
927 -671 1712 -1610 2207 -2638 356 -740 560 -1443 670 -2317 11 -90 14 -98
10 -39 -2 42 -7 101 -11 130 l-6 54 181 23 c99 13 185 21 190 18 10 -6 47
-354 38 -362 -5 -5 -304 -33 -359 -34 -13 0 -18 11 -21 42 -2 24 -2 -4 1 -62
3 -58 8 -179 12 -270 4 -91 7 -151 8 -134 3 42 12 44 215 44 l167 0 0 -37 c0
-21 4 -63 8 -93 7 -54 7 -53 12 40 l5 95 188 3 187 2 2 -97 2 -98 5 100 6 100
188 3 187 2 0 -100 c0 -66 4 -100 11 -100 8 0 10 32 8 103 l-4 102 187 5 187
5 6 -60 c3 -33 7 -82 8 -110 2 -27 4 1 5 63 l2 112 180 0 c99 0 183 1 188 3 4
1 9 -50 13 -113 l5 -115 2 118 2 117 168 1 c92 0 177 2 190 5 22 4 22 3 22
-116 0 -77 4 -120 10 -120 7 0 10 41 9 116 -1 63 0 117 2 119 3 2 286 10 370
10 1 0 5 -56 9 -125 l6 -125 2 128 2 127 144 0 c79 0 164 3 190 6 l46 7 0
-132 c0 -72 3 -131 8 -131 4 0 6 58 4 130 l-3 130 144 0 c79 0 165 3 191 6 44
7 46 6 46 -19 0 -14 3 -28 8 -30 16 -10 -11 508 -43 829 -128 1274 -469 2474
-1029 3619 -514 1051 -1158 1959 -1976 2788 -341 346 -589 571 -946 857 -221
176 -645 487 -538 394z m511 -386 c222 -176 623 -524 685 -595 17 -18 13 -24
-113 -156 l-131 -138 -72 68 c-39 38 -124 115 -189 172 -64 57 -117 108 -117
113 0 5 52 70 116 144 64 75 114 138 111 140 -3 3 -216 -237 -243 -274 -1 -2
-65 48 -141 110 -76 63 -166 136 -200 163 -35 26 -63 50 -63 53 0 5 223 302
227 302 1 0 60 -46 130 -102z m-206 -341 c85 -68 173 -141 196 -163 l43 -39
-121 -142 c-121 -142 -122 -142 -144 -125 -76 58 -365 295 -365 299 0 9 221
293 229 293 4 0 77 -56 162 -123z m-332 -239 c134 -105 311 -252 311 -259 0
-4 -54 -71 -121 -149 l-120 -141 -52 44 c-29 24 -112 92 -185 151 -73 60 -132
111 -130 115 6 14 221 291 225 291 3 0 35 -23 72 -52z m776 -140 c77 -69 152
-139 166 -154 l27 -29 -129 -134 -128 -134 -40 34 c-83 71 -326 292 -329 298
-1 4 52 71 119 149 l122 143 26 -24 c14 -13 89 -80 166 -149z m674 -92 c101
-102 182 -188 180 -193 -2 -5 -63 -66 -136 -135 l-132 -126 -185 186 -184 186
126 133 c69 73 130 133 137 133 6 0 93 -83 194 -184z m-1686 -83 c145 -114
287 -235 287 -244 0 -11 -229 -279 -239 -279 -4 0 -66 48 -137 106 -71 58
-148 120 -171 137 -23 18 -41 38 -38 44 4 13 218 293 223 293 2 0 35 -26 75
-57z m682 -57 c50 -44 127 -113 172 -154 l82 -75 -131 -138 -132 -138 -70 67
c-39 37 -119 109 -178 161 l-107 94 82 96 c45 53 100 117 121 143 33 40 42 45
55 35 9 -6 57 -47 106 -91z m723 -139 l184 -184 -137 -129 c-76 -71 -138 -129
-139 -129 -1 0 -82 79 -179 176 l-176 177 127 135 c70 75 129 136 132 136 3 1
88 -82 188 -182z m728 -198 c79 -89 105 -125 98 -135 -12 -18 -266 -234 -275
-234 -3 0 -37 35 -75 78 -38 42 -115 128 -173 190 -102 110 -104 114 -85 131
10 10 73 69 138 132 l119 113 73 -77 c40 -42 121 -131 180 -198z m-2295 19
c84 -68 164 -133 178 -145 24 -19 25 -22 10 -40 -8 -10 -64 -75 -123 -145
l-108 -128 -37 31 c-20 17 -94 78 -166 136 -71 58 -130 109 -130 114 0 8 216
297 222 299 2 0 71 -55 154 -122z m2016 -300 l91 -105 -145 -123 c-121 -103
-147 -120 -157 -109 -38 41 -265 295 -291 326 l-30 35 135 129 135 129 85 -88
c47 -49 126 -136 177 -194z m599 -100 c74 -91 134 -170 134 -176 0 -9 -282
-232 -294 -232 -3 0 -26 28 -53 63 -26 34 -99 124 -162 200 -95 116 -111 141
-100 152 8 7 73 63 144 124 l130 112 33 -38 c19 -21 94 -113 168 -205z m-2208
51 c78 -71 142 -133 142 -137 0 -4 -58 -67 -128 -141 l-127 -133 -125 113
c-68 63 -141 130 -162 149 l-38 35 121 142 122 142 26 -20 c14 -12 90 -79 169
-150z m-736 109 c121 -94 268 -220 268 -229 0 -13 -228 -279 -239 -279 -4 0
-62 44 -127 98 -66 53 -137 111 -158 128 l-39 31 112 146 c62 81 116 147 121
147 4 0 32 -19 62 -42z m1944 -203 c129 -142 184 -206 184 -215 0 -5 -179
-161 -258 -224 l-24 -19 -52 59 c-28 32 -99 111 -158 175 l-108 117 93 89 c50
49 112 108 137 131 l45 41 21 -22 c11 -12 65 -71 120 -132z m700 -215 c68 -85
124 -157 124 -160 0 -6 -256 -205 -286 -223 -6 -3 -65 62 -137 151 -70 86
-140 174 -157 194 l-31 37 143 122 142 122 39 -44 c22 -24 95 -114 163 -199z
m-2241 80 c58 -52 129 -116 158 -141 l51 -47 -91 -98 c-50 -55 -109 -117 -132
-138 l-40 -39 -87 79 c-48 43 -117 105 -155 138 l-68 58 122 144 c67 79 125
142 129 141 4 -1 54 -45 113 -97z m673 -93 c72 -74 132 -140 132 -145 0 -6
-59 -67 -131 -136 l-132 -125 -155 155 -154 154 127 135 127 135 27 -19 c14
-11 86 -80 159 -154z m-1257 71 c63 -51 134 -108 157 -127 23 -19 41 -38 40
-42 -2 -4 -57 -70 -122 -148 l-119 -140 -61 51 c-34 28 -103 85 -153 126 -56
44 -90 79 -86 86 18 31 217 286 223 286 3 0 58 -42 121 -92z m3390 -143 c155
-210 204 -284 193 -294 -23 -20 -293 -201 -301 -201 -4 0 -32 35 -62 78 -30
42 -97 135 -149 205 -88 119 -94 130 -78 145 39 39 282 219 287 214 4 -4 53
-70 110 -147z m-3006 -184 c74 -67 135 -125 135 -129 -1 -4 -58 -67 -129 -141
l-127 -135 -147 134 c-83 76 -143 138 -140 144 4 6 58 71 121 143 105 122 115
132 133 119 10 -7 80 -68 154 -135z m-676 57 c155 -123 232 -191 227 -204 -7
-19 -227 -274 -236 -274 -4 0 -61 44 -127 99 -67 54 -131 105 -143 114 -15 10
-19 20 -13 29 14 23 218 288 222 288 2 0 33 -24 70 -52z m3343 -80 c123 -166
206 -283 210 -296 2 -6 -66 -58 -151 -116 l-154 -106 -49 68 c-26 37 -91 126
-143 197 -52 72 -96 133 -97 137 -3 8 280 228 293 228 4 0 45 -51 91 -112z
m652 -240 c51 -79 116 -180 144 -224 l51 -81 -149 -92 c-82 -50 -156 -94 -164
-97 -9 -4 -23 8 -39 33 -14 21 -77 119 -142 217 -86 133 -113 181 -103 187 7
4 74 50 148 102 74 53 141 96 148 96 7 1 55 -63 106 -141z m-2978 -267 c-56
-54 -117 -112 -137 -129 l-36 -32 -134 136 c-74 74 -134 139 -134 144 0 5 56
68 124 140 l124 132 147 -147 147 -147 -101 -97z m-681 307 c44 -39 108 -98
143 -130 l62 -60 -26 -31 c-15 -18 -73 -80 -129 -139 l-102 -107 -84 77 c-47
42 -110 100 -141 127 l-57 50 122 142 c67 79 124 143 127 143 3 0 41 -32 85
-72z m2692 -35 c142 -194 203 -281 203 -290 -1 -4 -69 -54 -153 -111 l-152
-103 -22 28 c-13 15 -71 95 -130 177 -60 81 -114 156 -120 165 -11 15 5 30
133 129 81 62 150 112 154 112 5 0 44 -48 87 -107z m-3215 -40 c66 -54 132
-107 146 -119 l25 -21 -119 -141 c-65 -77 -123 -141 -127 -141 -10 -1 -272
211 -272 220 0 7 217 298 223 299 2 0 58 -44 124 -97z m3836 -160 c100 -150
204 -315 200 -318 -15 -13 -320 -197 -322 -194 -2 2 -32 49 -67 104 -34 55
-93 146 -131 202 -37 56 -68 106 -68 110 1 8 289 210 302 212 4 1 43 -52 86
-116z m-908 -75 c159 -218 173 -239 169 -242 -28 -22 -291 -197 -301 -201 -9
-4 -35 23 -73 77 -32 46 -92 128 -132 182 -41 54 -70 103 -66 107 26 26 280
218 289 218 5 1 57 -63 114 -141z m-1910 -169 c0 -3 -61 -64 -136 -134 l-135
-128 -130 129 c-71 71 -129 133 -129 137 0 5 57 69 128 143 l127 134 138 -138
c75 -75 137 -140 137 -143z m-734 164 c54 -49 116 -104 138 -124 l40 -36 -128
-137 c-71 -75 -131 -136 -134 -136 -10 0 -263 233 -260 240 5 13 233 279 240
279 3 1 50 -38 104 -86z m3265 -201 c131 -200 155 -240 148 -245 -2 -3 -75
-48 -161 -100 l-157 -96 -47 77 c-26 42 -83 130 -126 194 -43 64 -79 121 -80
127 -2 8 285 217 302 220 3 0 57 -79 121 -177z m859 121 c82 -137 240 -418
240 -427 0 -6 -26 -25 -58 -41 -31 -17 -105 -56 -164 -88 l-106 -58 -78 138
c-43 76 -101 177 -131 225 l-53 88 38 24 c43 28 286 176 288 176 1 0 12 -17
24 -37z m-1808 -133 c164 -223 174 -239 158 -254 -8 -7 -78 -56 -155 -109
l-141 -95 -24 36 c-14 20 -71 99 -127 176 -82 112 -100 143 -90 153 37 37 283
220 288 214 4 -3 45 -58 91 -121z m-1994 -352 c-73 -70 -138 -127 -143 -128
-6 0 -65 55 -133 123 l-122 122 132 138 131 139 134 -134 134 -133 -133 -127z
m2619 140 c66 -101 125 -192 131 -204 10 -19 -1 -28 -150 -119 -146 -89 -162
-97 -172 -81 -6 9 -60 92 -120 184 -60 92 -109 172 -110 179 -1 8 265 204 300
222 1 1 56 -81 121 -181z m850 130 c42 -68 221 -382 225 -396 2 -7 -67 -50
-162 -101 l-164 -90 -34 62 c-19 34 -75 131 -125 215 -52 88 -86 157 -81 162
13 13 298 189 306 189 4 1 20 -18 35 -41z m-3198 -298 c93 -104 118 -137 108
-146 -6 -6 -61 -53 -122 -104 -60 -51 -119 -102 -131 -112 -21 -19 -22 -18
-140 113 l-119 132 135 129 c73 71 137 127 141 126 4 -2 62 -64 128 -138z
m2972 -96 c54 -94 101 -178 104 -186 5 -12 -34 -37 -153 -102 -88 -47 -164
-86 -168 -86 -5 0 -35 46 -66 103 -31 56 -84 147 -117 202 -32 55 -56 104 -51
108 4 5 77 51 161 103 l152 94 20 -33 c11 -17 64 -109 118 -203z m-979 89
c108 -164 162 -252 157 -257 -2 -2 -75 -47 -162 -100 l-157 -96 -32 52 c-18
29 -72 113 -120 185 l-87 132 152 105 c84 58 155 105 158 106 4 0 45 -57 91
-127z m1965 -257 c41 -81 73 -149 71 -151 -2 -1 -79 -39 -173 -83 l-170 -81
-117 232 c-64 128 -114 235 -110 238 4 4 79 45 167 92 l159 86 49 -92 c27 -51
82 -159 124 -241z m-1394 87 c97 -163 167 -289 167 -301 0 -9 -307 -182 -323
-182 -3 0 -32 46 -63 103 -32 56 -82 142 -111 191 -30 48 -52 93 -51 98 3 9
296 196 310 197 4 1 36 -47 71 -106z m-869 -95 c62 -95 115 -178 119 -184 8
-14 -311 -210 -322 -198 -27 30 -221 338 -216 343 8 7 299 210 303 211 1 0 54
-78 116 -172z m1877 -110 c55 -110 99 -202 97 -204 -2 -1 -79 -39 -171 -83
l-167 -80 -110 219 c-61 121 -110 223 -109 227 1 5 74 47 162 95 l161 87 18
-31 c11 -16 64 -120 119 -230z m-2854 135 c100 -137 204 -285 201 -288 -2 -3
-72 -51 -155 -108 l-152 -105 -106 145 c-58 80 -107 149 -108 154 -2 11 272
228 289 228 5 1 19 -11 31 -26z m1510 -135 c90 -152 165 -289 162 -292 -18
-13 -331 -177 -333 -175 -1 2 -41 72 -88 154 -47 83 -95 167 -108 187 l-22 38
34 20 c18 10 87 53 153 94 66 42 125 75 131 76 5 0 37 -46 71 -102z m984 -161
c55 -110 99 -203 97 -208 -2 -5 -77 -45 -168 -88 l-165 -79 -107 211 c-59 117
-107 214 -108 217 0 3 73 44 163 92 149 80 163 86 175 70 8 -9 59 -106 113
-215z m-1807 -5 c43 -67 77 -124 75 -126 -27 -25 -324 -197 -326 -190 -2 6
-49 79 -104 164 -55 84 -98 157 -97 162 2 5 71 55 153 112 l149 103 36 -51
c19 -28 71 -106 114 -174z m2683 11 c65 -138 163 -367 163 -380 0 -5 -62 -34
-137 -65 -76 -31 -154 -63 -173 -71 l-35 -15 -103 234 c-57 128 -103 237 -101
241 2 7 315 161 330 162 3 1 29 -47 56 -106z m-3597 -67 c58 -81 104 -149 103
-152 -1 -3 -71 -53 -155 -110 l-153 -105 -15 22 c-8 13 -55 77 -103 142 -74
99 -86 122 -75 133 28 28 283 222 288 219 3 -2 53 -69 110 -149z m1450 -68
c56 -98 99 -182 96 -187 -3 -5 -45 -30 -94 -56 -48 -26 -119 -65 -159 -87
l-71 -39 -52 93 c-29 51 -74 130 -101 174 -27 45 -49 86 -49 92 0 15 312 204
321 194 4 -4 53 -87 109 -184z m915 -39 c59 -116 105 -212 103 -214 -9 -9
-323 -155 -332 -155 -9 0 -219 401 -213 406 13 9 324 174 329 174 4 0 55 -95
113 -211z m-1875 94 c24 -38 72 -111 106 -165 l62 -96 -161 -99 -162 -99 -99
150 c-54 83 -100 156 -102 161 -3 10 281 212 301 214 6 1 30 -29 55 -66z
m2741 -70 c63 -137 170 -385 167 -388 -5 -4 -323 -133 -336 -137 -7 -2 -38 56
-81 152 -37 85 -82 186 -100 223 -17 38 -31 71 -31 73 0 6 320 162 333 163 4
1 26 -38 48 -86z m-2123 -180 c56 -97 100 -178 98 -180 -1 -2 -76 -43 -166
-92 l-164 -89 -69 121 c-38 67 -82 144 -99 171 -16 27 -26 52 -21 57 16 15
298 188 308 188 6 1 57 -79 113 -176z m904 -18 c53 -105 97 -195 98 -201 0 -6
-76 -47 -168 -91 l-168 -80 -98 195 c-54 107 -94 198 -89 202 18 17 309 170
318 167 6 -2 54 -88 107 -192z m-1819 3 c129 -197 130 -200 115 -209 -72 -48
-310 -190 -312 -188 -2 2 -46 70 -98 150 l-96 147 152 105 c83 58 154 105 158
106 4 1 40 -50 81 -111z m2677 40 c85 -189 160 -364 160 -374 0 -9 -172 -86
-337 -151 -7 -3 -13 0 -13 6 0 5 -42 105 -94 222 l-95 211 72 33 c40 18 114
53 166 79 52 25 98 46 101 46 4 0 22 -33 40 -72z m-1199 -242 c50 -98 89 -179
87 -180 -13 -9 -328 -156 -335 -156 -8 0 -187 346 -188 363 0 4 72 48 160 96
143 79 161 86 173 72 8 -9 54 -96 103 -195z m-897 9 c47 -82 86 -152 86 -156
0 -8 -315 -179 -330 -179 -5 0 -10 3 -10 8 0 4 -40 76 -89 160 l-89 153 36 23
c20 14 93 58 161 100 113 68 126 74 136 58 7 -9 51 -84 99 -167z m1747 48 c67
-144 151 -344 147 -348 -2 -3 -76 -34 -164 -71 -87 -36 -164 -68 -170 -70 -9
-4 -202 413 -193 419 11 8 325 156 332 156 4 1 25 -38 48 -86z m1271 45 c124
-325 168 -442 168 -451 0 -10 -330 -134 -348 -131 -4 1 -18 30 -31 65 -13 35
-53 138 -88 229 -36 91 -66 171 -67 178 -1 12 309 150 339 151 6 1 18 -18 27
-41z m-2477 -270 c47 -92 85 -171 85 -176 0 -7 -317 -162 -332 -162 -4 0 -47
79 -96 175 l-89 176 166 89 c120 65 168 86 174 77 4 -7 46 -87 92 -179z m2163
-15 c88 -224 116 -303 111 -307 -7 -6 -352 -126 -354 -124 -1 2 -10 26 -20 53
-9 28 -49 130 -87 228 -39 98 -67 181 -63 185 7 7 325 141 337 142 4 0 38 -80
76 -177z m-3056 11 c48 -82 88 -154 88 -160 0 -10 -308 -184 -324 -184 -2 0
-19 26 -37 58 -18 31 -57 99 -87 150 -30 51 -52 96 -48 100 19 18 302 190 311
188 6 -1 49 -70 97 -152z m1797 -60 c50 -114 90 -208 89 -209 -14 -13 -345
-142 -350 -137 -3 4 -31 63 -61 132 -30 69 -69 156 -86 193 l-31 68 163 79
c89 43 167 79 173 79 6 1 52 -92 103 -205z m849 18 c54 -136 153 -404 150
-407 -6 -6 -351 -126 -353 -123 -2 2 -27 66 -55 143 -29 77 -68 176 -85 220
-18 44 -32 81 -31 82 4 5 331 141 341 142 6 1 20 -25 33 -57z m-2097 -145 l80
-158 -165 -80 c-91 -43 -169 -79 -173 -79 -8 0 -177 330 -171 334 1 2 75 42
163 90 148 80 161 85 173 69 8 -10 49 -89 93 -176z m886 -28 c45 -101 81 -190
80 -197 -2 -11 -250 -122 -328 -147 -12 -4 -21 6 -34 37 -9 24 -46 109 -82
191 -37 81 -64 149 -62 151 15 13 326 155 334 153 5 -2 47 -86 92 -188z m838
45 c22 -52 141 -365 149 -390 6 -19 -8 -26 -167 -82 -95 -34 -176 -62 -179
-62 -3 0 -20 39 -38 88 -18 48 -55 143 -82 211 -27 68 -47 125 -45 127 5 5
330 142 339 143 4 1 15 -15 23 -35z m-2085 -174 c44 -88 80 -163 80 -167 0 -7
-320 -163 -334 -163 -9 0 -166 315 -158 318 4 1 75 40 157 86 83 46 156 84
162 85 7 1 49 -71 93 -159z m834 88 c97 -217 136 -311 132 -315 -14 -14 -341
-142 -346 -136 -4 5 -25 51 -48 103 -22 52 -57 130 -76 173 l-36 78 162 79
c90 44 168 79 174 80 6 0 23 -28 38 -62z m2544 7 c8 -22 45 -134 82 -250 47
-145 64 -212 56 -216 -6 -4 -82 -28 -168 -53 -86 -26 -164 -49 -172 -52 -11
-4 -18 6 -26 37 -7 23 -42 136 -79 250 l-68 208 106 37 c58 21 133 48 166 60
33 13 66 22 74 21 8 -1 21 -20 29 -42z m-1648 -92 c70 -179 139 -367 137 -370
-11 -10 -343 -123 -353 -119 -6 2 -15 17 -18 32 -4 15 -37 103 -73 196 -36 92
-63 171 -60 174 6 6 327 142 338 143 3 1 16 -25 29 -56z m1294 -95 c59 -167
124 -383 117 -389 -7 -8 -353 -111 -355 -107 -12 18 -154 474 -148 476 39 16
330 120 338 121 7 1 28 -45 48 -101z m-2517 -53 c30 -66 65 -145 78 -176 l23
-57 -174 -72 c-96 -40 -176 -71 -177 -69 -8 11 -147 331 -147 337 0 11 312
161 329 159 8 -1 39 -56 68 -122z m887 -75 c25 -64 58 -152 75 -197 l30 -81
-86 -31 c-209 -76 -265 -93 -272 -85 -4 5 -38 88 -75 184 -37 96 -70 180 -72
185 -5 12 338 157 348 147 4 -4 27 -59 52 -122z m1302 -135 c42 -130 75 -237
73 -239 -5 -5 -350 -106 -360 -106 -5 0 -9 6 -9 14 0 8 -31 110 -69 227 -39
117 -69 214 -68 215 4 3 342 123 349 123 4 1 42 -105 84 -234z m-2526 0 c43
-98 70 -169 64 -174 -14 -12 -334 -144 -339 -139 -13 13 -145 323 -138 326 4
1 78 36 163 77 85 41 160 74 166 75 5 0 43 -74 84 -165z m898 -116 c28 -74 52
-140 54 -147 2 -9 -51 -33 -162 -72 -91 -33 -171 -61 -179 -62 -8 -2 -18 10
-24 27 -5 17 -36 99 -69 183 -33 84 -58 155 -56 157 1 2 80 35 173 74 l170 70
22 -48 c11 -26 44 -108 71 -182z m1246 19 c88 -274 85 -255 44 -266 -18 -5
-98 -28 -177 -52 -78 -23 -146 -38 -150 -33 -9 10 -144 424 -139 427 4 4 342
124 350 125 3 1 36 -90 72 -201z m-371 -135 c37 -115 67 -213 67 -220 0 -11
-65 -33 -266 -92 -39 -12 -76 -21 -82 -21 -9 0 -148 409 -140 414 4 3 342 124
349 125 3 1 36 -92 72 -206z m-1311 155 c89 -233 118 -311 118 -321 0 -10
-283 -117 -338 -129 -9 -2 -31 41 -64 127 -27 72 -57 149 -66 172 -9 23 -14
45 -11 47 5 5 327 143 339 145 3 1 13 -18 22 -41z m2921 -20 c50 -182 118
-450 115 -454 -3 -2 -86 -23 -185 -47 l-181 -44 -17 66 c-9 36 -38 149 -66
250 -28 101 -48 185 -45 188 7 8 319 101 341 102 17 1 24 -10 38 -61z m-379
-115 c11 -38 40 -150 67 -250 47 -182 47 -183 26 -188 -272 -66 -343 -82 -348
-76 -4 3 -17 49 -29 101 -13 52 -40 157 -62 234 -21 76 -37 140 -36 141 6 6
334 103 348 104 11 1 21 -19 34 -66z m-1604 -145 c34 -106 63 -199 65 -205 3
-8 -27 -22 -83 -39 -48 -14 -130 -39 -182 -54 -52 -16 -95 -28 -95 -27 -23 53
-124 392 -118 398 10 10 313 118 335 118 13 1 30 -41 78 -191z m-1251 -2 c33
-88 61 -165 61 -171 0 -6 -75 -38 -167 -70 -93 -32 -174 -60 -180 -63 -7 -2
-13 1 -13 8 0 6 -27 82 -60 168 -33 85 -59 156 -58 157 26 16 345 141 349 136
4 -3 34 -78 68 -165z m2509 -83 c71 -259 76 -283 66 -292 -9 -9 -355 -94 -359
-89 -1 2 -13 46 -25 98 -13 52 -40 156 -61 230 -21 74 -37 135 -36 136 7 3
344 102 353 103 6 1 34 -83 62 -186z m-1630 -45 c35 -105 59 -194 55 -198 -8
-8 -301 -96 -337 -102 -16 -3 -27 22 -77 177 -32 99 -57 184 -56 189 3 10 311
124 338 125 11 1 31 -48 77 -191z m1213 80 c6 -24 33 -124 60 -223 27 -99 49
-184 49 -190 0 -9 -358 -100 -365 -93 -4 5 -107 389 -112 418 -4 24 0 26 169
77 95 28 176 52 180 52 4 1 12 -18 19 -41z m-1589 -193 c31 -93 57 -177 57
-185 1 -12 -41 -28 -163 -64 -90 -26 -171 -48 -180 -49 -13 -2 -29 36 -75 175
l-59 176 167 60 c91 33 173 60 181 59 10 -1 34 -58 72 -172z m1256 -86 c27
-101 52 -196 55 -210 l7 -26 -180 -42 c-98 -24 -183 -40 -188 -37 -6 3 -13 23
-17 43 -3 21 -27 112 -51 202 -25 90 -42 166 -39 170 4 3 84 29 178 57 125 37
174 48 179 39 4 -6 29 -94 56 -196z m-1631 -35 c29 -87 53 -167 53 -176 0 -9
-8 -19 -17 -22 -10 -2 -89 -26 -176 -51 -87 -26 -160 -45 -163 -43 -2 3 -28
79 -57 171 l-54 165 171 61 c94 33 175 59 181 57 5 -1 33 -74 62 -162z m3247
79 c44 -195 94 -448 91 -452 -4 -3 -350 -71 -366 -71 -4 0 -14 39 -23 88 -10
48 -34 160 -53 250 -20 89 -33 165 -30 169 5 5 326 87 358 92 3 1 14 -34 23
-76z m-2030 -20 c11 -38 36 -132 56 -209 l38 -142 -172 -41 c-186 -45 -206
-48 -206 -28 0 7 -22 96 -49 197 -27 102 -48 186 -46 188 7 7 320 100 340 101
17 1 24 -10 39 -66z m1644 -68 c47 -209 90 -431 84 -436 -8 -8 -362 -73 -366
-68 -2 2 -17 76 -35 164 -17 88 -40 196 -50 240 -11 44 -18 81 -17 82 7 8 326
81 346 80 22 -2 26 -9 38 -62z m-2009 -87 c61 -226 74 -278 68 -284 -6 -6
-361 -95 -362 -91 -1 1 -22 81 -47 177 -26 97 -50 182 -53 191 -5 13 25 25
162 67 92 27 175 51 184 51 13 1 24 -25 48 -111z m1616 40 c47 -205 98 -458
93 -463 -9 -7 -352 -66 -362 -62 -7 3 -16 27 -20 53 -3 27 -24 129 -46 228
-22 98 -39 180 -38 181 6 5 334 84 350 84 10 1 20 -8 23 -21z m-2010 -95 c43
-147 84 -318 77 -324 -4 -3 -79 -23 -167 -43 -88 -20 -168 -39 -177 -42 -13
-4 -19 2 -24 23 -3 15 -24 92 -45 171 -22 79 -39 149 -39 156 0 8 64 33 168
64 92 28 172 51 179 51 6 1 19 -25 28 -56z m1664 -163 c23 -105 44 -210 47
-235 6 -43 6 -44 -27 -50 -19 -3 -102 -18 -186 -34 l-151 -27 -12 60 c-6 34
-27 134 -47 224 -20 89 -34 164 -32 166 6 5 330 83 350 85 13 1 24 -37 58
-189z m-2045 63 c42 -130 84 -314 73 -318 -53 -19 -352 -84 -357 -78 -8 10
-93 333 -89 337 5 3 342 105 351 105 3 1 13 -20 22 -46z m1634 -29 c31 -138
81 -379 78 -381 -1 -2 -76 -16 -167 -33 -90 -17 -174 -32 -185 -35 -19 -4 -22
1 -28 38 -4 23 -23 116 -42 207 -20 91 -36 169 -37 174 -2 8 340 96 358 92 5
-2 16 -29 23 -62z m-394 -41 c4 -15 61 -282 82 -385 4 -23 1 -28 -18 -33 -75
-17 -343 -63 -349 -60 -3 3 -10 26 -14 52 -4 27 -22 116 -40 198 -18 83 -31
152 -30 154 3 2 333 86 357 90 4 1 9 -7 12 -16z m-328 -346 c15 -71 22 -132
18 -136 -10 -9 -354 -74 -360 -69 -5 6 -84 381 -81 384 2 2 84 23 183 47 l179
44 17 -71 c10 -39 29 -129 44 -199z m2358 256 c9 -28 65 -377 72 -447 l7 -64
-29 -6 c-76 -15 -336 -46 -344 -41 -6 3 -10 18 -10 33 0 15 -14 113 -31 217
-17 105 -33 206 -36 226 l-5 35 163 31 c197 37 206 38 213 16z m-357 -253 c17
-107 33 -222 35 -254 l3 -60 -174 -23 c-96 -13 -180 -22 -186 -19 -7 2 -15 33
-19 68 -4 34 -20 142 -36 238 -16 96 -27 177 -24 180 8 7 325 68 349 67 18 -2
23 -21 52 -197z m-2403 -2 c20 -95 36 -182 36 -194 0 -19 -15 -23 -181 -53
-99 -18 -182 -31 -183 -30 -7 8 -78 360 -74 364 6 6 319 83 344 84 19 1 24
-14 58 -171z m2014 -65 c18 -109 35 -221 38 -248 l6 -51 -179 -22 c-98 -12
-183 -22 -189 -22 -6 0 -14 27 -18 63 -3 34 -19 139 -35 232 -16 94 -27 172
-25 174 4 4 326 68 355 70 13 1 21 -35 47 -196z m-2403 -3 c18 -80 35 -161 39
-181 l6 -35 -172 -32 c-95 -18 -180 -32 -188 -32 -11 0 -23 39 -48 160 -18 88
-35 166 -38 173 -3 9 47 25 168 54 95 23 180 41 187 40 11 -2 24 -45 46 -147z
m1994 65 c21 -117 61 -380 61 -396 0 -12 -32 -19 -167 -37 -93 -12 -177 -22
-189 -22 -18 0 -22 10 -33 98 -7 53 -23 154 -35 224 l-22 128 35 6 c20 4 99
19 176 34 77 15 145 28 151 29 7 1 17 -27 23 -64z m-365 -201 c14 -87 28 -182
32 -210 l6 -51 -168 -22 c-93 -12 -178 -23 -189 -24 -16 -2 -21 6 -27 53 -4
30 -19 126 -33 214 -15 87 -24 160 -22 162 2 2 85 19 183 38 163 30 180 31
186 16 3 -9 18 -88 32 -176z m-411 79 c3 -21 17 -116 32 -211 15 -95 25 -175
23 -177 -3 -4 -275 -42 -337 -47 l-34 -3 -33 205 c-18 113 -32 206 -31 207 5
4 317 61 343 62 29 1 32 -2 37 -36z m-384 -95 c24 -137 53 -340 48 -344 -5 -5
-369 -56 -372 -52 -1 2 -8 46 -15 98 -6 52 -20 139 -30 193 -13 71 -14 100 -6
102 20 7 320 63 342 64 19 1 23 -7 33 -61z m-396 -30 c15 -62 59 -360 54 -365
-6 -6 -368 -56 -371 -51 -5 7 -50 316 -50 343 l-1 30 165 31 c204 39 197 39
203 12z m2797 -33 c0 -2 9 -84 21 -182 11 -98 21 -216 22 -263 l2 -85 -140
-12 c-77 -6 -161 -12 -186 -12 l-46 -1 -7 83 c-4 45 -16 160 -27 256 -10 96
-18 175 -17 176 2 1 71 11 153 22 152 21 225 27 225 18z m-3187 -29 c11 -28
58 -348 52 -354 -5 -6 -318 -51 -357 -52 -12 0 -18 8 -18 23 0 12 -11 89 -25
171 -14 82 -23 152 -20 154 4 5 320 68 351 71 7 1 14 -6 17 -13z m2797 -33 c0
-10 9 -97 19 -193 11 -96 22 -205 26 -241 l6 -66 -186 -13 c-102 -7 -187 -11
-189 -9 -3 2 -14 94 -25 204 -11 110 -23 220 -27 245 l-6 46 158 20 c209 28
224 28 224 7z m-376 -190 c20 -190 35 -338 33 -339 -1 -1 -86 -8 -189 -15
l-187 -14 -5 40 c-22 187 -45 430 -40 434 5 5 300 48 345 50 l26 1 17 -157z
m-391 -45 c9 -84 20 -192 23 -239 l7 -86 -164 -12 c-90 -7 -174 -14 -186 -17
-17 -3 -24 1 -27 18 -10 55 -46 432 -41 436 5 5 303 48 351 51 19 1 22 -8 37
-151z m-401 42 c16 -125 41 -391 37 -394 -2 -3 -69 -9 -149 -15 -80 -6 -163
-14 -186 -17 l-41 -5 -7 88 c-4 48 -14 146 -22 216 -9 71 -13 131 -10 134 6 6
335 52 356 49 10 -1 17 -18 22 -56z m-390 -51 c14 -117 39 -371 36 -374 -2 -2
-66 -8 -143 -14 -77 -6 -161 -14 -186 -17 l-47 -6 -6 69 c-4 37 -14 130 -22
206 -8 77 -13 141 -11 143 5 6 349 52 362 49 6 -1 13 -26 17 -56z m-374 -204
c11 -110 19 -201 18 -202 -4 -4 -370 -33 -373 -29 -2 2 -10 66 -18 142 -8 77
-17 165 -21 197 -6 51 -5 57 12 58 11 0 93 11 184 23 91 12 168 20 172 17 3
-3 15 -96 26 -206z m-415 148 c8 -13 42 -372 35 -378 -9 -10 -361 -36 -368
-28 -7 8 -43 363 -38 368 5 4 292 42 330 44 20 0 39 -2 41 -6z m2798 -245 c0
-35 2 -72 4 -82 2 -11 7 -104 11 -208 l7 -188 -49 0 c-27 0 -112 -3 -190 -7
l-140 -6 -13 254 c-7 140 -15 257 -18 262 -2 4 -1 7 4 8 73 8 300 27 336 28
l47 1 1 -62z m-397 -30 c8 -80 27 -450 24 -454 -2 -1 -87 -5 -189 -9 l-187 -8
-6 94 c-15 250 -23 404 -21 407 3 4 277 28 337 31 l36 1 6 -62z m-391 -35 c4
-38 10 -149 13 -249 l7 -181 -129 -6 c-71 -4 -157 -7 -191 -7 l-63 0 0 93 c0
50 -5 157 -11 236 -5 79 -8 145 -6 148 4 3 276 29 343 32 l31 1 6 -67z m-390
-65 c4 -57 9 -164 13 -239 l7 -136 -123 -6 c-68 -4 -153 -7 -190 -7 l-67 0
-12 226 c-7 124 -10 228 -8 230 4 4 270 29 348 33 l26 1 6 -102z m-399 50 c6
-25 26 -431 23 -435 -2 -1 -87 -5 -189 -9 l-186 -7 -6 74 c-3 41 -9 140 -13
222 l-8 147 30 1 c17 0 93 7 170 14 77 7 148 13 157 14 11 0 20 -8 22 -21z
m-391 -55 c4 -27 10 -125 13 -219 l7 -171 -108 -6 c-60 -4 -146 -7 -192 -7
l-83 0 0 83 c0 45 -5 138 -10 207 -5 68 -8 125 -7 127 1 1 81 8 177 16 96 8
180 15 186 16 6 0 14 -20 17 -46z m-390 -60 c4 -43 9 -137 13 -209 l6 -131
-98 -6 c-55 -4 -140 -7 -190 -7 l-91 0 -7 128 c-3 70 -9 160 -12 200 l-6 72
38 1 c35 1 320 24 335 28 4 0 9 -34 12 -76z m-385 -158 c5 -104 9 -191 7 -193
-1 -1 -86 -6 -188 -9 l-185 -6 -6 54 c-3 30 -8 115 -11 190 l-6 136 183 14
c101 8 186 12 190 9 3 -3 11 -90 16 -195z m-405 151 c3 -7 8 -90 12 -183 l8
-170 -78 -6 c-43 -4 -129 -7 -192 -7 l-113 0 0 58 c0 33 -3 113 -6 179 l-7
120 129 10 c198 15 241 15 247 -1z"/>
<path d="M5540 9110 c-44 -66 -78 -120 -75 -120 2 0 41 54 85 120 44 66 78
120 75 120 -2 0 -41 -54 -85 -120z"/>
<path d="M5370 8860 c-44 -66 -78 -120 -75 -120 2 0 41 54 85 120 44 66 78
120 75 120 -2 0 -41 -54 -85 -120z"/>
<path d="M5200 8610 c-44 -66 -78 -120 -75 -120 2 0 41 54 85 120 44 66 78
120 75 120 -2 0 -41 -54 -85 -120z"/>
<path d="M5030 8360 c-44 -66 -78 -120 -75 -120 2 0 41 54 85 120 44 66 78
120 75 120 -2 0 -41 -54 -85 -120z"/>
<path d="M2547 8334 c-14 -15 -6 -34 14 -34 14 0 19 5 17 17 -3 18 -20 27 -31
17z"/>
<path d="M4860 8110 c-44 -66 -78 -120 -75 -120 2 0 41 54 85 120 44 66 78
120 75 120 -2 0 -41 -54 -85 -120z"/>
<path d="M1822 8211 c-10 -6 -9 -10 7 -14 20 -5 21 -12 21 -105 0 -93 -1 -100
-22 -110 -19 -9 -13 -11 37 -11 45 0 54 2 38 9 -12 5 -25 21 -29 35 -9 35 4
146 19 165 10 13 10 13 -5 1 -16 -12 -18 -11 -18 13 0 27 -21 35 -48 17z"/>
<path d="M1933 8213 c9 -2 15 -8 12 -13 -3 -4 2 -13 9 -19 10 -9 16 -9 21 -1
10 16 -14 40 -39 39 -17 -1 -18 -2 -3 -6z"/>
<path d="M2059 8192 c-55 -49 -51 -156 9 -202 13 -11 34 -20 46 -19 20 0 21 0
1 8 -36 15 -58 49 -63 99 -5 58 18 118 50 132 17 6 19 9 6 9 -10 1 -32 -12
-49 -27z"/>
<path d="M2143 8213 c20 -5 47 -52 47 -83 0 -12 7 -20 16 -20 13 0 15 7 10 33
-7 35 -48 78 -74 76 -15 -1 -15 -2 1 -6z"/>
<path d="M2302 8205 c-35 -25 -44 -60 -28 -100 8 -18 13 -35 11 -37 -2 -2 8
-4 21 -4 25 -2 25 -1 7 18 -20 23 -22 90 -3 113 19 23 57 18 76 -10 20 -31 13
-94 -13 -112 -10 -8 -12 -13 -4 -13 6 0 23 12 38 26 20 20 24 31 19 57 -4 18
-8 39 -9 47 -1 9 -8 16 -17 17 -8 1 -28 5 -45 8 -20 4 -38 0 -53 -10z"/>
<path d="M2470 8204 c0 -8 5 -12 10 -9 6 4 8 11 5 16 -9 14 -15 11 -15 -7z"/>
<path d="M2522 8211 c-10 -6 -9 -10 7 -14 20 -5 21 -12 21 -105 0 -93 -1 -100
-22 -110 -20 -9 -15 -11 32 -11 42 0 51 2 38 10 -16 9 -18 26 -18 124 0 113 0
115 -22 115 -13 0 -29 -4 -36 -9z"/>
<path d="M2796 8210 c37 -15 54 -50 54 -110 0 -64 -15 -100 -50 -117 -18 -9
-20 -13 -8 -13 29 0 79 52 87 90 4 19 4 51 0 70 -9 38 -59 90 -87 89 -13 0
-12 -2 4 -9z"/>
<path d="M2932 8211 c-10 -6 -9 -10 7 -14 20 -5 21 -12 21 -105 0 -93 -1 -100
-22 -110 -19 -9 -13 -11 37 -11 46 0 55 2 38 9 -21 9 -23 16 -23 93 0 71 3 89
22 113 20 26 20 27 2 12 -27 -23 -34 -23 -29 2 3 15 -1 20 -18 20 -12 0 -28
-4 -35 -9z"/>
<path d="M3060 8213 c41 -7 50 -29 50 -128 0 -85 -2 -93 -22 -103 -19 -9 -13
-11 37 -11 44 0 54 3 38 9 -19 8 -21 17 -25 103 -4 110 -19 138 -72 136 -27
-2 -28 -2 -6 -6z"/>
<path d="M2707 8199 c-43 -25 -61 -114 -32 -169 17 -32 52 -60 75 -60 9 1 4 7
-11 15 -50 27 -65 133 -29 193 11 17 19 32 17 32 -1 0 -10 -5 -20 -11z"/>
<path d="M3242 8193 c2 -10 10 -18 18 -18 8 0 16 8 18 18 2 12 -3 17 -18 17
-15 0 -20 -5 -18 -17z"/>
<path d="M2270 8037 c0 -10 5 -27 10 -38 9 -15 7 -21 -5 -26 -23 -8 -37 -50
-25 -72 10 -20 67 -47 77 -37 3 3 0 6 -9 6 -8 0 -25 11 -38 25 -20 21 -22 28
-12 50 6 13 23 27 37 31 40 10 125 -1 142 -19 22 -21 9 -63 -25 -82 -26 -15
-26 -16 -2 -9 30 7 60 39 60 64 0 41 -33 62 -108 69 -39 4 -73 9 -75 11 -2 3
-9 14 -15 25 -10 18 -11 18 -12 2z"/>
<path d="M2185 8000 c-10 -11 -25 -20 -33 -20 -9 0 -12 -3 -9 -7 9 -9 55 16
61 33 7 19 2 17 -19 -6z"/>
<path d="M3242 7993 c2 -10 10 -18 18 -18 8 0 16 8 18 18 2 12 -3 17 -18 17
-15 0 -20 -5 -18 -17z"/>
<path d="M4690 7860 c-44 -66 -78 -120 -75 -120 2 0 41 54 85 120 44 66 78
120 75 120 -2 0 -41 -54 -85 -120z"/>
<path d="M4510 7595 c-39 -58 -68 -105 -65 -105 2 0 36 47 75 105 39 58 68
105 65 105 -2 0 -36 -47 -75 -105z"/>
<path d="M1725 7570 c-28 -5 -28 -6 -7 -12 22 -6 22 -8 22 -181 0 -171 0 -174
-22 -185 -19 -9 -13 -11 37 -11 46 0 55 2 38 9 -23 9 -23 12 -23 194 0 102 -3
187 -7 189 -5 2 -21 1 -38 -3z"/>
<path d="M2347 7544 c-14 -15 -6 -34 14 -34 14 0 19 5 17 17 -3 18 -20 27 -31
17z"/>
<path d="M3187 7513 c-4 -3 -7 -16 -7 -29 0 -13 -13 -33 -31 -48 l-31 -26 26
0 26 0 0 -98 c0 -83 3 -102 18 -115 10 -10 25 -17 32 -17 9 0 8 4 -4 13 -16
12 -19 29 -20 113 l-1 99 38 3 c20 2 37 7 37 11 0 5 -14 7 -30 6 -36 -3 -48
15 -44 63 3 33 2 36 -9 25z"/>
<path d="M4340 7345 c-39 -58 -68 -105 -65 -105 2 0 36 47 75 105 39 58 68
105 65 105 -2 0 -36 -47 -75 -105z"/>
<path d="M1259 7415 c-30 -16 -59 -70 -59 -109 0 -63 49 -127 95 -125 19 0 19
1 -2 9 -56 23 -78 142 -36 198 26 36 81 42 108 12 10 -11 13 -20 7 -20 -7 0
-12 -9 -12 -21 0 -27 24 -20 28 8 7 50 -72 79 -129 48z"/>
<path d="M1554 7409 c26 -20 27 -25 24 -103 -3 -68 0 -85 16 -103 11 -13 27
-23 35 -23 13 1 13 2 -1 11 -15 8 -18 25 -18 100 0 82 -2 92 -25 114 -13 14
-32 25 -41 25 -12 0 -10 -5 10 -21z"/>
<path d="M1976 7420 c37 -15 54 -50 54 -110 0 -64 -15 -100 -50 -117 -18 -9
-20 -13 -8 -13 29 0 79 52 87 90 4 19 4 51 0 70 -9 38 -59 90 -87 89 -13 0
-12 -2 4 -9z"/>
<path d="M2112 7421 c-10 -6 -9 -10 7 -14 20 -5 21 -12 21 -105 0 -93 -1 -100
-22 -110 -19 -9 -13 -11 37 -11 45 0 54 2 38 9 -12 5 -25 21 -29 35 -9 35 4
146 19 165 10 13 10 13 -5 1 -16 -12 -18 -11 -18 13 0 27 -21 35 -48 17z"/>
<path d="M2223 7423 c9 -2 15 -8 12 -13 -3 -4 2 -13 9 -19 10 -9 16 -9 21 -1
10 16 -14 40 -39 39 -17 -1 -18 -2 -3 -6z"/>
<path d="M2322 7421 c-10 -6 -9 -10 7 -14 20 -5 21 -12 21 -105 0 -93 -1 -100
-22 -110 -20 -9 -15 -11 32 -11 42 0 51 2 38 10 -16 9 -18 26 -18 124 0 113 0
115 -22 115 -13 0 -29 -4 -36 -9z"/>
<path d="M2462 7421 c-10 -6 -9 -10 7 -14 20 -5 21 -12 21 -105 0 -93 -1 -100
-22 -110 -19 -9 -13 -11 37 -11 46 0 55 2 38 9 -21 9 -23 16 -23 93 0 71 3 89
22 113 20 26 20 27 2 12 -27 -23 -34 -23 -29 2 3 15 -1 20 -18 20 -12 0 -28
-4 -35 -9z"/>
<path d="M2595 7423 c36 -8 45 -33 45 -128 0 -85 -2 -93 -22 -103 -19 -9 -13
-11 37 -11 47 0 55 2 37 10 -22 8 -23 13 -20 98 2 58 -1 92 -8 99 -7 6 -14 16
-16 22 -2 6 -19 12 -38 14 -19 2 -26 1 -15 -1z"/>
<path d="M2740 7423 c41 -7 50 -29 50 -128 0 -85 -2 -93 -22 -103 -19 -9 -13
-11 37 -11 44 0 54 3 38 9 -19 8 -21 17 -25 103 -4 110 -19 138 -72 136 -27
-2 -28 -2 -6 -6z"/>
<path d="M2929 7402 c-55 -49 -51 -156 9 -202 13 -11 34 -20 46 -19 20 0 21 0
1 8 -36 15 -58 49 -63 99 -5 58 18 118 50 132 17 6 19 9 6 9 -10 1 -32 -12
-49 -27z"/>
<path d="M3013 7423 c20 -5 47 -52 47 -83 0 -12 7 -20 16 -20 13 0 15 7 10 33
-7 35 -48 78 -74 76 -15 -1 -15 -2 1 -6z"/>
<path d="M3369 7402 c-55 -49 -51 -156 9 -202 13 -11 34 -20 46 -19 20 0 21 0
1 8 -36 15 -58 49 -63 99 -5 58 18 118 50 132 17 6 19 9 6 9 -10 1 -32 -12
-49 -27z"/>
<path d="M3453 7423 c20 -5 47 -52 47 -83 0 -12 7 -20 16 -20 13 0 15 7 10 33
-7 35 -48 78 -74 76 -15 -1 -15 -2 1 -6z"/>
<path d="M3572 7421 c-10 -6 -9 -10 7 -14 20 -5 21 -12 21 -105 0 -93 -1 -100
-22 -110 -19 -9 -13 -11 37 -11 45 0 54 2 38 9 -12 5 -25 21 -29 35 -9 35 4
146 19 165 10 13 10 13 -5 1 -16 -12 -18 -11 -18 13 0 27 -21 35 -48 17z"/>
<path d="M3683 7423 c9 -2 15 -8 12 -13 -3 -4 2 -13 9 -19 10 -9 16 -9 21 -1
10 16 -14 40 -39 39 -17 -1 -18 -2 -3 -6z"/>
<path d="M3883 7419 c9 -6 24 -25 31 -42 l14 -32 1 44 c1 36 -1 42 -13 32 -10
-8 -16 -9 -21 -1 -3 5 -12 10 -18 10 -7 0 -4 -5 6 -11z"/>
<path d="M1462 7408 c-18 -18 -15 -68 3 -68 18 0 20 21 3 38 -8 8 -8 15 2 27
15 18 9 20 -8 3z"/>
<path d="M1887 7409 c-25 -15 -47 -63 -47 -104 0 -64 47 -126 95 -125 15 1 12
4 -11 14 -54 24 -73 130 -34 194 11 17 19 32 17 32 -1 0 -10 -5 -20 -11z"/>
<path d="M2689 7403 c-13 -16 -12 -17 4 -4 16 13 21 21 13 21 -2 0 -10 -8 -17
-17z"/>
<path d="M3782 7408 c-18 -18 -15 -63 6 -81 9 -8 39 -21 65 -28 50 -12 70 -35
65 -72 -2 -12 -14 -27 -28 -34 -15 -8 -19 -13 -9 -13 23 0 59 43 59 71 0 35
-36 65 -93 80 -54 13 -74 37 -57 69 12 23 9 25 -8 8z"/>
<path d="M1485 7305 c-37 -20 -55 -42 -55 -71 0 -24 33 -54 59 -54 11 0 8 5
-7 16 -12 8 -22 26 -22 38 0 27 42 73 73 79 20 4 20 4 2 6 -11 0 -33 -6 -50
-14z"/>
<path d="M3771 7225 c0 -32 2 -45 8 -36 5 7 14 10 21 6 8 -5 7 3 -3 21 -8 16
-17 36 -20 44 -3 8 -6 -7 -6 -35z"/>
<path d="M1662 7240 c0 -14 2 -19 5 -12 2 6 2 18 0 25 -3 6 -5 1 -5 -13z"/>
<path d="M3055 7210 c-10 -11 -25 -20 -33 -20 -9 0 -12 -3 -9 -7 9 -9 55 16
61 33 7 19 2 17 -19 -6z"/>
<path d="M3495 7210 c-10 -11 -25 -20 -33 -20 -9 0 -12 -3 -9 -7 9 -9 55 16
61 33 7 19 2 17 -19 -6z"/>
<path d="M1345 7195 c-16 -8 -23 -14 -14 -15 8 0 24 7 35 15 23 18 18 18 -21
0z"/>
<path d="M3250 7190 c-9 -6 -10 -10 -3 -10 6 0 15 5 18 10 8 12 4 12 -15 0z"/>
<path d="M4170 7095 c-39 -58 -68 -105 -65 -105 2 0 36 47 75 105 39 58 68
105 65 105 -2 0 -36 -47 -75 -105z"/>
<path d="M3990 6830 c-44 -66 -78 -120 -75 -120 2 0 41 54 85 120 44 66 78
120 75 120 -2 0 -41 -54 -85 -120z"/>
<path d="M3820 6580 c-44 -66 -78 -120 -75 -120 2 0 41 54 85 120 44 66 78
120 75 120 -2 0 -41 -54 -85 -120z"/>
<path d="M9024 6475 c9 -13 37 -58 62 -100 25 -41 48 -75 50 -75 6 0 8 -3 -63
113 -30 48 -57 87 -60 87 -3 0 2 -11 11 -25z"/>
<path d="M3660 6345 c-39 -58 -68 -105 -65 -105 2 0 36 47 75 105 39 58 68
105 65 105 -2 0 -36 -47 -75 -105z"/>
<path d="M3797 6308 c-13 -18 -152 -215 -307 -438 -156 -223 -298 -426 -316
-451 l-34 -46 82 -59 c513 -369 1034 -907 1376 -1421 l56 -85 -23 -20 c-14
-10 -31 -16 -38 -14 -8 3 -11 1 -8 -4 5 -9 -66 -61 -82 -59 -5 0 -54 66 -110
147 -349 502 -816 975 -1305 1323 l-54 38 -1115 -1591 c-613 -875 -1122 -1603
-1131 -1617 l-17 -27 68 -52 c170 -129 348 -351 445 -552 54 -111 108 -264 95
-268 -5 -2 -43 4 -85 12 -98 21 -105 20 -71 -8 l29 -23 -49 -12 c-124 -31
-121 -29 -115 -56 2 -14 9 -25 16 -25 11 0 91 21 134 34 25 8 25 5 4 -54 -3
-8 29 16 71 53 l76 68 10 -38 c19 -71 33 -167 39 -268 l7 -100 1973 -3 1972
-2 0 98 c0 379 -80 943 -191 1347 -126 462 -336 963 -562 1345 -72 122 -74
124 -55 144 10 11 18 23 18 28 0 20 19 5 31 -24 l12 -33 6 34 c6 33 8 31 85
-103 44 -75 81 -136 83 -136 6 0 -12 31 -93 171 -74 125 -74 127 -67 177 l8
51 82 -132 c376 -608 641 -1328 758 -2057 36 -229 53 -399 65 -645 11 -233 16
-290 19 -212 l1 47 90 0 90 0 0 -45 c0 -25 5 -45 10 -45 6 0 10 20 10 45 l0
45 89 0 90 0 4 -48 3 -47 2 48 c2 44 4 47 30 48 15 0 55 2 90 6 l62 5 0 -51
c0 -28 5 -51 10 -51 6 0 10 23 10 50 l0 50 90 0 90 0 0 -50 c0 -27 5 -50 10
-50 6 0 10 23 10 50 l0 50 90 0 90 0 0 -50 c0 -30 4 -50 11 -50 7 0 9 16 4 48
l-6 49 62 6 c123 13 119 15 119 -48 0 -30 5 -55 10 -55 12 0 12 49 0 310 -62
1288 -454 2468 -1183 3560 -347 519 -824 1040 -1342 1465 -127 105 -376 292
-399 301 -8 3 -24 -9 -39 -28z m130 -51 l81 -60 -51 -69 c-32 -42 -57 -66 -65
-63 -23 9 -161 109 -161 118 -2 16 95 144 104 139 6 -3 47 -32 92 -65z m184
-138 c43 -34 79 -66 79 -71 0 -10 -96 -128 -106 -129 -9 -2 -163 115 -164 124
0 11 94 136 103 137 5 0 44 -28 88 -61z m-303 -20 l82 -60 -47 -62 c-25 -34
-50 -66 -54 -71 -4 -5 -46 19 -93 53 l-86 62 23 32 c67 93 79 107 85 107 4 0
44 -28 90 -61z m542 -238 c-16 -20 -42 -51 -57 -69 l-28 -32 -80 66 c-44 37
-82 68 -83 70 -2 1 22 34 53 73 l57 70 84 -70 84 -71 -30 -37z m-284 38 c2 -4
-19 -36 -48 -71 -28 -35 -53 -65 -54 -66 -3 -4 -164 119 -164 125 0 2 23 34
52 72 l51 70 79 -61 c43 -34 81 -65 84 -69z m-380 45 c43 -31 80 -58 82 -59 2
-2 -21 -35 -51 -73 l-54 -71 -69 50 c-38 28 -75 54 -83 58 -11 7 -3 24 35 79
27 39 52 72 55 72 3 0 42 -25 85 -56z m485 -130 c90 -75 89 -56 5 -156 l-39
-47 -74 61 c-41 34 -76 65 -79 70 -5 8 93 138 104 138 2 0 40 -30 83 -66z
m311 -7 l78 -72 -58 -64 c-67 -74 -58 -74 -157 16 l-67 62 57 66 c32 36 60 65
64 65 3 -1 41 -33 83 -73z m-614 0 l81 -64 -55 -66 c-30 -37 -57 -67 -59 -67
-5 0 -117 84 -148 111 -6 5 89 149 99 149 0 0 37 -29 82 -63z m-297 -24 c44
-31 79 -57 79 -58 0 -1 -24 -33 -53 -72 l-53 -71 -74 55 c-41 30 -77 56 -79
59 -4 4 90 144 97 144 3 0 40 -25 83 -57z m497 -140 l53 -48 -58 -66 -57 -66
-78 65 -77 64 56 69 55 69 27 -19 c14 -11 50 -41 79 -68z m281 18 l75 -69 -58
-66 -58 -66 -32 26 c-17 15 -53 46 -79 70 l-49 44 57 65 c32 36 60 65 64 65 3
-1 39 -32 80 -69z m381 -89 c0 -4 -28 -35 -62 -69 l-62 -63 -78 77 -78 77 62
63 61 62 79 -71 c43 -38 78 -73 78 -76z m-984 81 c41 -32 74 -60 74 -63 0 -3
-24 -35 -53 -72 l-53 -66 -78 60 -77 60 24 32 c70 93 80 106 84 106 2 0 38
-26 79 -57z m-290 -28 c48 -36 72 -60 68 -68 -14 -22 -95 -127 -99 -127 -3 0
-38 24 -78 53 l-74 53 50 72 c27 40 52 72 54 72 2 0 38 -25 79 -55z m761 -113
l73 -67 -60 -64 -59 -64 -76 67 -75 68 56 64 c31 35 59 64 63 64 3 0 39 -31
78 -68z m-297 1 c38 -32 68 -61 67 -65 -3 -13 -101 -127 -110 -127 -4 -1 -38
24 -75 55 -37 32 -69 58 -71 60 -6 5 100 134 111 134 5 0 41 -26 78 -57z m600
-13 l75 -69 -65 -66 -65 -65 -75 75 -74 75 59 60 c33 33 62 60 65 60 3 -1 39
-32 80 -70z m-891 -6 c62 -49 70 -58 59 -73 -7 -9 -32 -40 -56 -68 l-44 -53
-74 57 -73 57 22 30 c13 17 36 48 51 69 16 20 32 37 35 37 4 0 40 -25 80 -56z
m1166 14 c21 -24 53 -59 72 -79 l34 -36 -66 -58 -67 -58 -74 74 -74 73 62 63
c34 35 65 63 69 63 3 0 23 -19 44 -42z m-1450 -47 c33 -24 62 -46 64 -48 5 -3
-38 -66 -76 -111 l-28 -33 -70 52 c-38 28 -69 55 -68 59 1 5 23 38 49 74 28
41 50 64 57 59 7 -3 39 -27 72 -52z m740 -94 l69 -64 -58 -66 -59 -66 -73 65
-74 66 56 64 c31 35 59 64 63 64 4 0 38 -28 76 -63z m330 -36 l39 -41 -59 -60
c-33 -33 -63 -59 -67 -58 -4 2 -39 32 -78 67 l-72 64 63 63 62 63 36 -29 c20
-15 54 -47 76 -69z m-624 32 c38 -31 69 -59 69 -61 0 -8 -105 -131 -112 -131
-9 -1 -138 109 -138 118 0 8 99 131 106 131 3 0 37 -26 75 -57z m895 -29 l68
-77 -64 -58 -65 -58 -72 72 -73 71 62 63 c34 35 65 63 69 63 4 0 37 -34 75
-76z m-1120 -45 c5 -9 -62 -105 -91 -129 -10 -9 -29 1 -83 43 l-70 54 54 71
55 72 64 -51 c36 -28 68 -55 71 -60z m1424 9 l72 -82 -33 -28 c-19 -16 -50
-41 -69 -57 l-36 -29 -60 66 c-33 37 -64 73 -68 80 -6 10 10 32 50 73 32 32
61 59 65 59 3 0 39 -37 79 -82z m-735 -208 c-33 -33 -62 -60 -65 -60 -3 1 -36
30 -75 66 l-69 64 64 65 65 65 70 -70 70 -70 -60 -60z m-300 128 l64 -63 -58
-64 -59 -64 -71 64 -71 63 27 30 c72 80 87 96 95 96 4 0 37 -28 73 -62z m-255
-36 l35 -30 -25 -29 c-13 -15 -40 -45 -59 -65 l-34 -37 -36 29 c-20 16 -51 41
-69 57 l-33 28 56 68 57 67 36 -29 c21 -16 53 -43 72 -59z m821 41 c24 -27 55
-60 67 -74 l23 -26 -66 -58 -66 -58 -25 24 c-14 13 -44 46 -67 72 l-40 48 59
60 c32 32 61 59 64 59 3 0 26 -21 51 -47z m324 -59 l66 -77 -52 -46 c-88 -77
-76 -78 -152 7 l-67 76 57 58 c32 32 63 58 69 58 6 0 42 -34 79 -76z m-1718
-25 c303 -219 657 -547 922 -854 156 -181 431 -553 431 -584 0 -6 4 -11 8 -11
5 0 18 -17 30 -39 l22 -38 -85 -52 c-47 -29 -85 -55 -85 -57 0 -3 16 -2 35 2
25 4 39 2 50 -10 9 -9 23 -16 30 -16 7 0 19 -17 26 -37 12 -37 13 -37 20 -13
4 14 8 50 8 80 2 93 13 92 71 -6 468 -792 730 -1687 766 -2622 l7 -182 -1964
2 -1964 3 -6 100 c-6 88 -19 185 -35 251 -5 18 1 24 30 34 38 12 42 20 26 50
-9 16 -15 17 -41 8 -16 -6 -32 -9 -34 -7 -1 2 -20 49 -40 104 -40 109 -105
236 -168 330 -91 135 -244 299 -355 378 -23 17 -41 36 -38 42 6 15 2239 3205
2244 3205 2 0 42 -28 89 -61z m2019 -20 l68 -82 -34 -29 c-19 -16 -51 -42 -70
-58 l-35 -28 -68 82 -67 81 62 57 c35 32 66 57 69 58 3 0 37 -37 75 -81z
m-1036 -44 l65 -65 -63 -62 -62 -63 -67 67 -68 68 60 60 c33 33 62 60 65 60 3
0 35 -29 70 -65z m-285 -2 l63 -58 -56 -60 c-31 -33 -61 -60 -67 -60 -6 0 -39
25 -72 55 l-61 55 55 63 c30 34 59 62 65 62 5 0 38 -26 73 -57z m574 -7 c38
-38 62 -70 58 -78 -3 -8 -31 -37 -64 -65 l-59 -51 -63 70 -64 70 59 59 c32 32
61 59 64 59 3 0 34 -29 69 -64z m358 -108 c-5 -15 -120 -109 -130 -105 -6 2
-38 34 -71 71 l-60 68 63 61 64 61 68 -74 c37 -41 67 -78 66 -82z m239 30 l64
-76 -53 -43 c-28 -25 -59 -50 -69 -57 -14 -11 -25 -3 -82 65 l-66 78 62 57
c35 32 67 56 72 55 5 -2 38 -37 72 -79z m-1024 -180 l-62 -63 -65 65 -65 64
62 63 63 63 65 -65 65 -65 -63 -62z m288 116 l65 -66 -65 -59 c-36 -32 -67
-58 -70 -58 -3 1 -32 30 -64 65 l-60 65 59 59 c33 33 62 60 65 60 3 0 35 -30
70 -66z m287 -19 c32 -36 58 -69 58 -74 0 -11 -112 -111 -124 -111 -5 0 -36
31 -69 69 l-61 69 59 56 c32 31 63 56 69 56 5 0 36 -29 68 -65z m295 -40 c35
-42 61 -79 58 -83 -10 -14 -119 -102 -127 -102 -5 0 -36 33 -70 74 l-62 74 62
55 c34 31 65 56 69 56 4 1 36 -33 70 -74z m-723 -79 l62 -63 -62 -57 c-34 -31
-65 -56 -69 -56 -3 0 -32 27 -65 60 l-59 60 59 60 c33 33 62 60 65 60 3 0 34
-29 69 -64z m341 -85 c0 -9 -118 -111 -128 -111 -4 0 -34 30 -66 66 l-60 67
64 60 63 61 63 -67 c35 -37 64 -71 64 -76z m229 43 c29 -35 54 -70 55 -78 0
-7 -28 -37 -63 -65 l-64 -52 -31 38 c-17 21 -45 54 -63 73 l-32 35 62 57 c34
31 67 57 72 57 6 0 34 -29 64 -65z m328 -98 l27 -38 -29 -24 c-17 -13 -48 -37
-70 -53 l-41 -29 -61 78 -62 79 67 55 67 55 38 -42 c20 -23 49 -59 64 -81z
m-707 -71 c0 -13 -118 -118 -128 -113 -4 2 -33 31 -65 64 l-57 61 66 62 66 62
58 -63 c33 -35 59 -68 60 -73z m234 34 c31 -36 56 -68 56 -71 0 -5 -127 -108
-134 -108 -7 0 -116 130 -116 139 0 11 121 112 130 109 4 -2 33 -33 64 -69z
m290 -45 c32 -41 57 -76 55 -78 -2 -1 -32 -24 -66 -49 -34 -26 -66 -47 -70
-47 -10 0 -111 122 -115 139 -3 11 111 110 127 110 6 0 36 -34 69 -75z m745
-23 l60 -89 -69 -46 c-39 -25 -73 -46 -77 -46 -5 1 -34 39 -67 87 -46 67 -56
87 -45 94 8 4 39 26 69 48 30 22 58 41 62 41 4 0 34 -40 67 -89z m-1199 -43
c24 -29 49 -60 57 -69 11 -13 3 -23 -56 -72 l-69 -56 -53 64 c-30 35 -54 68
-54 74 0 11 112 111 124 111 4 0 27 -24 51 -52z m289 -43 c28 -36 54 -71 56
-78 4 -11 -114 -107 -132 -107 -5 0 -33 32 -62 71 l-54 71 34 26 c19 15 47 39
64 54 16 15 33 28 36 28 3 0 29 -29 58 -65z m750 -27 c28 -42 51 -79 51 -82 0
-11 -143 -97 -150 -89 -4 4 -30 43 -59 85 l-51 77 72 51 c39 28 75 47 78 43 4
-5 30 -43 59 -85z m-493 15 c11 -16 36 -51 57 -79 l37 -52 -74 -50 -73 -51
-51 72 c-29 40 -52 77 -52 82 0 9 118 104 131 105 3 0 14 -12 25 -27z m782
-98 c28 -47 52 -89 52 -94 0 -8 -131 -91 -143 -91 -6 0 -106 156 -110 170 -2
10 121 98 138 99 6 1 34 -37 63 -84z m-1189 -19 c28 -35 51 -68 51 -72 0 -9
-122 -104 -132 -104 -3 0 -31 31 -61 69 l-56 68 62 51 c34 28 67 51 74 51 6 1
34 -28 62 -63z m280 -43 c28 -38 50 -73 51 -79 0 -9 -79 -70 -126 -97 -7 -4
-35 24 -68 67 l-55 74 67 51 c37 28 70 51 74 51 4 0 30 -30 57 -67z m744 -48
l56 -89 -72 -43 c-40 -24 -75 -43 -78 -43 -10 0 -110 161 -107 171 3 8 141
100 144 96 1 -1 27 -42 57 -92z m-896 -77 l51 -72 -68 -48 c-37 -26 -72 -48
-77 -48 -8 1 -91 113 -98 134 -4 11 111 104 130 105 6 0 33 -32 62 -71z m1182
-15 c28 -49 51 -93 51 -98 0 -11 -146 -93 -153 -85 -11 14 -97 170 -97 177 0
8 127 90 142 92 3 1 29 -38 57 -86z m-449 -19 c27 -43 48 -79 47 -80 -22 -18
-141 -84 -148 -82 -5 2 -31 39 -58 83 l-50 79 72 48 c39 26 75 44 80 39 4 -4
30 -44 57 -87z m279 -83 c28 -48 51 -91 51 -94 0 -7 -150 -90 -154 -86 -13 18
-96 170 -96 176 0 6 136 92 147 93 1 0 24 -40 52 -89z m-899 -47 c29 -41 50
-77 48 -79 -8 -9 -130 -86 -138 -88 -5 -1 -31 30 -58 69 l-50 72 72 51 c39 27
72 50 72 51 1 0 25 -34 54 -76z m731 -56 c29 -50 48 -93 43 -95 -5 -2 -40 -21
-78 -42 l-70 -38 -48 84 c-27 47 -46 88 -43 92 5 5 134 87 142 90 1 1 25 -40
54 -91z m460 -15 l50 -91 -77 -42 c-41 -23 -79 -38 -83 -34 -5 5 -29 48 -55
95 l-46 87 72 40 c40 23 77 40 81 39 5 -1 31 -44 58 -94z m-934 39 c12 -20 34
-56 48 -79 l25 -41 -74 -46 -75 -45 -50 79 -50 80 67 44 c37 24 72 45 77 45 6
1 20 -16 32 -37z m803 -220 c0 -8 -150 -86 -155 -80 -20 26 -96 183 -89 185 5
2 40 21 79 42 l69 40 48 -90 c26 -49 48 -93 48 -97z m-526 145 c10 -17 31 -55
47 -83 l29 -50 -75 -42 c-41 -23 -77 -42 -79 -42 -8 0 -97 162 -92 167 12 13
132 82 141 83 6 0 18 -15 29 -33z m308 -147 l48 -90 -80 -40 -79 -40 -47 86
c-25 47 -43 88 -40 92 9 8 139 82 146 82 3 0 26 -41 52 -90z m-454 6 c23 -40
42 -78 42 -83 0 -5 -19 -20 -42 -33 -24 -12 -57 -31 -74 -42 l-32 -18 -46 82
c-35 61 -43 84 -34 90 7 4 38 23 68 42 30 19 60 35 66 35 5 1 29 -32 52 -73z
m907 -26 c25 -49 45 -94 45 -100 0 -11 -149 -84 -156 -77 -3 2 -24 45 -49 95
l-44 92 77 40 c42 21 78 39 79 40 2 0 23 -40 48 -90z m-631 -66 c25 -47 46
-89 46 -93 0 -5 -143 -81 -153 -81 -9 0 -90 173 -82 177 6 2 39 22 75 43 36
21 66 39 67 39 1 1 22 -38 47 -85z m-445 -10 l44 -77 -22 -16 c-29 -22 -131
-75 -135 -70 -10 14 -86 152 -84 154 15 10 144 85 149 85 3 0 25 -34 48 -76z
m899 -12 c23 -48 42 -92 42 -98 0 -15 -150 -79 -158 -68 -14 17 -86 174 -81
178 6 6 143 75 150 76 3 0 24 -39 47 -88z m-1318 61 c0 -5 -7 -16 -15 -26 -13
-18 -14 -18 -24 1 -8 15 -8 22 2 25 19 8 37 8 37 0z m695 -140 l45 -83 -79
-40 -79 -39 -25 42 c-13 23 -34 60 -45 83 l-20 40 71 41 c40 22 76 40 80 39 4
-1 28 -38 52 -83z m450 -15 l43 -93 -81 -37 c-44 -21 -81 -37 -81 -36 -1 2
-20 43 -44 92 -24 48 -42 90 -40 91 8 7 144 74 151 75 5 0 28 -42 52 -92z
m455 -44 c23 -52 40 -97 38 -99 -8 -8 -141 -65 -151 -65 -7 0 -31 43 -54 96
l-42 95 72 34 c40 18 77 34 83 34 7 1 31 -42 54 -95z m-1083 -26 c21 -40 39
-76 41 -80 2 -4 -32 -25 -76 -47 l-79 -40 -42 79 -42 79 48 27 c26 15 57 33
68 40 35 22 44 16 82 -58z m450 -15 l41 -88 -72 -37 c-39 -20 -75 -37 -81 -37
-10 0 -91 166 -84 173 7 6 143 75 150 76 3 0 24 -39 46 -87z m452 -39 c24 -53
41 -97 39 -99 -8 -8 -159 -67 -161 -64 -2 2 -21 45 -44 96 l-41 91 77 35 c42
20 79 36 82 36 3 1 25 -42 48 -95z m-629 -46 c35 -73 37 -84 24 -95 -20 -15
-143 -67 -147 -62 -13 22 -77 162 -75 164 8 7 144 74 151 75 5 0 26 -37 47
-82z m482 -115 c2 -11 -19 -25 -76 -50 -43 -18 -80 -32 -81 -31 -13 21 -77
179 -74 183 3 2 39 20 80 39 l74 35 37 -80 c21 -44 39 -87 40 -96z m422 21
c21 -53 34 -100 29 -104 -11 -10 -153 -63 -157 -59 -8 10 -76 192 -74 195 9 9
135 63 148 63 11 1 28 -30 54 -95z m-1080 5 c21 -45 36 -82 34 -84 -2 -2 -37
-19 -79 -38 l-76 -34 -40 82 -41 82 71 36 c40 20 77 36 83 36 6 1 28 -35 48
-80z m437 -6 c55 -122 59 -107 -34 -146 l-81 -34 -38 86 c-21 47 -38 87 -38
88 0 5 143 73 153 73 4 0 22 -30 38 -67z m457 -68 c17 -44 33 -86 34 -93 2 -8
-26 -24 -72 -42 -41 -17 -78 -30 -81 -30 -12 0 -80 183 -72 190 16 15 148 68
154 61 3 -3 20 -42 37 -86z m-627 -35 l37 -84 -75 -33 c-42 -18 -79 -33 -83
-33 -7 0 -75 148 -75 162 0 10 137 77 150 74 5 -1 26 -40 46 -86z m443 -37
c20 -48 35 -92 32 -98 -5 -14 -142 -68 -154 -61 -15 9 -77 179 -67 183 6 2 39
17 75 33 36 16 68 29 71 29 4 1 23 -38 43 -86z m-629 -29 c19 -42 35 -82 35
-88 0 -10 -149 -80 -156 -74 -12 13 -73 163 -67 166 4 1 40 18 78 37 39 18 71
34 73 34 1 1 18 -33 37 -75z m1087 -60 l36 -99 -81 -27 c-45 -16 -84 -28 -87
-28 -9 0 -72 191 -65 198 11 12 139 61 150 58 6 -1 26 -47 47 -102z m-636 7
c18 -46 32 -87 29 -91 -5 -9 -155 -64 -159 -59 -2 2 -20 43 -39 90 l-34 86 71
31 c39 16 77 29 84 28 8 0 29 -39 48 -85z m447 -68 c20 -53 35 -98 34 -99 -1
-2 -39 -16 -84 -33 l-81 -30 -30 82 c-17 45 -33 89 -37 98 -5 14 9 23 72 48
43 16 81 30 84 31 4 0 23 -44 42 -97z m-630 -6 l36 -87 -32 -13 c-91 -38 -129
-49 -136 -41 -4 5 -22 44 -38 86 l-31 76 81 35 c45 20 83 35 83 34 1 -1 18
-41 37 -90z m446 -62 c19 -53 32 -97 30 -99 -6 -5 -162 -56 -164 -53 -13 20
-65 180 -61 185 8 7 137 59 151 61 6 1 26 -42 44 -94z m-629 -10 c18 -47 31
-87 29 -88 -9 -7 -145 -57 -154 -57 -9 0 -65 130 -67 155 0 8 130 72 153 74 3
1 21 -37 39 -84z m445 -62 l33 -90 -80 -28 c-46 -16 -83 -24 -88 -19 -5 5 -22
46 -38 91 l-30 81 77 30 c42 16 80 29 85 28 5 -1 23 -43 41 -93z m632 -20 c18
-53 30 -99 28 -103 -8 -13 -157 -52 -165 -44 -4 5 -21 50 -37 101 l-30 92 71
25 c39 13 78 25 86 25 11 1 25 -28 47 -96z m-822 -34 c17 -45 30 -86 30 -91 0
-9 -155 -72 -161 -65 -5 5 -64 171 -61 173 3 3 151 63 157 63 3 1 19 -36 35
-80z m634 -26 c17 -54 27 -101 23 -104 -6 -6 -143 -49 -155 -49 -7 0 -70 190
-66 194 7 7 144 55 156 55 7 1 26 -42 42 -96z m-815 -51 c14 -40 26 -77 26
-82 0 -8 -159 -65 -164 -59 -9 13 -57 161 -53 165 12 12 153 61 158 56 4 -4
19 -40 33 -80z m626 -7 c17 -49 30 -92 30 -96 0 -7 -161 -62 -165 -56 -1 1
-16 44 -33 95 -22 66 -27 94 -19 97 49 19 152 52 155 50 1 -1 16 -42 32 -90z
m-185 -65 c16 -49 26 -92 23 -95 -3 -3 -40 -16 -84 -29 l-79 -23 -28 89 c-16
50 -27 92 -25 93 7 7 134 54 149 54 11 1 24 -25 44 -89z m632 -45 c17 -58 28
-107 24 -109 -9 -6 -165 -46 -167 -43 -7 9 -55 199 -51 203 4 4 141 50 158 53
3 1 20 -46 36 -104z m-823 -3 c14 -42 26 -84 26 -93 0 -12 -23 -23 -80 -39
-44 -13 -82 -21 -84 -19 -6 7 -57 171 -54 174 4 3 151 53 160 54 3 1 18 -34
32 -77z m615 11 c6 -21 19 -67 30 -103 l18 -66 -85 -22 c-46 -13 -86 -22 -87
-20 -7 8 -55 191 -51 195 5 5 146 52 158 53 4 0 12 -17 17 -37z m-796 -91 c18
-58 22 -84 14 -87 -7 -2 -43 -13 -80 -25 -38 -12 -72 -18 -77 -14 -4 5 -19 44
-33 86 l-25 76 81 29 c45 16 85 27 88 24 4 -3 18 -43 32 -89z m622 -19 c15
-49 28 -93 30 -99 3 -9 -163 -60 -170 -52 -4 5 -48 161 -49 177 -1 12 110 56
151 60 7 1 23 -36 38 -86z m-206 5 c5 -13 18 -55 29 -94 l20 -72 -85 -22 c-46
-12 -86 -21 -87 -19 -5 6 -56 182 -53 184 16 8 136 43 150 44 10 1 21 -9 26
-21z m-167 -129 l25 -87 -84 -22 c-46 -13 -85 -21 -87 -19 -2 2 -15 42 -29 89
l-25 85 82 26 c44 14 84 23 87 20 4 -3 18 -45 31 -92z m820 -15 l25 -101 -88
-20 -88 -20 -21 89 c-32 128 -36 118 55 143 44 12 83 19 86 16 3 -3 17 -52 31
-107z m-192 -43 c11 -46 19 -88 17 -94 -3 -10 -157 -51 -164 -43 -8 7 -52 190
-48 194 2 3 39 14 82 26 54 15 80 19 85 11 3 -5 16 -48 28 -94z m-818 10 l25
-90 -77 -20 c-42 -12 -81 -21 -87 -21 -13 0 -59 158 -49 168 6 6 138 49 157
51 3 1 17 -39 31 -88z m619 -31 c9 -36 19 -79 23 -96 l7 -31 -81 -17 c-45 -10
-85 -14 -90 -10 -8 10 -51 177 -46 182 9 8 133 41 151 39 15 -2 23 -16 36 -67z
m-185 -75 c13 -49 21 -91 19 -93 -5 -6 -167 -43 -169 -40 -5 9 -44 183 -41
186 7 8 132 40 149 39 16 -2 24 -19 42 -92z m-190 -50 c13 -49 22 -90 21 -91
-8 -4 -169 -35 -171 -32 -5 7 -46 171 -43 174 7 7 143 43 156 41 10 -1 23 -34
37 -92z m803 28 c20 -78 33 -164 27 -171 -4 -4 -43 -14 -86 -23 l-79 -16 -11
56 c-6 31 -16 72 -21 91 -16 63 -14 66 59 83 99 22 100 22 111 -20z m-993 -75
l21 -87 -76 -16 c-41 -10 -81 -19 -87 -22 -7 -2 -20 29 -33 83 -12 47 -21 88
-19 89 8 7 145 43 157 42 10 -1 23 -33 37 -89z m808 0 c33 -151 36 -134 -30
-148 -118 -25 -114 -27 -136 70 -10 47 -17 91 -16 99 3 12 105 45 154 50 7 0
19 -31 28 -71z m-189 -58 c9 -47 18 -92 21 -101 4 -13 -12 -19 -82 -33 -47
-10 -87 -16 -89 -14 -2 2 -11 41 -20 87 -9 47 -19 90 -21 96 -3 8 27 19 83 32
48 10 89 19 89 19 1 -1 9 -39 19 -86z m-192 -42 c25 -120 28 -113 -55 -128
-40 -7 -78 -15 -84 -17 -7 -3 -18 24 -28 69 -28 127 -31 118 49 138 106 27 99
30 118 -62z m-189 -56 c9 -45 15 -86 12 -91 -8 -12 -157 -34 -166 -24 -8 9
-42 164 -37 169 8 8 163 40 168 35 3 -3 13 -43 23 -89z m-210 31 c9 -29 35
-158 32 -160 -3 -4 -146 -33 -160 -33 -14 0 -51 158 -40 169 7 7 122 39 146
40 9 1 19 -7 22 -16z m1006 5 c0 -2 9 -50 19 -108 11 -58 18 -106 17 -107 -1
-1 -41 -8 -88 -16 l-87 -13 -11 70 c-7 39 -15 87 -19 106 l-7 35 75 16 c78 17
101 21 101 17z m-175 -139 c9 -55 15 -102 12 -105 -2 -3 -41 -11 -87 -18 -58
-9 -83 -10 -85 -2 -2 6 -8 45 -15 86 -6 41 -14 82 -16 91 -4 13 10 19 68 32
113 23 103 30 123 -84z m-193 -39 c9 -52 15 -96 13 -98 -1 -1 -31 -7 -66 -12
-35 -6 -73 -12 -85 -15 -19 -4 -22 3 -38 92 -9 53 -14 98 -12 101 9 8 120 30
146 29 24 -2 26 -8 42 -97z m-193 -43 c7 -43 10 -81 7 -84 -7 -7 -159 -32
-165 -27 -5 4 -31 146 -31 169 0 18 11 23 83 35 96 17 88 24 106 -93z m-196
-19 c12 -68 14 -94 5 -99 -6 -4 -36 -10 -67 -14 -31 -3 -65 -9 -77 -11 -19 -5
-22 1 -33 73 -7 43 -14 85 -17 94 -3 12 12 19 73 31 43 9 83 16 89 17 6 0 18
-40 27 -91z m-194 -31 c7 -42 11 -83 8 -90 -4 -12 -156 -42 -164 -33 -6 5 -34
168 -30 172 6 6 140 32 157 30 11 -1 19 -24 29 -79z m995 11 c7 -33 26 -164
26 -181 0 -11 -19 -17 -67 -22 -38 -3 -77 -9 -88 -11 -19 -5 -22 2 -33 88 -18
134 -21 125 51 136 99 15 106 15 111 -10z m-182 -112 l14 -105 -35 -5 c-20 -3
-59 -8 -88 -11 l-52 -7 -5 34 c-15 86 -27 171 -24 173 4 3 127 22 154 24 19 1
22 -8 36 -103z m-208 52 c13 -60 26 -171 21 -177 -4 -3 -44 -11 -89 -16 l-83
-11 -13 99 c-7 54 -11 99 -9 101 4 3 120 22 151 25 11 0 20 -8 22 -21z m-185
-83 c18 -123 18 -122 -36 -129 -27 -4 -64 -9 -84 -12 -32 -5 -37 -2 -42 18 -5
22 -21 141 -22 163 0 8 94 29 156 34 13 1 19 -15 28 -74z m-204 23 c3 -13 9
-54 15 -93 10 -76 6 -84 -40 -85 -14 0 -48 -3 -76 -6 l-51 -6 -12 87 c-7 48
-9 90 -6 94 5 5 104 24 152 30 7 0 15 -9 18 -21z m-186 -83 c17 -119 23 -111
-71 -122 -46 -6 -85 -9 -87 -7 -6 5 -29 168 -25 173 3 4 121 25 160 30 7 0 16
-30 23 -74z m1008 -122 c6 -60 10 -109 9 -109 0 -1 -40 -4 -88 -8 l-87 -6 -6
42 c-3 24 -7 72 -8 108 l-2 65 45 6 c25 3 63 7 86 7 l41 2 10 -107z m-203 30
c4 -32 9 -79 12 -105 l6 -47 -44 -5 c-23 -3 -64 -7 -89 -10 l-46 -5 -11 102
c-5 56 -9 103 -7 105 3 3 114 19 146 21 25 1 27 -2 33 -56z m-201 23 c3 -7 8
-54 12 -103 l7 -90 -47 -6 c-85 -12 -123 -9 -129 11 -3 9 -8 54 -12 98 l-6 81
78 10 c44 6 82 11 85 12 4 0 9 -5 12 -13z m-189 -78 c4 -35 9 -79 12 -99 l5
-36 -86 -7 c-48 -4 -88 -6 -90 -4 -6 7 -24 182 -19 187 6 6 87 17 141 20 31 1
31 1 37 -61z m-200 15 c3 -16 8 -58 12 -95 7 -78 13 -74 -97 -82 l-76 -6 -8
91 c-3 50 -5 92 -3 94 4 4 114 21 150 24 10 1 18 -9 22 -26z m-186 -105 c7
-67 6 -78 -7 -79 -9 0 -48 -3 -88 -7 l-72 -8 -6 41 c-3 22 -6 63 -7 90 l-3 50
85 10 c73 9 85 8 88 -5 1 -8 6 -50 10 -92z m997 -90 c4 -46 5 -96 3 -113 l-3
-30 -85 0 -85 0 -7 100 c-3 55 -5 101 -3 103 1 1 38 6 81 11 44 5 82 9 86 10
3 0 9 -36 13 -81z m-201 25 c3 -21 7 -69 8 -108 l3 -70 -87 -3 -86 -3 -7 63
c-4 35 -5 81 -3 103 l3 40 60 6 c33 3 70 6 82 7 17 2 22 -5 27 -35z m-194 -20
c0 -21 3 -68 7 -105 l6 -68 -92 0 -91 0 0 39 c0 21 -3 65 -6 99 l-7 61 54 4
c139 9 129 11 129 -30z m-196 -29 c3 -26 6 -71 6 -100 l0 -54 -85 0 c-60 0
-87 4 -90 13 -2 6 -5 49 -8 94 l-4 82 31 4 c17 2 56 5 87 5 l56 2 7 -46z
m-200 14 c3 -13 7 -58 10 -100 l4 -78 -87 0 -88 0 -7 53 c-3 28 -6 69 -6 89 0
40 5 43 105 51 22 2 46 4 52 5 7 1 15 -8 17 -20z m-191 -65 c4 -38 7 -80 7
-95 l0 -28 -90 0 -90 0 0 38 c0 20 -3 60 -6 89 l-7 52 59 4 c33 2 73 4 90 5
l31 2 6 -67z m997 -192 c0 -126 5 -121 -112 -121 l-68 0 0 110 0 109 73 4 c39
1 80 4 90 5 15 2 17 -9 17 -107z m-200 5 c0 -52 3 -101 6 -110 5 -14 -6 -16
-83 -16 l-90 0 -6 68 c-4 37 -7 84 -7 104 l0 37 78 4 c42 1 83 4 90 5 9 1 12
-22 12 -92z m-197 17 c4 -38 7 -85 7 -105 l0 -38 -90 0 -90 0 0 69 c0 38 -3
82 -6 99 l-6 31 83 4 c46 1 87 4 90 5 3 1 9 -28 12 -65z m-195 -43 c2 -68 -1
-96 -10 -102 -7 -4 -48 -8 -90 -8 l-78 0 0 100 0 99 78 3 c42 2 82 3 87 3 6
-1 11 -42 13 -95z m-198 -10 l0 -100 -84 0 -83 0 -7 53 c-3 28 -6 71 -6 94 l0
42 88 4 c48 1 88 4 90 5 1 1 2 -43 2 -98z m-191 -52 l1 -48 -90 0 -90 0 0 68
c0 37 -3 77 -6 89 -6 22 -3 22 82 25 l89 3 7 -45 c3 -25 7 -66 7 -92z"/>
<path d="M4379 3398 l-22 -31 23 -19 c23 -19 23 -19 41 9 24 36 24 50 0 63
-16 8 -23 5 -42 -22z"/>
<path d="M4286 3259 c-16 -28 -17 -33 -3 -46 19 -20 38 -13 56 20 11 21 12 29
1 42 -19 23 -34 18 -54 -16z"/>
<path d="M4191 3119 c-22 -29 -22 -31 -4 -44 23 -18 32 -15 56 18 17 22 18 29
7 42 -19 22 -34 19 -59 -16z"/>
<path d="M4096 2987 l-26 -32 23 -17 c21 -17 23 -17 49 15 28 34 28 41 -2 57
-15 8 -23 4 -44 -23z"/>
<path d="M3996 2856 c-26 -34 -25 -39 10 -59 7 -4 23 8 38 27 l26 34 -24 16
c-23 15 -25 14 -50 -18z"/>
<path d="M3891 2729 c-24 -30 -24 -31 -4 -50 19 -19 19 -19 48 11 28 29 28 30
10 50 -23 25 -25 25 -54 -11z"/>
<path d="M3782 2601 c-21 -28 -21 -29 -2 -46 16 -15 22 -16 35 -5 9 7 21 22
27 33 8 16 7 23 -8 34 -25 18 -27 17 -52 -16z"/>
<path d="M3670 2483 c-23 -29 -22 -41 3 -57 14 -9 22 -5 41 19 22 27 23 31 9
48 -21 23 -28 22 -53 -10z"/>
<path d="M3555 2365 l-30 -25 23 -22 22 -22 27 27 c22 22 26 31 17 44 -16 25
-26 25 -59 -2z"/>
<path d="M3436 2251 c-24 -25 -27 -33 -16 -46 18 -21 33 -19 60 10 24 25 24
26 4 45 -20 20 -20 20 -48 -9z"/>
<path d="M3307 2142 l-27 -29 20 -18 c20 -18 21 -18 48 6 15 13 29 25 31 26 6
4 -30 43 -39 43 -3 0 -18 -13 -33 -28z"/>
<path d="M3183 2042 c-32 -26 -32 -28 -15 -50 l17 -22 33 27 c31 27 31 29 14
50 l-17 22 -32 -27z"/>
<path d="M3046 1939 c-21 -17 -24 -24 -16 -40 14 -24 25 -24 62 2 28 20 28 22
12 40 -21 24 -25 24 -58 -2z"/>
<path d="M2913 1849 c-32 -20 -33 -27 -10 -56 9 -13 23 -8 61 20 16 12 17 16
5 35 -17 27 -16 27 -56 1z"/>
<path d="M2773 1759 c-27 -17 -31 -24 -23 -39 16 -29 23 -30 57 -9 29 18 31
23 21 45 -13 29 -15 29 -55 3z"/>
<path d="M2628 1672 c-32 -19 -33 -22 -15 -46 12 -17 15 -17 49 0 33 15 35 19
26 40 -13 28 -24 29 -60 6z"/>
<path d="M2484 1592 c-27 -15 -30 -20 -21 -39 12 -27 18 -28 57 -8 34 17 34
19 20 46 -13 23 -16 23 -56 1z"/>
<path d="M2343 1522 c-36 -17 -38 -23 -23 -52 10 -19 12 -19 45 -3 37 18 42
30 23 55 -12 15 -16 15 -45 0z"/>
<path d="M2188 1447 c-31 -12 -33 -19 -18 -47 9 -17 14 -18 38 -8 39 17 45 24
37 47 -7 23 -16 24 -57 8z"/>
<path d="M2045 1383 c-39 -21 -38 -18 -30 -42 7 -24 23 -26 60 -9 28 12 31 26
13 51 -12 14 -16 15 -43 0z"/>
<path d="M1882 1315 c-30 -13 -32 -16 -21 -37 6 -13 13 -24 14 -26 3 -4 75 28
75 34 0 11 -21 44 -28 44 -4 -1 -22 -7 -40 -15z"/>
<path d="M1732 1257 c-29 -9 -33 -13 -27 -36 9 -35 8 -35 49 -20 36 13 41 23
30 53 -7 18 -7 18 -52 3z"/>
<path d="M1575 1198 c-39 -14 -38 -12 -24 -41 10 -23 14 -24 43 -15 43 15 50
23 37 47 -13 23 -14 24 -56 9z"/>
<path d="M9150 6270 c6 -11 13 -20 16 -20 2 0 0 9 -6 20 -6 11 -13 20 -16 20
-2 0 0 -9 6 -20z"/>
<path d="M9190 6203 c13 -21 67 -117 121 -213 114 -202 140 -244 73 -115 -60
116 -204 365 -211 365 -3 0 5 -17 17 -37z"/>
<path d="M3480 6080 c-44 -66 -78 -120 -75 -120 2 0 41 54 85 120 44 66 78
120 75 120 -2 0 -41 -54 -85 -120z"/>
<path d="M3310 5830 c-44 -66 -78 -120 -75 -120 2 0 41 54 85 120 44 66 78
120 75 120 -2 0 -41 -54 -85 -120z"/>
<path d="M9552 5535 c62 -123 114 -222 116 -221 4 5 -216 446 -223 446 -3 0
46 -101 107 -225z"/>
<path d="M3140 5580 c-44 -66 -78 -120 -75 -120 2 0 41 54 85 120 44 66 78
120 75 120 -2 0 -41 -54 -85 -120z"/>
<path d="M3032 5423 c-10 -16 -22 -33 -25 -39 -4 -7 15 -26 46 -46 28 -19 115
-82 192 -140 396 -296 779 -673 1078 -1061 89 -116 128 -164 116 -142 -12 21
-135 183 -198 260 -316 386 -701 747 -1104 1033 l-126 89 25 37 c14 20 23 36
20 36 -3 0 -13 -12 -24 -27z"/>
<path d="M9671 5295 c0 -5 13 -35 29 -65 16 -30 29 -50 29 -45 0 6 -13 35 -29
65 -16 30 -29 51 -29 45z"/>
<path d="M9731 5165 c0 -5 11 -30 24 -55 13 -25 24 -40 24 -35 0 6 -11 30 -24
55 -13 25 -24 41 -24 35z"/>
<path d="M9781 5055 c0 -5 6 -21 14 -35 8 -14 14 -20 14 -15 0 6 -6 21 -14 35
-8 14 -14 21 -14 15z"/>
<path d="M9811 4985 c0 -5 6 -21 14 -35 8 -14 14 -20 14 -15 0 6 -6 21 -14 35
-8 14 -14 21 -14 15z"/>
<path d="M9841 4915 c0 -5 6 -21 14 -35 8 -14 14 -20 14 -15 0 6 -6 21 -14 35
-8 14 -14 21 -14 15z"/>
<path d="M9870 4845 c0 -5 5 -17 10 -25 5 -8 10 -10 10 -5 0 6 -5 17 -10 25
-5 8 -10 11 -10 5z"/>
<path d="M9890 4795 c0 -5 5 -17 10 -25 5 -8 10 -10 10 -5 0 6 -5 17 -10 25
-5 8 -10 11 -10 5z"/>
<path d="M9910 4745 c0 -5 5 -17 10 -25 5 -8 10 -10 10 -5 0 6 -5 17 -10 25
-5 8 -10 11 -10 5z"/>
<path d="M1003 4684 c-8 -21 13 -42 28 -27 13 13 5 43 -11 43 -6 0 -13 -7 -17
-16z"/>
<path d="M9930 4695 c0 -5 5 -17 10 -25 5 -8 10 -10 10 -5 0 6 -5 17 -10 25
-5 8 -10 11 -10 5z"/>
<path d="M9950 4645 c0 -5 5 -17 10 -25 5 -8 10 -10 10 -5 0 6 -5 17 -10 25
-5 8 -10 11 -10 5z"/>
<path d="M9970 4595 c0 -5 5 -17 10 -25 5 -8 10 -10 10 -5 0 6 -5 17 -10 25
-5 8 -10 11 -10 5z"/>
<path d="M920 4577 c0 -19 16 -31 24 -18 3 5 -1 14 -9 21 -12 10 -15 10 -15
-3z"/>
<path d="M270 4571 c0 -5 9 -11 20 -14 18 -5 20 -14 20 -102 0 -88 -2 -97 -20
-102 -39 -10 -19 -23 36 -23 34 0 53 4 49 10 -3 6 -13 10 -21 10 -11 0 -14 17
-14 81 0 77 10 115 34 131 19 13 34 9 32 -9 0 -10 6 -18 14 -18 8 0 15 9 15
20 0 33 -49 32 -80 -1 l-25 -27 0 27 c0 22 -4 26 -30 26 -16 0 -30 -4 -30 -9z"/>
<path d="M514 4546 c-31 -31 -34 -40 -34 -91 0 -51 3 -60 34 -91 45 -45 104
-48 141 -8 14 15 25 32 25 38 0 5 -12 -5 -28 -23 -22 -27 -33 -32 -61 -29 -51
5 -76 44 -75 119 2 72 23 109 62 109 15 0 32 -4 38 -8 16 -11 34 -48 34 -71 0
-13 6 -21 16 -21 13 0 15 7 10 32 -16 83 -100 106 -162 44z"/>
<path d="M748 4550 c-25 -25 -29 -36 -23 -58 4 -15 7 -47 7 -71 -1 -24 3 -52
9 -62 6 -13 6 -19 0 -19 -18 0 -43 -48 -36 -70 7 -22 60 -54 78 -46 7 2 4 5
-5 5 -24 1 -57 47 -51 71 9 32 40 43 107 37 111 -10 118 -82 10 -113 l-49 -14
45 5 c58 7 94 33 98 72 5 47 -35 73 -109 73 -61 0 -93 18 -87 49 3 11 12 15
33 13 l30 -3 -22 16 c-18 13 -23 26 -23 64 0 26 5 52 12 59 16 16 53 15 66 -1
31 -37 20 -121 -16 -130 -12 -3 -11 -5 5 -6 45 -2 78 73 53 120 -9 16 -7 21
12 29 16 6 18 9 6 9 -9 1 -20 -4 -23 -9 -4 -7 -12 -7 -25 0 -34 18 -70 11
-102 -20z"/>
<path d="M976 4571 c-3 -5 3 -11 14 -14 18 -5 20 -14 20 -106 0 -81 -3 -101
-14 -101 -8 0 -18 -4 -21 -10 -4 -6 13 -10 44 -10 28 0 51 5 51 10 0 6 -7 10
-15 10 -12 0 -15 19 -15 115 l0 115 -29 0 c-17 0 -32 -4 -35 -9z"/>
<path d="M1172 4564 c-33 -23 -52 -67 -52 -120 0 -39 5 -51 34 -80 27 -27 42
-34 74 -34 112 0 159 150 71 224 -36 30 -92 35 -127 10z m114 -15 c28 -31 31
-134 5 -176 -34 -54 -109 -43 -130 18 -21 61 -9 140 26 167 26 19 77 15 99 -9z"/>
<path d="M1380 4571 c0 -5 9 -11 20 -14 18 -5 20 -14 20 -105 0 -94 -1 -100
-22 -107 -22 -8 -22 -8 4 -12 15 -2 42 -2 60 0 30 4 31 5 11 12 -21 7 -23 13
-23 90 0 69 3 87 22 111 l22 29 -22 -19 c-22 -19 -22 -19 -22 2 0 18 -6 22
-35 22 -19 0 -35 -4 -35 -9z"/>
<path d="M1523 4573 c37 -6 47 -34 47 -137 0 -78 -2 -84 -22 -91 -21 -7 -20
-8 10 -12 18 -2 45 -2 60 0 25 4 26 5 5 12 -19 6 -21 15 -25 107 -3 111 -14
129 -72 127 l-31 -2 28 -4z"/>
<path d="M1711 4570 c-17 -10 -7 -40 14 -40 8 0 15 9 15 19 0 24 -12 32 -29
21z"/>
<path d="M10000 4515 c0 -5 5 -17 10 -25 5 -8 10 -10 10 -5 0 6 -5 17 -10 25
-5 8 -10 11 -10 5z"/>
<path d="M10036 4420 c3 -14 11 -32 16 -40 6 -10 7 -7 2 10 -3 14 -11 32 -16
40 -6 10 -7 7 -2 -10z"/>
<path d="M1703 4364 c-8 -21 13 -42 28 -27 13 13 5 43 -11 43 -6 0 -13 -7 -17
-16z"/>
<path d="M10072 4318 c3 -7 13 -37 23 -66 9 -29 19 -52 21 -49 5 5 -36 127
-43 127 -3 0 -3 -6 -1 -12z"/>
<path d="M10172 4030 c0 -8 8 -37 18 -65 10 -27 18 -43 18 -35 0 8 -8 38 -18
65 -10 28 -18 43 -18 35z"/>
<path d="M4506 3888 c55 -80 87 -121 69 -88 -17 30 -117 170 -122 170 -2 0 21
-37 53 -82z"/>
<path d="M1157 3933 c-18 -5 -18 -6 2 -19 20 -14 21 -24 21 -178 0 -158 -1
-164 -22 -179 -22 -15 -21 -16 32 -16 48 0 53 1 38 13 -24 18 -24 87 0 109 17
16 20 13 56 -41 20 -31 32 -58 27 -60 -27 -9 -7 -22 34 -22 25 0 45 5 45 10 0
6 -7 10 -14 10 -15 0 -106 119 -106 138 0 13 79 72 97 72 7 0 13 5 13 10 0 6
-21 10 -46 10 -42 0 -45 -2 -39 -21 6 -16 -3 -31 -36 -66 l-44 -44 -5 138 c-5
145 -7 148 -53 136z"/>
<path d="M308 3884 c-5 -4 -8 -18 -8 -31 0 -14 -13 -38 -29 -54 l-29 -29 24 0
c24 0 24 -1 24 -99 0 -110 9 -131 59 -131 36 0 48 14 55 65 l6 40 -13 -45
c-10 -35 -18 -46 -36 -48 -13 -2 -28 2 -32 10 -5 7 -9 57 -9 111 l0 97 41 0
c24 0 38 4 34 10 -3 6 -21 10 -40 10 -34 0 -34 0 -37 51 -2 28 -6 47 -10 43z"/>
<path d="M10231 3840 c0 -8 4 -24 9 -35 5 -13 9 -14 9 -5 0 8 -4 24 -9 35 -5
13 -9 14 -9 5z"/>
<path d="M450 3781 c0 -5 9 -11 20 -14 18 -5 20 -14 20 -100 0 -87 -2 -96 -22
-110 -22 -15 -21 -16 35 -16 36 -1 56 3 52 9 -3 6 -13 10 -21 10 -11 0 -14 17
-14 81 0 77 10 115 34 131 19 13 34 9 32 -9 0 -10 6 -18 14 -18 8 0 15 9 15
20 0 33 -49 32 -80 -1 l-25 -27 0 27 c0 22 -4 26 -30 26 -16 0 -30 -4 -30 -9z"/>
<path d="M701 3773 c-27 -23 -32 -66 -8 -71 19 -4 25 34 6 40 -21 7 21 38 51
38 44 0 60 -31 60 -115 0 -50 -5 -78 -17 -95 -17 -25 -16 -25 4 -7 20 17 21
17 26 -3 3 -13 13 -20 31 -20 28 0 46 25 45 62 -1 25 -4 19 -13 -24 -7 -31
-30 -37 -40 -12 -3 9 -6 51 -6 95 0 71 -3 83 -25 104 -29 30 -83 33 -114 8z"/>
<path d="M971 3774 c-47 -33 -65 -119 -36 -174 33 -64 114 -82 160 -35 14 13
25 30 25 37 0 7 -8 1 -17 -12 -23 -34 -33 -40 -70 -40 -49 0 -73 38 -73 115 0
48 5 68 21 89 24 31 72 35 101 10 16 -16 17 -18 1 -29 -18 -13 -10 -35 13 -35
21 0 17 47 -6 70 -25 25 -86 27 -119 4z"/>
<path d="M1434 3756 c-31 -31 -34 -40 -34 -91 0 -51 3 -60 34 -91 45 -45 104
-48 141 -8 14 15 25 32 25 38 0 5 -12 -5 -28 -23 -22 -27 -33 -32 -61 -29 -51
5 -76 44 -75 119 2 72 23 109 62 109 15 0 32 -4 38 -8 16 -11 34 -48 34 -71 0
-13 6 -21 16 -21 13 0 15 7 10 32 -16 83 -100 106 -162 44z"/>
<path d="M1640 3781 c0 -5 9 -11 20 -14 18 -5 20 -14 20 -100 0 -87 -2 -96
-22 -110 -22 -15 -21 -16 35 -16 36 -1 56 3 52 9 -3 6 -13 10 -21 10 -11 0
-14 17 -14 81 0 77 10 115 34 131 19 13 34 9 32 -9 0 -10 6 -18 14 -18 8 0 15
9 15 20 0 33 -49 32 -80 -1 l-25 -27 0 27 c0 22 -4 26 -30 26 -16 0 -30 -4
-30 -9z"/>
<path d="M10261 3740 c0 -8 4 -24 9 -35 5 -13 9 -14 9 -5 0 8 -4 24 -9 35 -5
13 -9 14 -9 5z"/>
<path d="M713 3665 c-73 -31 -67 -126 8 -124 23 0 24 0 2 9 -53 21 -30 93 38
117 30 10 31 12 9 12 -14 0 -39 -6 -57 -14z"/>
<path d="M10281 3664 c0 -11 3 -14 6 -6 3 7 2 16 -1 19 -3 4 -6 -2 -5 -13z"/>
<path d="M10301 3594 c0 -11 3 -14 6 -6 3 7 2 16 -1 19 -3 4 -6 -2 -5 -13z"/>
<path d="M10311 3560 c0 -8 4 -24 9 -35 5 -13 9 -14 9 -5 0 8 -4 24 -9 35 -5
13 -9 14 -9 5z"/>
<path d="M10331 3484 c0 -11 3 -14 6 -6 3 7 2 16 -1 19 -3 4 -6 -2 -5 -13z"/>
<path d="M10347 3430 c3 -19 12 -53 19 -75 13 -38 13 -38 7 -5 -3 19 -12 53
-19 75 -13 38 -13 38 -7 5z"/>
<path d="M4897 3225 c43 -85 79 -153 81 -151 4 5 -146 306 -153 306 -3 0 30
-70 72 -155z"/>
<path d="M10381 3294 c0 -11 3 -14 6 -6 3 7 2 16 -1 19 -3 4 -6 -2 -5 -13z"/>
<path d="M10392 3250 c0 -14 2 -19 5 -12 2 6 2 18 0 25 -3 6 -5 1 -5 -13z"/>
<path d="M10401 3204 c0 -11 3 -14 6 -6 3 7 2 16 -1 19 -3 4 -6 -2 -5 -13z"/>
<path d="M10411 3164 c0 -11 3 -14 6 -6 3 7 2 16 -1 19 -3 4 -6 -2 -5 -13z"/>
<path d="M10421 3124 c0 -11 3 -14 6 -6 3 7 2 16 -1 19 -3 4 -6 -2 -5 -13z"/>
<path d="M10432 3080 c0 -14 2 -19 5 -12 2 6 2 18 0 25 -3 6 -5 1 -5 -13z"/>
<path d="M10441 3034 c0 -11 3 -14 6 -6 3 7 2 16 -1 19 -3 4 -6 -2 -5 -13z"/>
<path d="M4991 3035 c0 -5 8 -26 19 -45 11 -19 19 -30 19 -25 0 6 -8 26 -19
45 -11 19 -19 31 -19 25z"/>
<path d="M10452 2990 c0 -14 2 -19 5 -12 2 6 2 18 0 25 -3 6 -5 1 -5 -13z"/>
<path d="M10462 2940 c0 -14 2 -19 5 -12 2 6 2 18 0 25 -3 6 -5 1 -5 -13z"/>
<path d="M5031 2945 c0 -5 6 -21 14 -35 8 -14 14 -20 14 -15 0 6 -6 21 -14 35
-8 14 -14 21 -14 15z"/>
<path d="M10472 2890 c0 -14 2 -19 5 -12 2 6 2 18 0 25 -3 6 -5 1 -5 -13z"/>
<path d="M5064 2870 c9 -32 39 -101 43 -97 2 3 -8 29 -22 58 -14 30 -23 47
-21 39z"/>
<path d="M10481 2844 c0 -11 3 -14 6 -6 3 7 2 16 -1 19 -3 4 -6 -2 -5 -13z"/>
<path d="M10491 2794 c0 -11 3 -14 6 -6 3 7 2 16 -1 19 -3 4 -6 -2 -5 -13z"/>
<path d="M5116 2740 c3 -14 11 -32 16 -40 6 -10 7 -7 2 10 -3 14 -11 32 -16
40 -6 10 -7 7 -2 -10z"/>
<path d="M10502 2740 c0 -14 2 -19 5 -12 2 6 2 18 0 25 -3 6 -5 1 -5 -13z"/>
<path d="M10512 2690 c0 -14 2 -19 5 -12 2 6 2 18 0 25 -3 6 -5 1 -5 -13z"/>
<path d="M5146 2660 c3 -14 11 -32 16 -40 6 -10 7 -7 2 10 -3 14 -11 32 -16
40 -6 10 -7 7 -2 -10z"/>
<path d="M10522 2640 c0 -14 2 -19 5 -12 2 6 2 18 0 25 -3 6 -5 1 -5 -13z"/>
<path d="M10532 2580 c0 -14 2 -19 5 -12 2 6 2 18 0 25 -3 6 -5 1 -5 -13z"/>
<path d="M5184 2553 c21 -67 65 -186 65 -177 1 13 -57 185 -65 193 -4 3 -3 -4
0 -16z"/>
<path d="M10542 2525 c0 -16 2 -22 5 -12 2 9 2 23 0 30 -3 6 -5 -1 -5 -18z"/>
<path d="M10552 2465 c0 -16 2 -22 5 -12 2 9 2 23 0 30 -3 6 -5 -1 -5 -18z"/>
<path d="M10562 2405 c0 -16 2 -22 5 -12 2 9 2 23 0 30 -3 6 -5 -1 -5 -18z"/>
<path d="M10572 2340 c0 -19 2 -27 5 -17 2 9 2 25 0 35 -3 9 -5 1 -5 -18z"/>
<path d="M5261 2320 c0 -8 4 -24 9 -35 5 -13 9 -14 9 -5 0 8 -4 24 -9 35 -5
13 -9 14 -9 5z"/>
<path d="M10582 2275 c0 -16 2 -22 5 -12 2 9 2 23 0 30 -3 6 -5 -1 -5 -18z"/>
<path d="M5281 2250 c0 -8 4 -24 9 -35 5 -13 9 -14 9 -5 0 8 -4 24 -9 35 -5
13 -9 14 -9 5z"/>
<path d="M10592 2200 c0 -19 2 -27 5 -17 2 9 2 25 0 35 -3 9 -5 1 -5 -18z"/>
<path d="M5306 2160 c4 -19 11 -44 15 -55 6 -14 7 -9 3 15 -4 19 -11 44 -15
55 -6 14 -7 9 -3 -15z"/>
<path d="M10602 2130 c0 -19 2 -27 5 -17 2 9 2 25 0 35 -3 9 -5 1 -5 -18z"/>
<path d="M5331 2064 c0 -11 3 -14 6 -6 3 7 2 16 -1 19 -3 4 -6 -2 -5 -13z"/>
<path d="M10612 2050 c0 -19 2 -27 5 -17 2 9 2 25 0 35 -3 9 -5 1 -5 -18z"/>
<path d="M5341 2024 c0 -11 3 -14 6 -6 3 7 2 16 -1 19 -3 4 -6 -2 -5 -13z"/>
<path d="M10623 1975 c0 -22 2 -30 4 -17 2 12 2 30 0 40 -3 9 -5 -1 -4 -23z"/>
<path d="M5352 1980 c0 -14 2 -19 5 -12 2 6 2 18 0 25 -3 6 -5 1 -5 -13z"/>
<path d="M5361 1934 c0 -11 3 -14 6 -6 3 7 2 16 -1 19 -3 4 -6 -2 -5 -13z"/>
<path d="M10633 1885 c0 -22 2 -30 4 -17 2 12 2 30 0 40 -3 9 -5 -1 -4 -23z"/>
<path d="M5372 1890 c0 -14 2 -19 5 -12 2 6 2 18 0 25 -3 6 -5 1 -5 -13z"/>
<path d="M5381 1844 c0 -11 3 -14 6 -6 3 7 2 16 -1 19 -3 4 -6 -2 -5 -13z"/>
<path d="M10643 1790 c0 -25 2 -35 4 -22 2 12 2 32 0 45 -2 12 -4 2 -4 -23z"/>
<path d="M5392 1790 c0 -14 2 -19 5 -12 2 6 2 18 0 25 -3 6 -5 1 -5 -13z"/>
<path d="M5402 1740 c0 -14 2 -19 5 -12 2 6 2 18 0 25 -3 6 -5 1 -5 -13z"/>
<path d="M10653 1685 c0 -27 2 -38 4 -22 2 15 2 37 0 50 -2 12 -4 0 -4 -28z"/>
<path d="M5412 1690 c0 -14 2 -19 5 -12 2 6 2 18 0 25 -3 6 -5 1 -5 -13z"/>
<path d="M5422 1630 c0 -14 2 -19 5 -12 2 6 2 18 0 25 -3 6 -5 1 -5 -13z"/>
<path d="M10663 1570 c0 -30 2 -43 4 -27 2 15 2 39 0 55 -2 15 -4 2 -4 -28z"/>
<path d="M5432 1575 c0 -16 2 -22 5 -12 2 9 2 23 0 30 -3 6 -5 -1 -5 -18z"/>
<path d="M5442 1505 c0 -16 2 -22 5 -12 2 9 2 23 0 30 -3 6 -5 -1 -5 -18z"/>
<path d="M10673 1435 c0 -33 2 -45 4 -27 2 18 2 45 0 60 -2 15 -4 0 -4 -33z"/>
<path d="M5452 1430 c0 -19 2 -27 5 -17 2 9 2 25 0 35 -3 9 -5 1 -5 -18z"/>
<path d="M5463 1355 c0 -22 2 -30 4 -17 2 12 2 30 0 40 -3 9 -5 -1 -4 -23z"/>
<path d="M10683 1270 c0 -41 2 -58 4 -37 2 20 2 54 0 75 -2 20 -4 3 -4 -38z"/>
<path d="M5473 1260 c0 -25 2 -35 4 -22 2 12 2 32 0 45 -2 12 -4 2 -4 -23z"/>
<path d="M5483 1145 c0 -27 2 -38 4 -22 2 15 2 37 0 50 -2 12 -4 0 -4 -28z"/>
<path d="M10694 1015 c0 -71 1 -99 3 -62 2 37 2 96 0 130 -2 34 -3 4 -3 -68z"/>
<path d="M915 1037 l30 -25 -45 -12 c-126 -33 -132 -36 -111 -69 8 -12 19 -12
73 2 36 9 73 19 82 23 16 6 16 4 2 -30 -8 -20 -13 -36 -10 -36 9 0 144 122
144 130 0 6 -36 14 -162 36 l-33 6 30 -25z"/>
<path d="M5493 985 c0 -44 2 -61 4 -37 2 23 2 59 0 80 -2 20 -4 1 -4 -43z"/>
<path d="M613 956 l27 -25 -42 -11 c-97 -25 -118 -34 -118 -47 0 -9 -8 -12
-22 -8 -81 19 -172 35 -175 31 -3 -2 7 -12 21 -21 14 -10 24 -20 21 -24 -2 -4
-38 -16 -79 -26 -73 -18 -75 -20 -69 -44 3 -14 7 -27 8 -28 1 -2 33 6 71 17
96 28 97 27 79 -17 l-16 -37 23 20 c13 11 46 41 75 67 50 45 73 57 73 39 0 -5
34 0 75 11 41 11 78 18 81 14 3 -3 0 -15 -6 -27 -21 -40 -3 -31 69 32 39 34
67 65 63 69 -4 3 -36 12 -72 18 -36 7 -76 15 -90 17 l-25 5 28 -25z"/>
<path d="M10498 828 c4 -125 9 -137 10 -30 1 56 -1 102 -5 102 -5 0 -7 -33 -5
-72z"/>
<path d="M5505 713 l0 -138 265 0 265 0 -262 2 -262 3 -4 135 -3 135 1 -137z"/>
<path d="M6962 720 c0 -14 2 -19 5 -12 2 6 2 18 0 25 -3 6 -5 1 -5 -13z"/>
<path d="M6363 563 c75 -2 199 -2 275 0 75 1 13 3 -138 3 -151 0 -213 -2 -137
-3z"/>
<path d="M7103 553 c75 -2 199 -2 275 0 75 1 13 3 -138 3 -151 0 -213 -2 -137
-3z"/>
<path d="M7833 543 c76 -2 198 -2 270 0 73 1 11 3 -138 3 -148 0 -208 -2 -132
-3z"/>
<path d="M8562 533 c70 -2 187 -2 260 0 73 1 16 3 -127 3 -143 0 -203 -2 -133
-3z"/>
<path d="M9292 523 c70 -2 187 -2 260 0 73 1 16 3 -127 3 -143 0 -203 -2 -133
-3z"/>
<path d="M10033 513 c70 -2 184 -2 255 0 70 1 12 3 -128 3 -140 0 -198 -2
-127 -3z"/>
<path d="M10665 510 l-30 -8 33 -1 c17 0 32 4 32 9 0 6 -1 9 -2 9 -2 -1 -16
-5 -33 -9z"/>
</g>
</svg>
