<?xml version="1.0" standalone="no"?>
<!DOCTYPE svg PUBLIC "-//W3C//DTD SVG 20010904//EN"
 "http://www.w3.org/TR/2001/REC-SVG-20010904/DTD/svg10.dtd">
<svg version="1.0" xmlns="http://www.w3.org/2000/svg"
 width="1100.000000pt" height="1057.000000pt" viewBox="0 0 1100.000000 1057.000000"
 preserveAspectRatio="xMidYMid meet">

<g transform="translate(0.000000,1057.000000) scale(0.100000,-0.100000)"
fill="#000000" stroke="none">
<path d="M6050 9392 c106 -73 350 -257 350 -264 0 -10 -218 -298 -225 -298 -3
0 -64 44 -137 98 -215 158 -238 174 -238 165 0 -5 66 -57 148 -116 81 -58 163
-119 182 -135 l35 -30 -104 -136 c-57 -74 -110 -141 -117 -147 -11 -9 -42 10
-141 83 -188 138 -222 162 -228 156 -3 -3 7 -13 22 -23 104 -67 323 -240 319
-251 -3 -7 -53 -76 -112 -153 l-108 -140 -45 34 c-159 120 -295 215 -299 210
-3 -3 -3 -6 -1 -8 2 -2 77 -56 167 -121 89 -64 162 -122 162 -127 0 -20 -223
-298 -234 -292 -6 4 -69 50 -141 103 -153 114 -185 135 -185 124 1 -5 26 -27
58 -48 31 -22 105 -75 164 -118 l107 -79 -101 -132 c-144 -189 -128 -177 -180
-135 -83 66 -259 190 -264 186 -2 -3 65 -56 151 -118 l155 -113 -18 -23 c-146
-193 -208 -273 -214 -274 -4 0 -71 47 -150 105 -79 58 -147 105 -153 104 -11
0 -5 -5 167 -131 l127 -94 -116 -151 -115 -151 -111 82 c-156 115 -177 128
-177 119 0 -4 59 -51 131 -103 72 -52 134 -100 136 -107 7 -19 -217 -306 -230
-295 -57 46 -262 190 -266 187 -2 -3 -2 -6 0 -8 2 -2 64 -47 136 -101 l133
-97 -90 -117 c-49 -64 -102 -132 -117 -150 l-28 -33 -109 81 c-97 72 -168 119
-141 93 6 -5 73 -56 150 -113 262 -193 486 -385 763 -655 207 -200 529 -562
520 -583 -3 -10 -124 -112 -132 -112 -3 0 -39 41 -82 91 -57 67 -74 93 -65
102 13 13 13 65 1 122 -7 30 -7 21 -3 -36 3 -46 1 -79 -5 -83 -5 -3 -79 69
-163 160 -167 181 -365 370 -577 552 -139 119 -496 392 -512 392 -6 0 -36 -36
-67 -81 -32 -44 -84 -116 -115 -160 -32 -43 -58 -81 -58 -84 0 -3 -26 -41 -57
-84 -32 -44 -80 -112 -108 -151 -27 -39 -75 -106 -105 -148 -30 -43 -77 -110
-105 -150 -27 -41 -56 -81 -63 -91 -11 -15 -6 -22 35 -51 245 -173 536 -424
768 -661 260 -266 564 -644 689 -856 4 -8 -5 -20 -26 -33 l-33 -20 33 0 c23 0
32 -4 29 -12 -4 -13 -15 -13 -87 -1 -32 4 -41 14 -93 99 l-58 94 -38 -22 c-90
-54 -88 -41 -20 -148 47 -74 60 -103 58 -130 -4 -67 1 -89 27 -119 l26 -31
-36 -44 c-20 -24 -34 -50 -31 -58 4 -9 -16 -25 -62 -50 -38 -20 -77 -44 -88
-53 -19 -15 -18 -16 18 -10 20 3 37 3 37 -1 0 -3 -25 -42 -55 -86 -52 -75 -54
-81 -38 -94 10 -7 21 -14 25 -14 4 0 33 37 65 82 l58 82 9 -32 c14 -48 23 -39
30 31 13 117 18 138 30 128 7 -6 23 8 49 44 46 63 61 63 102 -3 16 -26 44 -70
62 -99 l33 -52 51 32 c28 17 53 37 56 43 2 7 -21 51 -52 99 -52 81 -55 90 -45
115 6 16 10 56 8 91 -2 41 1 63 9 66 6 2 14 -5 18 -17 4 -11 18 -33 32 -48 34
-37 126 -200 231 -412 190 -379 329 -757 432 -1169 92 -366 149 -774 167
-1196 4 -99 9 -159 11 -132 l3 47 90 0 89 0 0 -45 c0 -25 5 -45 10 -45 6 0 10
20 10 45 l0 45 90 0 90 0 0 -45 c0 -25 5 -45 10 -45 6 0 10 20 10 44 0 50 1
51 108 55 l62 2 0 -50 c0 -28 5 -51 10 -51 6 0 10 23 10 50 l0 50 90 0 90 0 0
-50 c0 -27 5 -50 10 -50 6 0 10 23 10 50 l0 50 90 0 90 0 0 -50 c0 -27 5 -50
10 -50 6 0 10 22 10 49 l0 48 46 7 c26 3 64 6 85 6 l39 0 0 -55 c0 -30 5 -55
10 -55 13 0 13 121 0 355 -70 1266 -466 2448 -1176 3507 -63 93 -147 213 -189
268 -41 55 -75 104 -75 109 0 5 6 24 14 42 l14 33 22 -35 22 -34 -6 100 c-7
114 -16 116 96 -25 102 -129 184 -245 307 -435 57 -88 113 -173 124 -190 46
-65 193 -330 282 -505 298 -591 502 -1186 630 -1835 30 -153 41 -225 75 -460
20 -136 40 -387 50 -622 12 -272 17 -317 19 -185 l1 92 190 0 189 0 4 -92 3
-93 2 98 2 97 190 0 189 0 4 -97 3 -98 2 103 2 102 138 0 c75 0 161 3 190 6
l52 6 0 -106 c0 -64 4 -106 10 -106 6 0 10 42 10 105 l0 105 140 2 c77 1 161
2 188 3 l47 0 6 -110 5 -110 2 113 2 112 123 0 c67 0 152 3 190 7 l67 6 0
-117 c0 -64 4 -116 9 -116 6 0 7 48 4 115 l-6 115 109 0 c60 0 146 3 192 7
l82 6 1 -69 c1 -38 4 -94 9 -124 6 -46 7 -34 9 68 l1 122 130 2 c72 1 156 2
188 3 l57 0 5 -125 6 -125 2 128 2 127 83 0 c46 0 132 3 190 7 l107 6 0 -131
c0 -93 3 -132 12 -132 8 0 9 35 5 130 l-6 130 124 2 c69 1 155 3 193 3 l67 0
6 -130 c4 -73 5 -27 2 105 -20 1189 -265 2436 -702 3570 -246 637 -588 1318
-949 1885 -621 979 -1402 1854 -2295 2573 -245 197 -575 443 -594 441 -4 0 3
-8 17 -17z m550 -415 c85 -69 174 -142 197 -163 l42 -39 -87 -100 c-48 -56
-103 -121 -123 -145 l-37 -44 -58 51 c-33 27 -122 101 -199 163 -77 62 -140
117 -140 123 0 5 50 74 110 152 84 109 114 141 125 135 8 -5 85 -64 170 -133z
m-278 -284 c203 -163 257 -208 257 -213 1 -3 -54 -69 -120 -148 l-122 -143
-28 23 c-15 13 -97 79 -181 147 -84 68 -159 130 -167 137 -12 11 -5 26 49 96
123 161 162 208 170 208 5 0 69 -48 142 -107z m738 -107 c30 -27 85 -79 123
-114 l67 -64 -36 -42 c-21 -22 -79 -85 -131 -138 l-94 -98 -82 78 c-45 42
-133 121 -194 176 l-112 98 91 107 c50 58 107 123 126 143 l35 37 76 -66 c42
-37 101 -90 131 -117z m-1056 -143 c121 -94 316 -258 316 -266 0 -4 -53 -69
-117 -145 -64 -75 -118 -139 -119 -141 -2 -2 -43 30 -91 71 -48 41 -132 109
-185 152 -54 43 -98 80 -98 82 0 8 222 294 228 294 3 0 33 -21 66 -47z m726
-93 c58 -51 138 -124 178 -161 l74 -69 -128 -135 c-71 -74 -131 -135 -134
-135 -3 0 -68 57 -145 128 -77 70 -160 144 -184 164 -39 34 -43 39 -30 55 8
10 63 75 123 146 96 113 111 126 125 114 9 -8 63 -56 121 -107z m910 -334 c0
-10 -246 -248 -263 -255 -5 -2 -92 79 -193 180 l-183 183 131 138 132 139 188
-188 c103 -103 188 -192 188 -197z m-1871 112 c36 -29 119 -96 184 -150 l117
-96 -120 -141 c-66 -78 -124 -141 -128 -141 -4 0 -68 50 -142 111 -74 61 -152
123 -172 137 -21 15 -36 33 -33 40 5 15 217 292 223 292 2 0 34 -24 71 -52z
m765 -131 l176 -159 -127 -134 c-69 -74 -131 -134 -136 -134 -5 0 -39 28 -75
63 -37 35 -112 104 -167 153 -56 49 -102 93 -104 97 -6 15 233 286 245 279 7
-4 91 -78 188 -165z m644 -70 l184 -184 -138 -131 -138 -131 -99 105 c-54 57
-134 137 -178 178 l-80 74 128 135 c70 74 130 136 133 136 3 1 88 -82 188
-182z m660 -122 c69 -77 139 -154 154 -171 l29 -31 -141 -122 c-78 -66 -145
-121 -149 -121 -5 0 -52 50 -106 111 -54 62 -132 148 -173 192 l-74 79 28 28
c16 15 78 73 138 130 l108 102 30 -29 c17 -15 87 -91 156 -168z m-2226 -57
c83 -68 163 -133 177 -144 30 -25 43 -4 -113 -187 l-109 -128 -31 29 c-17 16
-92 78 -166 138 -74 59 -135 112 -135 116 0 8 217 297 223 298 2 0 71 -55 154
-122z m1827 -90 c37 -40 105 -116 151 -168 46 -52 94 -106 107 -120 l22 -26
-140 -119 c-78 -66 -144 -120 -148 -120 -6 0 -172 181 -296 323 l-40 45 135
129 c74 70 137 128 138 128 2 0 34 -33 71 -72z m734 -242 c229 -283 522 -677
515 -696 -2 -5 -71 -56 -155 -114 l-151 -104 -53 77 c-29 42 -97 136 -151 209
-54 73 -98 136 -98 140 1 4 66 56 146 116 79 60 142 111 140 114 -3 2 -71 -46
-151 -108 -81 -62 -150 -108 -155 -104 -4 5 -45 56 -91 114 -45 58 -116 145
-157 193 -63 75 -73 91 -61 102 8 8 72 63 144 124 97 83 133 107 142 99 7 -6
68 -79 136 -162z m-2188 14 c61 -54 125 -114 144 -134 l34 -35 -81 -88 c-44
-48 -102 -109 -129 -135 l-48 -47 -158 142 c-86 78 -157 147 -158 152 0 6 52
72 116 147 l117 138 27 -21 c14 -11 76 -65 136 -119z m-603 -2 c82 -68 157
-128 165 -135 12 -10 -4 -34 -106 -152 -66 -78 -123 -142 -127 -142 -3 0 -67
49 -142 110 -75 60 -148 119 -161 129 l-24 19 112 146 c62 81 117 147 122 147
6 0 78 -55 161 -122z m1865 -144 c87 -97 158 -183 158 -190 0 -15 -264 -246
-276 -242 -4 2 -63 66 -131 143 -69 77 -137 151 -152 164 -14 14 -26 30 -26
37 0 9 257 264 266 264 2 0 74 -79 161 -176z m538 -16 c138 -170 265 -331 265
-338 0 -7 -281 -225 -291 -225 -3 0 -55 61 -114 135 -59 74 -130 161 -157 192
l-49 57 141 120 c77 67 144 121 148 120 4 0 30 -28 57 -61z m-2052 -139 c86
-78 157 -144 157 -148 0 -4 -58 -67 -128 -141 l-129 -135 -109 100 c-60 55
-130 118 -155 140 l-46 40 121 142 c66 78 123 142 126 142 3 1 76 -63 163
-140z m611 -38 l158 -158 -104 -100 c-56 -55 -118 -113 -137 -129 l-33 -30
-154 155 -154 155 52 55 c124 131 203 211 208 211 3 0 76 -71 164 -159z
m-1200 23 c86 -69 156 -128 156 -132 0 -9 -229 -276 -240 -280 -5 -2 -60 39
-123 90 -62 51 -131 107 -152 123 l-38 31 113 147 c62 81 116 147 121 147 4 0
77 -57 163 -126z m335 -287 c78 -70 141 -131 141 -135 0 -4 -58 -67 -128 -141
l-128 -135 -109 101 c-61 55 -127 115 -149 135 l-38 34 121 142 c86 100 126
140 136 135 7 -5 77 -66 154 -136z m-614 7 c66 -54 135 -110 152 -125 l33 -28
-121 -141 c-66 -77 -124 -140 -127 -140 -6 0 -118 89 -256 203 l-38 32 113
147 c63 81 116 148 119 148 3 0 60 -43 125 -96z m3418 -213 c48 -68 84 -127
80 -131 -22 -19 -305 -211 -307 -208 -31 47 -168 237 -222 309 l-73 97 151
115 152 115 65 -86 c36 -48 105 -143 154 -211z m700 -339 l17 -30 -149 -91
c-81 -50 -155 -93 -164 -97 -12 -4 -26 11 -54 56 -21 34 -84 132 -141 217 -56
86 -101 157 -100 159 2 1 73 49 158 107 l155 105 130 -198 c72 -109 138 -211
148 -228z m-3130 184 c35 -39 64 -75 63 -81 -1 -5 -59 -65 -130 -133 l-129
-124 -138 138 c-77 76 -139 141 -139 144 0 3 57 65 126 138 l126 132 78 -71
c44 -40 108 -104 143 -143z m-713 137 c177 -156 212 -192 203 -206 -4 -8 -62
-71 -129 -140 l-121 -127 -24 26 c-13 14 -75 71 -137 126 -62 56 -111 105
-110 110 5 13 231 278 238 278 3 0 39 -30 80 -67z m2712 -60 c128 -173 188
-259 188 -269 0 -7 -275 -200 -301 -212 -3 -1 -54 64 -113 145 -58 81 -122
168 -141 193 l-34 46 147 112 c80 62 149 112 153 112 4 0 49 -57 101 -127z
m-3190 -52 c79 -64 125 -107 121 -114 -11 -19 -234 -277 -239 -277 -3 0 -64
48 -137 107 -73 59 -134 108 -136 110 -4 3 120 168 192 256 35 42 42 46 56 34
9 -7 73 -60 143 -116z m3748 -53 c79 -109 252 -390 244 -397 -31 -27 -318
-193 -321 -185 -3 7 -220 344 -258 400 -7 11 -6 18 5 24 8 5 76 52 150 104 74
52 138 95 142 95 5 1 22 -18 38 -41z m-884 -115 c108 -145 197 -273 193 -277
-54 -40 -301 -206 -307 -206 -4 0 -28 28 -52 63 -24 34 -81 113 -127 175 -46
62 -84 117 -86 122 -2 10 271 228 289 229 6 1 46 -47 90 -106z m-1886 -204 c0
-4 -61 -64 -136 -135 l-135 -128 -130 130 c-71 71 -129 132 -129 137 0 5 57
69 127 143 l128 134 137 -137 c76 -76 138 -141 138 -144z m-1646 140 l85 -60
-52 -70 c-28 -38 -54 -69 -57 -69 -3 0 -44 28 -92 63 l-86 63 50 67 c28 37 54
67 59 67 5 0 47 -27 93 -61z m4208 -222 c65 -100 118 -186 118 -192 0 -5 -72
-54 -160 -107 -157 -96 -160 -97 -171 -75 -7 12 -65 104 -130 204 l-117 182
117 79 c64 44 134 92 156 106 l40 27 15 -21 c8 -12 68 -104 132 -203z m923 4
c50 -86 105 -182 123 -213 l32 -57 -158 -85 c-86 -47 -162 -86 -169 -88 -6 -2
-61 83 -121 187 -60 105 -118 206 -130 225 l-21 35 162 98 c161 97 162 97 177
76 8 -12 56 -92 105 -178z m-1875 -8 c63 -87 121 -169 131 -183 l17 -24 -156
-107 -155 -107 -103 144 c-61 86 -101 151 -98 161 2 10 5 37 7 61 3 27 11 48
23 57 11 7 60 45 109 84 50 38 95 70 101 71 6 0 62 -71 124 -157z m-3069 86
c43 -34 79 -66 79 -71 0 -5 -23 -38 -52 -73 l-51 -64 -81 63 c-45 35 -81 68
-81 74 0 11 92 132 101 132 3 0 41 -28 85 -61z m-303 -20 l82 -60 -47 -62
c-25 -34 -50 -66 -54 -71 -5 -6 -128 74 -172 114 -8 7 88 140 101 140 4 0 44
-28 90 -61z m1346 -385 l-137 -130 -126 125 -126 126 130 138 129 138 134
-133 133 -133 -137 -131z m-787 167 c-6 -10 -32 -41 -57 -69 l-45 -51 -83 70
-82 70 56 69 57 69 83 -71 c73 -61 82 -72 71 -87z m-302 19 c4 -6 -71 -109
-100 -138 -3 -3 -121 85 -159 119 -5 4 16 39 45 77 l54 69 78 -60 c43 -33 80
-63 82 -67z m3640 73 c124 -186 215 -336 208 -343 -14 -12 -290 -179 -304
-185 -9 -3 -54 58 -134 183 -66 103 -120 190 -120 194 0 10 287 208 301 208 6
0 28 -26 49 -57z m991 -101 c51 -86 108 -187 128 -224 l37 -66 -167 -90 -168
-91 -59 107 c-32 59 -88 156 -124 215 -42 71 -62 112 -56 118 16 16 297 188
308 188 6 1 51 -70 101 -157z m-5008 72 c42 -31 79 -58 80 -60 7 -5 -100 -139
-109 -136 -14 3 -159 112 -159 118 0 8 100 134 106 134 3 0 40 -25 82 -56z
m3110 1 c7 -14 12 -29 12 -33 -1 -10 -40 38 -40 49 0 18 17 8 28 -16z m-2625
-131 c87 -73 86 -61 8 -151 l-44 -51 -79 66 c-43 36 -78 67 -78 69 0 7 104
133 109 133 3 0 41 -30 84 -66z m310 -7 l77 -72 -58 -65 -59 -64 -34 28 c-19
16 -56 48 -82 72 l-49 44 58 65 c32 36 60 65 63 65 3 -1 41 -33 84 -73z m-615
0 l81 -63 -52 -67 c-29 -36 -55 -66 -58 -67 -3 0 -32 21 -65 46 -32 25 -67 52
-77 59 -18 12 -15 18 34 84 30 39 54 71 55 71 1 0 38 -28 82 -63z m-289 -27
c46 -34 68 -57 63 -65 -4 -6 -27 -39 -52 -72 l-44 -60 -78 56 c-42 31 -77 60
-78 64 0 16 95 136 106 132 6 -2 43 -27 83 -55z m1851 -89 c94 -106 118 -137
108 -146 -7 -6 -62 -54 -123 -105 -60 -51 -119 -102 -131 -112 -21 -18 -22
-17 -137 111 -65 72 -117 134 -116 138 2 13 261 254 270 251 5 -2 63 -63 129
-137z m2969 -90 c61 -107 111 -197 111 -202 0 -8 -310 -179 -326 -179 -5 0
-22 25 -38 56 -16 31 -69 124 -118 206 -48 83 -87 152 -86 153 2 1 75 45 162
98 145 88 161 95 171 79 7 -9 63 -104 124 -211z m-937 23 c65 -98 117 -184
118 -189 0 -8 -92 -68 -306 -198 -8 -4 -20 6 -35 30 -13 21 -65 103 -116 182
-52 79 -92 148 -91 153 5 14 292 207 303 204 6 -1 63 -83 127 -182z m1904
-158 c53 -103 94 -189 92 -191 -2 -2 -79 -39 -171 -83 l-168 -80 -115 227
c-64 124 -116 230 -117 234 -1 5 72 49 162 97 l165 89 29 -52 c16 -28 71 -137
123 -241z m-5298 177 l53 -48 -52 -60 c-28 -33 -55 -61 -60 -63 -4 -2 -42 25
-83 59 l-74 62 55 68 55 69 27 -19 c14 -11 50 -41 79 -68z m282 18 l75 -69
-59 -66 -59 -67 -36 33 c-20 18 -55 50 -78 72 l-42 39 56 64 c30 34 58 63 62
63 3 -1 40 -31 81 -69z m370 -76 c12 -14 4 -25 -51 -81 l-63 -64 -73 72 c-40
40 -73 77 -73 82 0 6 26 36 57 68 l56 57 67 -59 c37 -33 73 -67 80 -75z m-974
68 c47 -36 72 -63 69 -71 -3 -8 -27 -40 -53 -72 l-47 -57 -77 59 -77 60 52 69
c28 38 53 69 55 69 2 0 37 -26 78 -57z m-290 -28 c48 -36 72 -60 68 -68 -4 -7
-27 -38 -52 -70 l-44 -58 -26 17 c-15 10 -51 35 -79 56 l-53 39 52 69 c29 39
54 70 56 70 2 0 37 -25 78 -55z m4538 -111 c32 -54 85 -146 117 -203 l58 -105
-162 -88 c-89 -48 -165 -88 -169 -88 -4 0 -15 15 -24 33 -9 17 -59 105 -111
195 -62 107 -92 167 -86 173 21 21 298 187 308 185 6 -1 37 -47 69 -102z
m-884 -70 c52 -81 105 -164 117 -184 l23 -37 -151 -93 c-83 -51 -157 -93 -164
-94 -11 -1 -222 309 -228 336 -2 6 291 216 303 217 3 1 48 -65 100 -145z
m-2892 68 l72 -67 -59 -65 -58 -64 -77 68 -76 68 56 64 c31 35 59 64 63 64 3
0 39 -30 79 -68z m-300 1 c37 -31 67 -60 67 -64 0 -10 -98 -129 -107 -129 -4
0 -39 27 -77 61 -70 60 -71 61 -54 83 68 85 87 106 95 106 5 0 40 -25 76 -57z
m603 -12 l74 -69 -60 -61 c-33 -34 -62 -61 -65 -61 -3 1 -39 32 -80 70 l-75
69 60 60 c33 34 62 61 65 61 4 0 40 -31 81 -69z m4468 -163 c61 -120 111 -222
111 -227 0 -5 -6 -11 -12 -14 -7 -3 -83 -39 -169 -80 l-156 -74 -113 223 c-63
123 -112 225 -109 228 19 18 325 174 330 168 4 -4 57 -105 118 -224z m-5360
156 c63 -49 70 -58 59 -72 -7 -10 -30 -39 -52 -67 -22 -27 -41 -51 -42 -53 -1
-2 -36 23 -77 56 l-75 59 51 67 c28 36 54 66 58 66 4 0 39 -25 78 -56z m1167
14 c21 -24 54 -59 72 -79 l33 -36 -66 -58 -66 -58 -60 59 c-91 89 -91 87 -23
155 32 33 61 59 64 59 3 0 24 -19 46 -42z m-1456 -41 c30 -22 59 -43 64 -48 5
-4 -14 -39 -43 -78 l-53 -71 -56 41 c-32 22 -65 47 -76 54 -18 13 -16 17 34
84 31 43 56 68 63 64 7 -4 37 -25 67 -46z m746 -100 l68 -64 -58 -66 -59 -66
-73 66 -73 66 56 64 c30 35 59 63 63 63 4 0 38 -29 76 -63z m319 -26 l50 -51
-62 -62 -62 -62 -68 64 c-37 35 -70 68 -72 73 -2 5 23 35 55 68 l57 58 26 -19
c14 -10 48 -41 76 -69z m-637 42 c25 -21 56 -47 70 -59 l26 -21 -22 -27 c-12
-15 -37 -46 -57 -68 l-36 -39 -70 56 c-38 32 -69 60 -69 64 0 8 101 131 108
131 3 0 25 -17 50 -37z m2491 -94 c51 -72 90 -134 85 -138 -5 -5 -73 -52 -152
-106 -78 -54 -141 -100 -139 -102 3 -2 71 41 152 97 82 55 152 100 156 100 6
0 116 -164 192 -287 l26 -42 -147 -90 c-180 -110 -177 -109 -193 -79 -38 71
-278 420 -392 569 l-28 37 94 71 c82 63 102 73 163 85 38 7 74 14 79 15 6 0
52 -58 104 -130z m-1575 49 c37 -40 65 -77 63 -82 -2 -5 -30 -34 -64 -63 l-61
-54 -68 76 -67 76 59 60 c32 32 62 59 65 59 4 0 37 -32 73 -72z m2989 -55 c96
-164 150 -263 146 -267 -28 -22 -334 -177 -336 -170 -4 11 -159 284 -192 338
l-22 35 53 33 c29 18 98 61 153 95 55 34 105 63 112 63 6 0 45 -57 86 -127z
m-2679 -121 l-65 -63 -51 56 c-28 31 -60 68 -71 82 l-21 26 64 60 63 59 73
-78 73 -79 -65 -63z m3644 -3 c62 -122 112 -222 110 -224 -13 -11 -330 -156
-337 -153 -9 3 -224 418 -219 423 6 6 323 175 328 175 3 0 56 -100 118 -221z
m-1825 19 c53 -83 97 -153 97 -157 0 -7 -293 -189 -311 -194 -10 -2 -211 298
-213 320 0 7 67 59 149 117 146 102 150 104 165 84 8 -11 59 -88 113 -170z
m-2561 -90 l-62 -63 -70 70 -70 69 62 63 63 63 70 -70 70 -70 -63 -62z m-299
135 c34 -31 63 -59 64 -63 1 -3 -24 -34 -56 -69 l-59 -65 -70 65 -69 64 55 62
c30 35 58 63 63 63 5 0 37 -26 72 -57z m-264 -31 l45 -39 -22 -27 c-12 -15
-37 -46 -57 -67 l-36 -40 -69 57 -69 57 56 68 55 69 27 -20 c14 -10 46 -36 70
-58z m856 6 l68 -72 -64 -58 c-35 -32 -67 -57 -70 -55 -3 1 -34 33 -69 70
l-63 68 59 60 c32 32 61 59 65 59 4 0 37 -32 74 -72z m4955 -5 c64 -135 180
-403 180 -416 0 -7 -64 -39 -142 -71 -79 -33 -157 -65 -174 -72 l-31 -13 -33
82 c-18 45 -66 153 -106 240 l-73 159 97 45 c53 25 129 61 167 79 39 18 73 33
77 34 3 0 20 -30 38 -67z m-4655 -29 l68 -76 -53 -46 c-83 -74 -76 -74 -147 3
-61 66 -62 69 -48 95 14 27 91 100 105 100 4 0 37 -34 75 -76z m1084 -88 l101
-139 -158 -108 c-156 -108 -157 -109 -172 -87 -8 13 -54 76 -102 143 -69 94
-85 122 -75 132 6 7 73 59 147 116 102 79 138 102 147 93 6 -6 57 -74 112
-150z m1449 -69 c50 -89 92 -166 92 -172 0 -5 -26 -24 -58 -40 -31 -17 -105
-56 -163 -88 l-106 -57 -81 142 c-45 79 -92 160 -104 182 l-23 38 24 17 c13 9
85 53 160 99 135 83 136 83 151 61 8 -11 57 -94 108 -182z m-2257 142 l43 -51
-51 26 c-57 28 -68 40 -59 61 9 25 22 17 67 -36z m3166 -167 c56 -111 103
-206 103 -210 0 -4 -76 -44 -169 -88 l-168 -81 -106 207 -105 207 162 86 c88
48 165 86 170 84 5 -2 56 -94 113 -205z m-3169 114 c29 -15 56 -34 59 -43 4
-11 -11 -33 -50 -69 l-56 -53 -66 77 -65 77 41 38 c42 37 42 37 63 18 12 -10
45 -31 74 -45z m-1287 -143 c-31 -35 -58 -63 -61 -63 -3 0 -35 26 -72 58 l-65
59 59 66 60 67 68 -62 68 -62 -57 -63z m279 122 l65 -65 -63 -62 -62 -63 -67
67 -68 68 60 60 c33 33 62 60 65 60 3 0 35 -29 70 -65z m294 -14 l68 -68 -67
-60 -66 -60 -67 69 -66 69 59 59 c33 33 62 60 65 60 3 0 36 -31 74 -69z m302
-36 c31 -36 54 -68 50 -72 -3 -3 -14 1 -23 9 -10 9 -34 23 -53 33 -57 28 -81
55 -69 76 16 31 35 22 95 -46z m4454 -38 c63 -135 162 -368 158 -372 -5 -4
-321 -133 -335 -137 -8 -2 -36 50 -71 132 -33 75 -78 175 -100 224 -23 49 -42
91 -42 93 0 5 321 162 333 163 5 0 30 -47 57 -103z m-4577 74 c-5 -20 19 -43
100 -92 26 -15 47 -32 46 -36 0 -10 -88 -83 -98 -83 -5 0 -36 32 -71 71 l-63
70 44 45 c24 24 44 44 45 44 1 0 0 -8 -3 -19z m415 -75 l62 -74 -52 -44 c-29
-24 -60 -49 -69 -56 -14 -10 -26 0 -82 67 l-66 79 65 56 c36 31 69 54 73 52 4
-3 35 -39 69 -80z m290 29 c-9 -19 -14 -22 -25 -14 -19 17 -16 27 10 32 12 2
23 5 24 6 2 0 -3 -10 -9 -24z m-1316 -207 l-62 -63 -65 65 -65 64 62 63 63 63
65 -65 65 -65 -63 -62z m3040 45 c47 -82 93 -162 102 -180 l16 -31 -160 -87
c-88 -48 -165 -85 -170 -83 -17 6 -199 333 -190 342 15 15 294 185 306 185 6
1 49 -65 96 -146z m921 -45 c54 -106 98 -198 97 -204 0 -11 -317 -167 -330
-162 -15 6 -201 381 -193 389 13 13 307 169 318 169 6 0 54 -87 108 -192z
m-3673 116 l65 -66 -64 -59 -65 -60 -65 65 -66 66 60 60 c33 33 62 60 65 60 3
0 35 -30 70 -66z m289 -21 c34 -37 61 -70 61 -74 0 -7 -120 -109 -128 -109 -4
0 -35 31 -69 69 l-63 69 61 56 c33 31 64 56 69 56 5 0 36 -30 69 -67z m341
-93 l18 -26 -64 -53 c-35 -29 -68 -51 -73 -49 -4 2 -33 33 -64 69 l-55 65 49
43 c27 23 49 48 49 56 0 31 28 20 73 -28 27 -29 57 -63 67 -77z m3905 28 c21
-46 67 -148 101 -227 l63 -145 -172 -72 c-95 -39 -175 -69 -179 -65 -4 3 -29
58 -56 121 -27 63 -70 159 -95 213 l-46 99 137 65 c159 76 195 92 203 93 3 0
23 -37 44 -82z m-4676 -52 l62 -63 -62 -57 c-34 -31 -65 -56 -69 -56 -3 0 -32
27 -65 60 l-59 60 59 60 c33 33 62 60 65 60 3 0 34 -29 69 -64z m273 -2 c79
-83 79 -79 12 -140 -33 -29 -64 -52 -69 -51 -6 1 -37 31 -70 66 l-59 65 64 58
c34 32 64 58 66 58 1 0 27 -25 56 -56z m3250 -272 c22 -46 38 -85 36 -86 -11
-9 -327 -156 -334 -155 -9 0 -188 350 -187 365 0 5 74 48 164 96 l163 87 59
-112 c33 -62 78 -149 99 -195z m-2961 197 c39 -22 69 -44 67 -48 -4 -11 -129
-114 -132 -109 -1 1 -25 30 -52 63 -73 87 -73 81 -13 135 52 46 54 47 57 24 2
-18 22 -35 73 -65z m-7 55 c16 -19 27 -37 25 -39 -10 -9 -69 39 -69 56 0 27
11 23 44 -17z m2015 -138 c50 -88 91 -163 91 -167 0 -8 -312 -179 -326 -179
-5 0 -37 51 -71 113 -35 62 -76 135 -92 162 l-29 50 161 97 c89 54 164 94 168
90 4 -4 48 -79 98 -166z m-1706 69 c31 -41 57 -79 57 -84 0 -5 -30 -31 -67
-59 l-67 -50 -58 76 c-32 41 -57 79 -56 84 3 9 120 107 128 107 3 0 31 -33 63
-74z m3441 8 c33 -67 166 -371 166 -382 0 -6 -189 -89 -336 -148 -6 -2 -25 31
-43 74 -18 43 -60 138 -94 212 -33 74 -57 136 -51 138 5 2 79 37 164 78 85 41
158 74 162 75 4 0 18 -21 32 -47z m1321 -75 c26 -68 69 -181 96 -251 47 -127
47 -128 26 -136 -68 -25 -314 -111 -325 -113 -9 -2 -38 59 -87 187 -40 105
-82 214 -94 243 l-21 52 23 10 c90 40 314 129 323 130 6 0 33 -55 59 -122z
m-5435 -54 c0 -6 -27 -35 -61 -64 l-60 -53 -41 39 c-22 22 -49 52 -61 68 l-21
30 64 58 64 58 58 -63 c31 -34 57 -67 58 -73z m233 37 c31 -38 57 -71 57 -73
0 -3 -30 -28 -67 -58 l-66 -53 -34 39 c-68 78 -86 105 -77 113 31 30 119 101
124 101 3 0 32 -31 63 -69z m301 -60 c54 -70 56 -58 -26 -117 l-36 -26 -54 35
c-91 58 -92 59 -17 130 44 43 67 59 74 52 6 -6 32 -39 59 -74z m738 -11 c32
-45 55 -87 52 -91 -8 -14 -47 -10 -68 6 -42 32 -96 3 -96 -50 0 -13 -17 6 -49
54 l-50 74 67 48 c37 26 72 46 77 45 6 -1 36 -40 67 -86z m1652 -93 c47 -93
86 -174 86 -181 0 -10 -312 -167 -331 -166 -8 0 -184 348 -179 354 19 18 326
174 331 168 4 -4 46 -83 93 -175z m2182 -68 c46 -118 85 -225 89 -239 6 -25 3
-27 -171 -88 -97 -34 -178 -61 -179 -60 -1 2 -12 32 -24 68 -13 36 -52 139
-87 229 -36 91 -61 168 -57 172 4 4 73 34 153 67 177 72 173 71 184 68 6 -1
47 -99 92 -217z m-3142 178 c102 -176 156 -274 156 -284 0 -6 -73 -51 -162
-99 -129 -70 -164 -85 -170 -73 -118 200 -168 292 -164 297 9 8 310 192 316
192 3 0 13 -15 24 -33z m1829 -99 c73 -160 128 -290 125 -293 -14 -13 -344
-143 -349 -137 -4 4 -35 72 -69 152 -34 80 -73 167 -87 193 l-24 48 163 79
c90 43 168 79 174 79 6 1 36 -54 67 -121z m-3443 98 c0 -2 -8 -10 -17 -17 -16
-13 -17 -12 -4 4 13 16 21 21 21 13z m-279 -58 c25 -29 50 -60 56 -69 11 -13
2 -24 -56 -72 l-68 -56 -58 70 c-31 39 -54 74 -49 79 58 52 116 100 123 100 5
0 28 -24 52 -52z m249 -3 c0 -7 13 -24 29 -37 30 -25 77 -86 70 -91 -66 -52
-129 -97 -136 -97 -9 1 -108 129 -108 141 0 13 127 109 136 103 5 -3 9 -11 9
-19z m780 -54 c56 -86 59 -109 14 -130 -23 -10 -32 -7 -87 29 -34 23 -68 39
-77 37 -8 -2 -23 6 -33 19 -17 23 -16 23 55 73 40 28 73 51 74 51 1 0 25 -36
54 -79z m-467 -21 c20 -27 37 -53 37 -57 0 -26 -50 -114 -74 -131 l-29 -21
-44 58 c-39 53 -42 62 -36 95 6 28 20 46 53 71 25 19 47 34 50 34 3 1 22 -21
43 -49z m618 14 l31 -15 -46 -30 c-69 -43 -79 -39 -52 26 17 39 24 42 67 19z
m3476 -166 c98 -256 106 -278 102 -282 -7 -7 -351 -127 -354 -124 -1 2 -23 59
-48 128 -26 69 -64 169 -86 222 l-39 97 61 25 c34 14 109 46 167 70 58 25 110
45 116 45 6 1 43 -81 81 -181z m-2153 -3 c49 -96 87 -177 85 -178 -13 -9 -330
-157 -337 -157 -8 1 -175 331 -169 336 6 6 322 174 327 174 3 0 46 -79 94
-175z m-1176 82 c28 -46 52 -88 52 -94 0 -15 -140 -97 -149 -87 -4 5 -30 46
-58 91 l-51 81 66 45 c37 25 72 46 77 46 6 1 34 -36 63 -82z m-943 45 c-7 -8
-35 7 -35 18 0 6 7 6 20 -2 10 -7 17 -14 15 -16z m2986 -113 c31 -68 70 -156
87 -195 l30 -71 -162 -66 c-88 -37 -168 -69 -178 -72 -11 -5 -18 1 -23 17 -4
13 -41 99 -82 191 -42 92 -74 170 -71 172 12 12 325 154 333 152 5 -2 35 -60
66 -128z m-3228 44 l57 -71 -69 -51 c-38 -28 -70 -51 -73 -51 -7 0 -108 128
-108 137 1 7 132 115 135 110 1 -1 27 -34 58 -74z m257 47 c0 -5 -5 -10 -11
-10 -5 0 -7 5 -4 10 3 6 8 10 11 10 2 0 4 -4 4 -10z m548 -49 l52 -39 -26 -17
c-14 -9 -27 -15 -28 -13 -18 23 -66 98 -66 102 0 13 19 4 68 -33z m-578 21 c0
-4 -20 -24 -44 -45 -74 -62 -69 -95 22 -141 l42 -22 -29 -17 -29 -17 -51 70
c-28 39 -51 74 -51 78 1 8 121 100 133 101 4 1 7 -3 7 -7z m793 -107 l56 -89
-72 -43 c-40 -24 -75 -43 -78 -43 -8 0 -113 170 -108 174 31 23 58 36 76 36
13 0 30 12 43 31 12 16 24 29 25 27 2 -2 28 -43 58 -93z m-726 25 l42 -58 -35
-27 -35 -27 -45 23 c-25 13 -53 32 -62 43 -16 17 -15 20 31 62 27 24 52 44 55
44 4 0 26 -27 49 -60z m3804 -7 c23 -53 149 -388 149 -396 0 -6 -350 -130
-355 -125 -2 1 -31 77 -65 167 -34 90 -70 184 -81 209 -11 25 -17 47 -14 51 7
6 326 139 338 140 4 1 17 -20 28 -46z m-2090 -163 c43 -85 79 -160 79 -165 0
-9 -315 -165 -333 -165 -3 0 -42 71 -86 159 l-79 158 156 86 c86 47 163 85
171 84 7 -1 49 -72 92 -157z m862 28 c80 -180 109 -250 103 -255 -14 -14 -340
-142 -346 -136 -3 4 -19 40 -35 78 -16 39 -51 117 -78 175 -26 57 -45 106 -40
108 4 1 78 36 163 77 85 41 160 74 166 75 7 0 36 -55 67 -122z m-2752 50 c24
-34 47 -67 51 -73 8 -13 -127 -109 -141 -100 -5 3 -30 35 -56 71 -45 62 -46
66 -29 79 11 7 39 29 64 48 25 20 50 36 56 36 6 1 31 -27 55 -61z m1206 -54
l42 -73 -75 -41 c-40 -23 -78 -39 -83 -36 -9 6 -101 164 -101 175 0 3 33 25
73 49 l72 43 15 -22 c8 -12 34 -55 57 -95z m4131 -136 c45 -138 80 -253 77
-256 -5 -5 -359 -112 -361 -109 0 1 -37 113 -81 249 l-80 247 41 16 c123 46
293 104 307 104 11 1 36 -62 97 -251z m-4594 142 l46 -74 -43 -26 c-104 -65
-108 -66 -117 -50 -5 8 -29 47 -53 85 l-44 70 71 46 c53 35 74 44 82 35 7 -6
33 -45 58 -86z m2906 -102 c77 -196 111 -290 107 -294 -5 -6 -337 -124 -347
-124 -5 0 -16 21 -26 48 -9 26 -44 116 -77 200 -32 84 -56 156 -52 160 7 7
325 141 337 142 4 0 30 -60 58 -132z m-2618 4 c22 -41 36 -77 32 -81 -5 -5
-39 -25 -76 -45 l-66 -37 -52 87 c-31 54 -47 91 -41 97 5 5 37 26 72 47 74 45
65 50 131 -68z m3924 -147 c40 -121 74 -231 75 -245 4 -23 -3 -26 -171 -77
-96 -29 -178 -52 -182 -53 -3 0 -10 14 -13 32 -4 18 -38 126 -75 240 l-67 207
71 25 c39 15 114 42 166 61 52 19 102 33 110 32 9 -1 39 -77 86 -222z m-4866
161 c0 -7 -11 -23 -25 -36 -34 -32 -32 -63 7 -93 35 -28 32 -39 -20 -69 l-29
-18 -47 70 c-25 38 -46 73 -46 77 1 5 31 29 68 55 49 33 70 43 80 36 6 -6 12
-16 12 -22z m2313 -101 c33 -72 67 -151 77 -176 l19 -47 -171 -71 c-94 -39
-175 -68 -179 -64 -12 13 -151 334 -147 338 14 14 316 154 328 152 8 -1 40
-58 73 -132z m-1541 -13 c22 -40 38 -74 37 -76 -16 -12 -139 -76 -146 -76 -9
0 -98 148 -98 163 0 5 32 28 70 52 81 50 72 54 137 -63z m447 6 c58 -106 60
-97 -43 -150 -32 -16 -62 -26 -66 -21 -4 4 -28 47 -53 95 l-46 87 72 40 c40
22 75 40 79 41 4 0 30 -42 57 -92z m-1185 11 c-13 -25 -18 -28 -35 -19 -31 17
-34 39 -8 66 l24 25 17 -21 c16 -20 16 -24 2 -51z m265 4 c19 -32 41 -68 48
-79 13 -21 10 -24 -61 -67 l-75 -46 -45 73 c-25 41 -46 78 -46 82 0 10 120 92
135 93 6 1 26 -25 44 -56z m2854 40 c3 -10 37 -101 76 -202 52 -135 67 -187
59 -192 -27 -17 -339 -121 -345 -116 -3 4 -29 68 -58 144 -29 76 -62 161 -73
190 l-21 51 172 71 c95 39 175 71 178 71 4 0 9 -8 12 -17z m1295 -95 c38 -108
125 -389 120 -392 -11 -10 -351 -106 -356 -101 -8 8 -152 449 -148 452 4 4
338 122 348 122 3 1 19 -36 36 -81z m-3358 -143 c0 -10 -150 -90 -154 -83 -23
32 -96 183 -90 185 5 2 40 21 79 43 l69 39 48 -87 c26 -48 47 -92 48 -97z
m-508 113 c65 -113 67 -99 -18 -147 -41 -24 -77 -41 -79 -40 -16 19 -94 163
-90 168 12 11 130 79 140 80 6 1 27 -27 47 -61z m1372 -83 c79 -176 90 -205
80 -215 -12 -11 -334 -143 -338 -139 -6 7 -145 323 -143 325 8 8 324 154 333
154 6 0 37 -56 68 -125z m897 -106 c37 -96 69 -183 71 -193 2 -15 -10 -23 -62
-41 -36 -13 -115 -41 -176 -62 l-112 -40 -71 185 c-39 102 -69 187 -68 189 9
9 333 141 341 139 6 -1 40 -81 77 -177z m1269 -45 c63 -193 77 -244 67 -244
-1 0 -79 -23 -172 -50 -94 -28 -176 -48 -182 -45 -7 2 -13 11 -13 19 0 7 -29
103 -64 212 -36 109 -64 199 -62 201 3 3 340 122 348 122 4 1 39 -96 78 -215z
m-3247 116 l48 -89 -80 -40 -80 -41 -45 87 c-26 47 -44 89 -41 92 8 7 139 81
145 81 3 0 27 -41 53 -90z m-450 0 l46 -80 -22 -14 c-12 -7 -47 -27 -77 -44
l-55 -31 -47 82 -47 82 47 28 c26 16 56 35 67 42 11 8 25 14 30 14 6 1 32 -35
58 -79z m906 -29 l50 -99 -81 -36 c-44 -20 -82 -35 -83 -34 -2 2 -23 45 -49
95 l-46 93 77 39 c43 22 79 40 80 41 2 0 25 -44 52 -99z m-1447 21 c8 -8 6
-18 -5 -36 -12 -18 -13 -26 -4 -29 10 -3 -161 -97 -178 -97 -3 0 -5 18 -5 40
0 86 60 145 138 137 24 -3 49 -10 54 -15z m818 -86 c24 -47 42 -87 40 -89 -10
-9 -152 -78 -154 -75 -14 17 -89 169 -85 172 11 10 135 76 144 76 6 0 30 -38
55 -84z m-448 -5 l46 -78 -71 -39 c-40 -21 -75 -40 -79 -42 -3 -2 -27 32 -52
75 l-45 77 72 43 c40 24 74 43 77 43 3 0 26 -35 52 -79z m901 -16 l47 -95 -76
-35 c-42 -19 -80 -35 -83 -35 -9 0 -96 178 -90 184 6 5 143 75 149 76 3 0 27
-43 53 -95z m2587 -107 c34 -106 65 -205 70 -219 l8 -27 -171 -51 c-95 -28
-177 -51 -184 -51 -6 0 -23 38 -37 84 -15 47 -44 139 -67 206 -22 67 -39 123
-37 125 4 3 341 124 349 124 4 1 35 -86 69 -191z m-1300 125 c12 -32 44 -116
70 -186 l48 -128 -26 -10 c-24 -9 -75 -27 -280 -100 -50 -17 -53 -17 -59 -1
-3 9 -33 88 -66 175 -33 87 -57 160 -54 163 6 6 327 142 338 143 3 1 16 -25
29 -56z m2959 -170 c33 -126 64 -242 67 -259 l6 -32 -183 -44 -184 -45 -12 41
c-34 120 -116 434 -117 449 -1 16 25 27 159 67 88 27 169 49 181 49 19 1 27
-20 83 -226z m-5452 129 c-4 -37 -12 -53 -42 -80 -20 -19 -39 -31 -42 -29 -2
3 1 39 8 81 11 62 16 76 31 76 10 0 21 7 25 16 11 30 26 -15 20 -64z m582 -54
l42 -77 -80 -41 -81 -40 -21 42 c-12 24 -32 61 -45 84 l-24 40 78 42 c42 22
80 38 83 34 3 -4 25 -42 48 -84z m447 -9 c25 -50 44 -92 42 -93 -2 -2 -38 -19
-81 -39 l-77 -36 -46 90 c-25 50 -44 92 -42 94 7 6 144 74 150 75 4 0 28 -41
54 -91z m453 -40 c23 -51 40 -96 39 -101 -3 -9 -134 -68 -150 -68 -9 0 -75
138 -84 175 -4 18 5 25 63 52 37 17 73 32 79 32 6 1 30 -40 53 -90z m3545 29
c51 -181 115 -432 112 -436 -6 -5 -360 -90 -364 -87 -2 1 -21 72 -43 156 -22
85 -51 192 -64 238 -14 47 -23 86 -21 88 6 6 330 102 347 102 11 1 21 -18 33
-61z m-1538 -366 c-3 -2 -84 -28 -181 -57 -119 -36 -178 -49 -181 -41 -22 62
-125 389 -122 391 2 1 82 29 178 63 l175 60 68 -205 c37 -113 65 -208 63 -211z
m-3676 378 c-6 -11 -16 -20 -23 -20 -7 0 -18 9 -25 20 -11 19 -10 20 23 20 33
0 35 -2 25 -20z m630 -152 c0 -4 -35 -25 -78 -47 l-78 -39 -38 74 c-20 40 -37
77 -37 81 0 4 33 27 73 49 l73 42 42 -77 c23 -42 43 -79 43 -83z m1730 -11
c33 -87 60 -164 60 -171 0 -11 -315 -131 -344 -131 -4 0 -14 16 -21 35 -8 19
-36 94 -64 165 -28 72 -47 131 -43 133 4 2 81 34 172 71 91 38 168 66 172 62
4 -3 34 -77 68 -164z m-1322 77 c24 -48 42 -88 40 -89 -14 -12 -150 -75 -156
-71 -10 6 -87 165 -81 170 6 5 143 75 149 76 3 0 25 -39 48 -86z m-968 45 c0
-5 -7 -9 -15 -9 -15 0 -20 12 -9 23 8 8 24 -1 24 -14z m1420 -85 c23 -52 40
-97 38 -99 -4 -4 -149 -65 -154 -65 -5 0 -69 137 -79 169 -6 19 3 26 67 56 40
18 76 34 79 34 4 1 26 -42 49 -95z m3369 -81 c64 -234 85 -323 75 -333 -14
-12 -348 -90 -355 -82 -3 4 -22 70 -42 147 -20 77 -47 179 -60 226 l-24 87
171 50 c94 28 176 51 182 51 7 1 30 -65 53 -146z m-3999 37 c22 -44 40 -82 40
-85 0 -6 -106 -60 -137 -69 -20 -6 -27 2 -63 74 -23 45 -40 83 -38 85 7 6 144
74 150 75 4 0 26 -36 48 -80z m2374 -102 c30 -95 57 -184 58 -198 3 -23 -4
-26 -172 -76 -96 -29 -178 -49 -181 -46 -14 18 -120 365 -112 373 10 10 313
118 334 118 13 1 30 -41 73 -171z m-1891 -29 c-5 -5 -41 -22 -81 -38 l-73 -30
-34 74 c-54 118 -56 107 32 147 l78 36 43 -91 c23 -50 39 -94 35 -98z m422 35
c20 -52 34 -99 29 -103 -19 -17 -147 -62 -155 -54 -10 11 -80 186 -75 190 7 7
141 62 152 63 6 0 28 -43 49 -96z m2694 29 c27 -91 101 -375 101 -388 0 -10
-358 -101 -365 -93 -1 1 -10 32 -19 68 -9 36 -35 134 -58 218 -22 84 -39 154
-37 156 4 4 338 104 351 105 4 1 16 -29 27 -66z m-3774 -23 c21 -44 37 -82 34
-84 -3 -3 -39 -21 -80 -40 l-76 -34 -36 74 c-20 41 -37 79 -37 84 0 10 126 79
145 80 6 0 28 -36 50 -80z m445 -26 c22 -47 40 -87 40 -89 0 -5 -147 -65 -158
-65 -5 0 -18 21 -30 48 -11 26 -27 64 -36 85 l-16 38 72 34 c40 19 76 35 81
35 4 0 26 -39 47 -86z m1733 -121 c32 -98 57 -183 57 -188 0 -6 -75 -33 -167
-60 -93 -26 -173 -50 -179 -52 -14 -5 -129 346 -117 357 11 11 314 119 334
119 11 1 30 -45 72 -176z m-1280 62 c20 -49 33 -93 29 -96 -11 -10 -153 -62
-157 -58 -12 14 -74 184 -68 190 16 15 148 66 154 60 4 -3 23 -46 42 -96z
m-632 -21 c22 -48 38 -88 37 -89 -18 -11 -159 -67 -162 -64 -7 7 -65 140 -68
155 -2 8 24 27 67 48 39 19 74 35 78 35 4 1 26 -38 48 -85z m3168 -119 c27
-104 53 -201 56 -216 l6 -25 -182 -43 c-185 -44 -198 -45 -199 -5 0 5 -22 93
-49 195 -28 101 -47 187 -43 191 12 12 347 106 353 100 4 -4 30 -92 58 -197z
m-2722 76 c19 -46 32 -88 30 -95 -7 -17 -147 -70 -156 -60 -17 19 -74 178 -65
181 5 2 38 17 74 33 36 15 69 27 74 26 5 -1 24 -39 43 -85z m-623 -44 l35 -78
-47 -20 c-95 -41 -115 -49 -118 -47 -1 2 -18 39 -38 83 l-35 80 77 36 c42 20
80 33 84 30 3 -3 22 -41 42 -84z m1703 -39 c23 -70 48 -149 56 -176 l15 -49
-180 -52 c-99 -29 -181 -51 -183 -49 -1 1 -28 78 -58 170 l-55 167 107 37 c58
21 133 48 166 60 33 13 67 22 75 21 10 -1 30 -47 57 -129z m3243 118 c0 -2 22
-106 49 -232 66 -309 63 -292 43 -298 -30 -9 -354 -67 -357 -64 -1 2 -8 32
-14 68 -7 36 -30 148 -52 249 -22 101 -37 187 -32 191 4 4 85 26 178 48 181
43 185 44 185 38z m-3868 -119 l36 -103 -81 -27 c-45 -15 -84 -23 -88 -19 -14
16 -70 184 -64 190 8 9 136 61 150 61 6 1 27 -45 47 -102z m-636 5 c19 -45 32
-87 29 -91 -6 -10 -154 -66 -159 -60 -9 12 -68 170 -64 174 11 11 135 64 147
62 7 -1 29 -39 47 -85z m2494 6 c65 -237 87 -333 76 -337 -6 -3 -89 -23 -184
-46 l-172 -42 -11 41 c-5 23 -28 109 -51 191 -22 83 -41 156 -42 163 -1 9 52
30 159 62 88 27 170 49 181 49 19 1 25 -10 44 -81z m-2072 -5 c33 -83 62 -167
59 -170 -2 -2 -40 -17 -84 -33 -73 -26 -81 -27 -86 -12 -2 9 -18 54 -35 99
l-30 82 76 30 c43 17 80 30 83 31 4 0 11 -12 17 -27z m3735 -153 c48 -223 69
-331 65 -334 -13 -10 -362 -66 -368 -59 -4 4 -17 60 -29 123 -13 63 -35 170
-51 238 l-27 122 21 6 c210 51 342 80 347 75 3 -3 22 -80 42 -171z m-4322 37
l19 -48 -23 -8 c-12 -5 -46 -18 -75 -30 -29 -12 -57 -21 -61 -21 -14 0 -75
160 -65 170 5 5 41 22 79 38 l70 29 18 -41 c11 -23 27 -62 38 -89z m2273 41
c38 -128 88 -339 83 -345 -11 -11 -352 -91 -359 -84 -4 3 -20 60 -37 126 -17
66 -39 150 -50 187 l-19 68 36 10 c20 5 96 28 167 49 72 22 138 40 147 40 12
1 21 -15 32 -51z m-1844 -63 c18 -53 31 -97 29 -99 -6 -5 -162 -56 -164 -53
-6 9 -58 165 -59 176 -1 10 124 67 155 70 3 1 21 -42 39 -94z m-632 -2 c18
-43 32 -83 32 -88 0 -14 -150 -69 -160 -59 -11 11 -60 134 -60 149 0 9 125 70
151 74 3 1 20 -34 37 -76z m4113 25 c15 -56 89 -415 89 -432 0 -9 -55 -23
-180 -46 -99 -18 -183 -30 -186 -27 -3 3 -23 88 -44 189 -21 101 -43 203 -49
228 -5 24 -9 46 -7 47 5 6 322 81 343 82 18 1 24 -7 34 -41z m-3665 -95 l33
-90 -80 -28 c-44 -15 -83 -25 -86 -21 -4 4 -21 45 -39 91 l-31 83 76 30 c42
17 80 29 86 28 5 -1 24 -43 41 -93z m634 -24 c17 -55 30 -102 28 -103 -5 -4
-152 -46 -160 -46 -10 0 -71 190 -63 198 9 9 126 50 146 51 12 1 25 -25 49
-100z m1020 32 c46 -154 81 -304 73 -311 -4 -4 -80 -24 -168 -44 -88 -21 -167
-39 -176 -42 -12 -3 -25 31 -63 177 -26 99 -46 183 -43 186 6 6 327 101 344
102 7 1 21 -30 33 -68z m1639 -53 c24 -103 79 -372 77 -375 -2 -3 -342 -63
-358 -63 -12 0 -19 11 -23 38 -4 20 -25 120 -47 220 -22 101 -38 185 -36 187
5 5 331 84 350 84 13 1 21 -19 37 -91z m-3480 -15 c17 -47 28 -90 24 -93 -10
-9 -155 -62 -158 -58 -5 9 -64 172 -62 174 3 4 151 63 158 63 4 1 21 -38 38
-86z m631 -19 c18 -53 28 -99 24 -104 -10 -9 -155 -53 -159 -48 -5 5 -65 192
-62 194 6 5 144 53 154 53 6 1 26 -42 43 -95z m857 -114 c62 -228 79 -197
-131 -247 -98 -24 -181 -42 -183 -40 -5 6 -94 339 -91 342 7 7 344 104 353
101 6 -1 29 -72 52 -156z m-1669 54 l30 -80 -81 -27 c-45 -15 -84 -23 -88 -19
-11 13 -61 153 -56 158 12 12 153 61 159 56 4 -4 20 -43 36 -88z m626 -2 c14
-46 26 -87 26 -92 0 -8 -161 -63 -166 -57 -4 4 -56 182 -55 187 2 9 156 58
163 51 3 -3 18 -43 32 -89z m2680 -123 c26 -122 45 -223 43 -225 -3 -4 -299
-60 -346 -66 -23 -3 -25 2 -67 202 -24 113 -44 210 -44 216 0 9 304 90 351 93
13 1 25 -42 63 -220z m-2867 59 l29 -93 -70 -22 c-39 -13 -78 -23 -86 -23 -11
0 -25 27 -44 86 -15 47 -26 87 -24 89 7 8 134 54 149 54 12 1 24 -25 46 -91z
m2442 35 c23 -82 83 -385 77 -390 -3 -3 -85 -21 -183 -39 -181 -34 -192 -34
-193 4 0 8 -16 89 -35 180 -20 92 -37 173 -38 181 -1 11 44 26 173 57 96 23
178 43 182 43 4 1 12 -16 17 -36z m-1816 -60 c40 -136 44 -124 -50 -149 -46
-12 -85 -19 -87 -16 -9 16 -57 195 -53 199 4 4 142 49 158 52 3 1 18 -38 32
-86z m-815 -33 c17 -49 27 -92 24 -94 -24 -14 -156 -46 -162 -39 -8 9 -61 165
-57 168 3 3 151 53 159 54 3 1 20 -39 36 -89z m622 -12 c12 -40 25 -86 31
-102 5 -16 8 -30 7 -31 -8 -5 -170 -46 -172 -43 -1 2 -12 40 -25 86 -12 45
-24 89 -27 97 -4 10 16 21 73 39 43 14 81 25 85 26 4 0 17 -33 28 -72z m1665
-162 c20 -97 35 -182 32 -189 -4 -12 -354 -83 -363 -74 -2 2 -17 70 -34 151
-16 82 -35 166 -41 188 -5 22 -8 43 -5 46 3 3 86 24 183 47 165 39 178 41 185
25 4 -10 23 -97 43 -194z m2378 164 c21 -116 75 -475 72 -478 -6 -6 -367 -53
-372 -48 -2 2 -11 48 -19 102 -8 55 -26 168 -40 252 -14 85 -24 155 -22 157 8
8 315 64 343 62 27 -2 30 -6 38 -47z m-4852 -47 c13 -43 24 -82 24 -86 0 -13
-156 -60 -164 -50 -13 15 -53 155 -46 161 9 9 126 50 146 51 11 1 23 -22 40
-76z m630 -43 l26 -95 -58 -17 c-124 -35 -111 -40 -138 59 -13 49 -24 92 -25
97 -1 10 131 55 154 52 10 -1 24 -33 41 -96z m3858 -136 c19 -114 34 -230 35
-257 l1 -51 -179 -24 c-138 -18 -180 -21 -186 -12 -4 7 -11 40 -15 74 -3 33
-19 140 -35 236 -16 96 -28 175 -27 176 6 4 326 62 348 63 l25 1 33 -206z
m-4066 149 c4 -16 15 -58 26 -94 l19 -67 -85 -22 c-46 -12 -85 -21 -87 -19 -1
2 -14 44 -28 94 l-25 90 66 21 c92 30 107 30 114 -3z m1641 -45 c40 -180 63
-304 57 -309 -7 -8 -361 -73 -365 -68 -6 9 -77 362 -73 366 7 6 319 82 343 82
19 1 24 -9 38 -71z m2010 -5 c22 -126 66 -417 66 -436 0 -22 -7 -23 -181 -46
-142 -18 -183 -21 -189 -11 -4 7 -10 38 -14 69 -4 31 -18 126 -32 211 -14 85
-26 162 -27 170 -2 11 36 22 168 46 94 18 177 32 186 33 11 1 18 -11 23 -36z
m-3823 -65 l26 -93 -56 -17 c-31 -10 -69 -20 -86 -23 l-30 -6 -26 89 -25 90
80 25 c45 14 83 25 86 26 3 1 17 -41 31 -91z m820 -21 l26 -102 -86 -21 -86
-20 -22 85 c-35 133 -39 121 52 146 44 12 82 20 85 18 3 -2 17 -50 31 -106z
m626 -77 c18 -80 35 -161 38 -181 l6 -35 -181 -33 c-104 -19 -185 -30 -189
-25 -10 11 -75 333 -69 339 8 9 323 84 343 82 17 -2 24 -21 52 -147z m-1635
43 l25 -88 -53 -17 c-29 -9 -68 -20 -87 -23 l-33 -7 -23 82 c-12 45 -19 85
-16 88 6 6 139 49 156 51 4 1 18 -38 31 -86z m817 -9 c13 -53 19 -99 15 -103
-10 -8 -155 -43 -160 -39 -1 2 -14 47 -27 101 l-25 97 57 16 c31 8 61 17 66
19 44 15 51 7 74 -91z m2805 69 c11 -53 55 -329 61 -389 l7 -60 -176 -23 c-96
-13 -182 -21 -191 -18 -8 4 -15 18 -15 32 0 15 -14 112 -31 217 -17 104 -28
193 -24 196 6 6 316 68 352 71 6 1 14 -11 17 -26z m-2996 -115 c12 -51 22 -96
22 -99 0 -9 -160 -42 -168 -35 -3 4 -16 47 -28 96 l-21 89 56 16 c31 9 61 18
66 20 6 2 19 4 31 4 17 1 23 -11 42 -91z m2644 -166 c18 -116 30 -213 28 -216
-6 -5 -364 -54 -369 -50 -2 2 -16 83 -31 181 -15 98 -31 195 -35 215 -8 43
-27 35 175 72 177 32 184 33 192 21 4 -6 22 -106 40 -223z m-2834 117 c12 -51
21 -94 18 -96 -7 -8 -161 -41 -166 -36 -6 6 -49 177 -45 181 6 6 130 40 150
41 18 1 24 -11 43 -90z m-198 -24 c9 -33 19 -74 23 -90 l6 -31 -85 -18 c-46
-11 -86 -17 -88 -15 -2 2 -11 36 -20 74 -9 39 -19 77 -22 86 -4 13 11 21 68
37 40 11 79 20 87 19 8 -1 21 -28 31 -62z m2633 -97 c40 -250 42 -268 26 -268
-8 -1 -90 -11 -184 -24 -181 -25 -184 -25 -185 24 -1 14 -14 102 -29 195 -16
94 -28 171 -27 172 4 5 314 61 342 62 l31 1 26 -162z m-1807 25 c15 -72 18
-103 10 -106 -22 -9 -156 -30 -161 -26 -6 6 -47 200 -43 204 7 7 135 33 153
32 16 -2 23 -18 41 -104z m-1010 -5 l21 -87 -76 -16 c-41 -10 -80 -19 -86 -22
-7 -2 -19 29 -29 74 -11 43 -21 83 -23 89 -4 12 128 54 156 51 10 -1 23 -33
37 -89z m808 5 c8 -38 18 -84 21 -104 l7 -37 -49 -10 c-116 -25 -121 -25 -126
-5 -18 62 -38 175 -32 181 6 6 125 38 152 41 6 0 18 -28 27 -66z m1610 -20
c25 -136 49 -313 44 -319 -9 -9 -363 -53 -369 -46 -5 6 -44 248 -56 353 l-5
36 149 27 c81 15 153 29 158 31 6 2 22 4 36 4 26 1 28 -2 43 -86z m-1780 -124
l6 -36 -86 -17 c-47 -10 -87 -16 -88 -14 -1 2 -11 46 -22 99 l-20 97 86 19 85
19 16 -66 c9 -36 19 -81 23 -101z m1380 124 c12 -43 59 -364 53 -369 -8 -9
-360 -55 -366 -48 -3 3 -16 69 -28 147 -12 78 -25 160 -28 183 l-7 41 169 30
c203 38 200 37 207 16z m-1589 -90 c10 -49 18 -92 19 -97 0 -5 -28 -15 -64
-22 -36 -8 -75 -16 -86 -19 -20 -4 -23 2 -39 85 -10 49 -17 93 -17 97 1 7 119
39 153 42 12 1 20 -19 34 -86z m4388 25 c15 -82 38 -328 40 -411 l2 -92 -140
-12 c-77 -6 -161 -12 -186 -12 l-46 -1 -7 98 c-4 53 -16 169 -26 257 -11 87
-18 160 -17 161 5 5 295 42 333 43 40 1 42 -1 47 -31z m-4578 -75 c9 -46 14
-87 11 -91 -7 -11 -155 -36 -163 -28 -7 7 -43 169 -39 173 7 8 162 39 168 34
3 -3 14 -43 23 -88z m1389 79 c9 -15 58 -353 52 -360 -6 -5 -317 -50 -358 -52
-13 0 -18 8 -18 25 0 14 -9 80 -19 148 -11 67 -21 135 -23 152 l-3 29 170 32
c195 37 192 37 199 26z m2796 -32 c0 -6 9 -88 19 -183 11 -94 23 -206 26 -248
l7 -75 -158 -12 c-88 -7 -173 -12 -190 -12 l-32 0 -7 78 c-3 42 -15 153 -25
247 -11 93 -18 170 -17 171 6 4 297 42 335 43 23 0 42 -4 42 -9z m-4378 -89
c10 -46 17 -85 15 -87 -4 -5 -145 -34 -161 -34 -11 0 -41 120 -41 164 0 11
120 45 149 43 16 -2 23 -17 38 -86z m993 57 c12 -54 35 -191 33 -193 -2 -2
-42 -9 -89 -17 l-86 -14 -17 104 c-10 57 -16 105 -14 107 3 3 135 32 155 34 7
1 15 -9 18 -21z m2995 -20 c0 -7 9 -92 19 -188 11 -96 22 -202 25 -236 l7 -60
-190 -15 -190 -14 -6 65 c-4 36 -15 143 -26 239 -10 96 -18 175 -16 176 4 4
313 43 345 44 19 1 32 -4 32 -11z m-3176 -85 c23 -128 27 -119 -56 -133 -40
-6 -78 -13 -85 -15 -7 -3 -15 11 -19 33 -4 20 -12 67 -19 104 l-12 66 71 15
c111 23 102 28 120 -70z m-195 -30 c7 -43 15 -88 18 -99 4 -20 -1 -23 -69 -34
-40 -6 -80 -13 -88 -16 -12 -3 -19 16 -32 93 -9 54 -15 99 -13 102 7 6 117 29
146 30 25 1 27 -2 38 -76z m2986 15 c22 -199 35 -328 35 -369 l0 -46 -162 -12
c-90 -7 -173 -14 -185 -17 -19 -3 -23 1 -27 28 -7 48 -40 379 -40 408 -1 24 1
25 159 46 233 32 211 35 220 -38z m-3175 -81 c7 -43 11 -80 8 -83 -6 -5 -162
-33 -166 -30 -3 4 -32 167 -32 182 0 6 37 17 83 25 96 16 88 23 107 -94z
m2789 -9 c19 -168 34 -348 30 -352 -6 -6 -363 -34 -371 -29 -5 2 -8 21 -8 41
0 20 -9 116 -20 212 -10 96 -17 177 -14 179 4 5 307 48 350 50 20 1 22 -7 33
-101z m-2990 15 c6 -38 14 -80 17 -95 6 -30 9 -29 -105 -47 -36 -6 -65 -10
-66 -8 -1 1 -8 43 -16 92 l-14 90 75 16 c41 9 80 17 86 18 7 1 17 -27 23 -66z
m2594 -20 c27 -250 39 -374 36 -378 -2 -2 -69 -8 -149 -14 -80 -6 -164 -14
-186 -17 l-41 -5 -7 83 c-4 46 -14 139 -22 207 -8 68 -12 126 -10 129 4 4 314
48 357 51 13 1 18 -12 22 -56z m-2782 -43 c9 -49 15 -90 15 -90 -1 0 -39 -7
-85 -15 -47 -8 -86 -14 -87 -12 -4 5 -33 171 -30 174 3 4 133 30 156 32 12 1
19 -20 31 -89z m2403 -117 c9 -93 19 -187 22 -210 4 -32 2 -43 -8 -43 -7 0
-91 -7 -187 -15 -96 -8 -176 -14 -177 -12 -1 1 -10 72 -18 157 -9 85 -19 174
-22 197 l-6 41 43 7 c61 8 312 43 325 44 7 1 17 -61 28 -166z m-1397 72 c21
-142 25 -132 -64 -141 -43 -5 -82 -9 -88 -9 -5 0 -15 38 -21 85 -19 137 -23
127 49 138 112 18 110 19 124 -73z m-197 -32 c6 -49 14 -95 16 -104 5 -17 7
-17 -132 -35 l-42 -6 -12 89 c-6 48 -14 95 -16 104 -3 13 9 18 63 26 121 18
109 25 123 -74z m1199 -45 c11 -98 28 -278 26 -278 0 0 -83 -7 -184 -15 -102
-8 -186 -13 -189 -11 -2 3 -10 65 -18 138 -7 73 -16 157 -20 186 -6 46 -4 52
12 53 11 0 75 9 144 19 69 10 146 18 171 19 l46 1 12 -112z m-1391 3 c7 -52
10 -97 5 -102 -4 -4 -44 -11 -89 -14 l-80 -7 -13 97 c-7 53 -11 98 -9 99 6 5
133 24 153 22 17 -1 21 -13 33 -95z m-208 62 c1 -5 7 -49 14 -99 l13 -92 -86
-11 c-46 -6 -86 -10 -87 -8 -3 3 -21 115 -26 162 -3 30 -3 30 67 41 91 15 105
16 105 7z m1213 -160 c24 -223 25 -211 -25 -217 -68 -9 -330 -28 -332 -24 -4
5 -36 351 -34 354 5 4 293 41 334 43 l41 1 16 -157z m-1396 57 c19 -122 26
-112 -98 -125 l-66 -7 -9 78 c-5 44 -9 86 -9 94 0 11 19 18 70 26 102 17 98
19 112 -66z m815 -251 c-4 -4 -44 -9 -88 -13 l-82 -6 -6 57 c-4 32 -9 81 -12
109 l-6 51 89 9 88 9 12 -105 c6 -58 8 -108 5 -111z m3752 124 c3 -49 9 -170
13 -270 l6 -183 -49 0 c-27 0 -112 -3 -190 -7 l-141 -6 -6 166 c-4 91 -10 211
-13 265 l-7 99 134 10 c74 5 159 10 190 11 l56 2 7 -87z m-3960 25 c3 -24 8
-71 12 -105 l6 -61 -43 -6 c-24 -3 -65 -7 -90 -10 l-45 -5 -10 104 -9 105 45
5 c25 4 52 8 60 9 8 2 27 4 41 5 24 1 27 -3 33 -41z m3560 -5 c7 -49 29 -473
24 -478 -1 -2 -87 -6 -189 -10 l-187 -8 -7 139 c-4 77 -10 189 -14 249 -4 61
-6 112 -4 114 4 5 250 28 325 30 46 1 46 1 52 -36z m-3749 -80 l11 -101 -51
-6 c-27 -3 -66 -6 -86 -6 -41 0 -42 1 -54 131 l-7 66 78 10 c44 6 84 9 89 8 6
-1 15 -47 20 -102z m3358 35 c4 -29 9 -129 12 -223 3 -93 8 -182 10 -196 l4
-27 -186 -7 c-152 -6 -187 -5 -194 6 -5 8 -9 57 -9 109 0 52 -5 153 -10 224
-5 72 -7 132 -4 135 5 5 250 27 330 30 l41 1 6 -52z m-3559 -8 c3 -27 9 -72
12 -100 l6 -50 -30 0 c-16 0 -56 -3 -89 -6 l-60 -7 -10 94 c-5 52 -8 96 -6 99
5 5 89 16 140 19 30 1 31 0 37 -49z m-191 -63 c5 -49 6 -91 2 -95 -9 -9 -159
-22 -166 -14 -4 4 -10 46 -13 94 l-7 86 58 7 c32 4 63 8 68 10 6 2 19 3 30 2
18 -2 21 -12 28 -90z m3360 11 c4 -46 10 -153 13 -239 l7 -156 -129 -6 c-71
-4 -156 -7 -189 -7 l-61 0 -12 227 c-6 125 -9 229 -7 231 4 5 261 28 331 31
l41 1 6 -82z m-3558 -10 c3 -35 8 -75 11 -90 4 -22 2 -28 -13 -29 -10 0 -50
-3 -90 -7 l-72 -8 -6 66 c-12 125 -15 114 35 121 25 3 64 7 87 7 l41 2 7 -62z
m3160 50 c5 -17 27 -439 23 -444 -2 -2 -87 -6 -190 -10 l-185 -7 -6 99 c-19
301 -20 344 -6 345 8 0 79 6 159 13 196 18 200 18 205 4z m-392 -48 c4 -16 10
-115 13 -218 l7 -189 -108 -6 c-59 -4 -146 -7 -192 -7 l-83 0 -1 108 c-1 59
-4 152 -8 207 -4 55 -7 101 -6 102 1 3 282 27 351 32 16 1 23 -6 27 -29z
m-390 -57 c4 -32 9 -126 13 -209 l7 -151 -99 -6 c-55 -4 -140 -7 -190 -7 l-90
0 -11 198 c-6 108 -10 198 -9 199 2 2 253 24 357 32 13 1 18 -12 22 -56z
m-389 -85 c4 -62 9 -152 12 -199 l6 -86 -93 -6 c-50 -4 -136 -7 -190 -7 l-97
0 -6 93 c-3 50 -8 135 -12 188 l-6 96 89 8 c48 4 131 11 183 15 52 4 98 8 101
9 4 0 10 -50 13 -111z m-990 46 c3 -26 6 -75 6 -109 0 -74 -2 -75 -100 -75
l-69 0 -5 43 c-3 23 -7 70 -9 104 l-3 62 40 6 c23 3 59 6 81 8 22 2 43 4 46 5
4 1 9 -19 13 -44z m-200 4 c3 -13 7 -60 10 -105 6 -95 9 -93 -99 -93 l-73 0
-7 96 c-4 52 -4 99 1 104 5 5 34 11 64 13 30 2 65 4 77 5 16 1 24 -4 27 -20z
m799 -90 c4 -62 7 -145 7 -184 l0 -71 -77 -7 c-42 -3 -127 -6 -190 -6 l-113 0
0 73 c0 41 -3 121 -6 179 l-7 106 114 9 c63 6 148 11 190 11 l76 2 6 -112z
m-988 -3 c4 -51 4 -99 0 -105 -3 -5 -42 -10 -91 -10 l-84 0 0 54 c0 29 -3 74
-6 99 l-7 46 49 4 c27 2 68 4 90 5 l42 2 7 -95z m-201 44 c3 -17 6 -62 6 -100
l0 -69 -85 0 c-47 0 -85 3 -86 8 0 4 -4 46 -7 94 l-7 87 30 4 c16 2 55 5 86 5
56 2 57 2 63 -29z m-194 -33 c0 -29 3 -74 6 -100 l7 -46 -90 0 -90 0 -7 86
c-4 47 -4 89 -1 93 4 3 37 9 73 12 37 3 75 7 85 7 14 2 17 -7 17 -52z m-196
-27 c3 -34 6 -77 6 -95 l0 -34 -90 0 -90 0 0 59 c0 32 -3 72 -6 89 l-6 31 58
4 c137 8 120 15 128 -54z m996 -198 l0 -108 -46 -7 c-26 -3 -64 -6 -84 -6 -35
0 -38 2 -44 38 -3 20 -6 69 -6 109 l0 72 68 4 c37 2 77 4 90 5 22 2 22 0 22
-107z m-200 42 c0 -32 3 -82 6 -110 l7 -53 -92 0 -91 0 0 53 c0 28 -3 75 -6
104 l-7 52 79 4 c44 1 85 4 92 5 8 1 12 -15 12 -55z m-196 1 c3 -26 6 -73 6
-105 l0 -59 -90 0 -90 0 0 100 0 99 73 4 c39 1 77 4 83 5 6 1 14 -19 18 -44z
m-194 -63 l0 -98 -37 -7 c-21 -3 -59 -6 -84 -6 -56 0 -59 6 -59 122 l0 77 78
4 c42 1 83 4 90 5 9 1 12 -23 12 -97z m-200 27 c0 -35 3 -80 6 -100 l7 -38
-92 0 -91 0 0 43 c0 23 -3 65 -6 94 l-7 52 84 4 c46 1 87 4 92 5 4 1 7 -26 7
-60z m-191 -70 l1 -68 -90 0 -90 0 0 90 0 89 83 3 c95 3 94 5 96 -114z"/>
<path d="M2308 8710 c22 -9 22 -12 22 -185 0 -172 -1 -176 -22 -184 -16 -6 -6
-8 32 -8 30 0 48 3 40 5 -26 9 -31 25 -29 102 1 41 1 121 0 178 l-1 102 -32
-1 c-30 0 -31 -1 -10 -9z"/>
<path d="M3018 8710 c22 -9 22 -12 22 -172 -1 -90 -1 -173 -1 -185 1 -19 6
-23 34 -22 30 0 31 1 10 11 -23 11 -23 14 -23 195 l0 183 -32 -1 c-30 0 -31
-1 -10 -9z"/>
<path d="M3941 8690 c-16 -9 -6 -30 15 -30 15 0 20 25 6 34 -4 2 -14 1 -21 -4z"/>
<path d="M2458 8564 c20 -14 22 -23 22 -115 0 -94 -1 -100 -22 -108 -17 -7 -9
-9 32 -8 30 0 48 3 40 5 -26 8 -30 24 -30 119 0 84 -2 93 -22 107 -12 9 -27
16 -32 16 -6 0 0 -7 12 -16z"/>
<path d="M3160 8571 c-25 -7 -25 -7 -2 -13 21 -6 22 -11 22 -107 0 -96 -1
-102 -22 -110 -17 -7 -7 -9 37 -8 38 0 51 3 35 7 -24 6 -25 9 -26 91 -3 135
-4 149 -11 148 -5 -1 -19 -4 -33 -8z"/>
<path d="M3283 8559 c-1 -10 5 -19 13 -19 17 0 18 14 1 28 -10 8 -13 6 -14 -9z"/>
<path d="M3630 8570 c-24 -8 -24 -8 -2 -9 21 -1 22 -4 22 -106 0 -100 -1 -106
-22 -114 -16 -6 -6 -8 32 -8 30 0 48 3 40 5 -26 9 -31 25 -29 102 2 105 0 140
-8 139 -5 -1 -19 -5 -33 -9z"/>
<path d="M3778 8564 c20 -14 22 -23 22 -115 0 -94 -1 -100 -22 -108 -17 -7 -9
-9 32 -8 30 0 48 3 40 5 -26 8 -30 24 -30 119 0 84 -2 93 -22 107 -12 9 -27
16 -32 16 -6 0 0 -7 12 -16z"/>
<path d="M3925 8570 c-17 -7 -17 -9 -2 -9 15 -1 17 -13 17 -106 0 -100 -1
-106 -22 -114 -16 -6 -6 -8 32 -8 30 0 48 3 40 5 -26 9 -30 25 -30 135 0 59
-3 107 -7 106 -5 0 -17 -4 -28 -9z"/>
<path d="M4101 8555 c-41 -35 -57 -86 -42 -136 11 -37 61 -90 84 -88 7 0 2 5
-10 11 -32 16 -57 87 -49 140 8 47 20 68 51 86 11 6 15 12 8 12 -6 0 -25 -11
-42 -25z"/>
<path d="M2729 8553 c6 -12 11 -55 11 -95 0 -80 15 -121 45 -126 18 -2 19 -2
3 8 -15 9 -18 26 -18 95 0 76 -2 87 -26 112 -20 22 -23 23 -15 6z"/>
<path d="M2897 8549 c-40 -31 -54 -88 -34 -141 9 -24 25 -48 35 -55 18 -11 18
-10 0 25 -26 49 -19 134 13 168 28 29 21 31 -14 3z"/>
<path d="M3386 8541 c-51 -53 -41 -162 18 -193 21 -11 21 -11 1 11 -13 16 -20
41 -23 87 -4 56 -1 70 17 95 27 37 22 37 -13 0z"/>
<path d="M3526 8543 c4 -10 10 -47 12 -82 3 -54 0 -68 -18 -93 -22 -29 -22
-30 -1 -19 50 27 66 121 31 179 -21 34 -38 44 -24 15z"/>
<path d="M2610 8516 c0 -26 13 -35 25 -16 3 6 -1 17 -9 26 -15 14 -16 13 -16
-10z"/>
<path d="M4222 8528 c-16 -16 -15 -28 3 -28 8 0 15 9 15 20 0 23 -2 24 -18 8z"/>
<path d="M2619 8431 c-43 -43 -38 -76 15 -95 19 -6 19 -6 3 12 -24 26 -21 59
8 87 13 14 19 25 14 25 -6 0 -24 -13 -40 -29z"/>
<path d="M2518 8030 c22 -9 22 -12 22 -185 0 -172 -1 -176 -22 -184 -16 -6 -6
-8 32 -8 30 0 48 3 40 5 -8 3 -18 10 -22 16 -4 6 -8 91 -8 189 l0 177 -32 -1
c-30 0 -31 -1 -10 -9z"/>
<path d="M3151 8010 c-16 -9 -6 -30 15 -30 15 0 20 25 6 34 -4 2 -14 1 -21 -4z"/>
<path d="M3980 7947 c0 -9 -9 -26 -20 -37 -16 -16 -17 -20 -5 -20 12 0 15 -17
15 -94 0 -105 4 -122 31 -136 17 -9 17 -8 3 17 -10 20 -14 62 -13 151 0 68 -2
126 -5 130 -3 3 -6 -2 -6 -11z"/>
<path d="M2051 7875 c-41 -35 -57 -86 -42 -136 11 -37 61 -90 84 -88 7 0 2 5
-10 11 -32 16 -57 87 -49 140 8 47 20 68 51 86 11 6 15 12 8 12 -6 0 -25 -11
-42 -25z"/>
<path d="M2930 7891 c-25 -7 -25 -7 -2 -13 21 -6 22 -11 22 -107 0 -96 -1
-102 -22 -110 -17 -7 -7 -9 37 -8 38 0 51 3 35 7 -24 6 -25 9 -26 91 -3 135
-4 149 -11 148 -5 -1 -19 -4 -33 -8z"/>
<path d="M3053 7879 c-1 -10 5 -19 13 -19 17 0 18 14 1 28 -10 8 -13 6 -14 -9z"/>
<path d="M3135 7890 c-17 -7 -17 -9 -2 -9 15 -1 17 -13 17 -106 0 -100 -1
-106 -22 -114 -16 -6 -6 -8 32 -8 30 0 48 3 40 5 -26 9 -30 25 -30 135 0 59
-3 107 -7 106 -5 0 -17 -4 -28 -9z"/>
<path d="M3270 7890 c-24 -8 -24 -8 -2 -9 21 -1 22 -4 22 -106 0 -100 -1 -106
-22 -114 -16 -6 -6 -8 32 -8 30 0 48 3 40 5 -26 9 -31 25 -29 102 2 105 0 140
-8 139 -5 -1 -19 -5 -33 -9z"/>
<path d="M3418 7884 c20 -14 22 -23 22 -115 0 -94 -1 -100 -22 -108 -17 -7 -9
-9 32 -8 30 0 48 3 40 5 -26 9 -30 25 -28 116 2 82 1 89 -21 107 -13 10 -28
19 -34 19 -6 0 -1 -7 11 -16z"/>
<path d="M3568 7884 c20 -14 22 -23 22 -115 0 -93 -1 -100 -22 -108 -16 -6 -6
-8 32 -8 30 0 48 3 40 5 -26 8 -30 24 -30 119 0 84 -2 93 -22 107 -12 9 -27
16 -32 16 -6 0 0 -7 12 -16z"/>
<path d="M4390 7891 c-25 -7 -25 -7 -2 -13 21 -6 22 -11 22 -107 0 -96 -1
-102 -22 -110 -17 -7 -7 -9 37 -8 38 0 51 3 35 7 -24 6 -25 9 -26 91 -3 135
-4 149 -11 148 -5 -1 -19 -4 -33 -8z"/>
<path d="M4513 7879 c-1 -10 5 -19 13 -19 17 0 18 14 1 28 -10 8 -13 6 -14 -9z"/>
<path d="M2379 7873 c6 -12 11 -55 11 -95 0 -80 15 -121 45 -126 18 -2 19 -2
3 8 -15 9 -18 26 -18 95 0 76 -2 87 -26 112 -20 22 -23 23 -15 6z"/>
<path d="M2676 7861 c-51 -53 -41 -162 18 -193 21 -11 21 -11 1 11 -13 16 -20
41 -23 87 -4 56 -1 70 17 95 27 37 22 37 -13 0z"/>
<path d="M3747 7879 c-22 -13 -47 -68 -47 -105 0 -35 28 -92 51 -105 17 -9 17
-7 -2 26 -27 45 -23 142 6 175 20 22 19 24 -8 9z"/>
<path d="M3854 7868 c9 -12 16 -35 16 -50 0 -19 5 -28 16 -28 13 0 15 6 9 28
-8 34 -32 72 -46 72 -5 0 -3 -10 5 -22z"/>
<path d="M4177 7879 c-22 -13 -47 -68 -47 -105 0 -35 28 -92 51 -105 17 -9 17
-7 -2 26 -27 45 -23 142 6 175 20 22 19 24 -8 9z"/>
<path d="M4284 7868 c9 -12 16 -35 16 -50 0 -19 5 -28 16 -28 13 0 15 6 9 28
-8 34 -32 72 -46 72 -5 0 -3 -10 5 -22z"/>
<path d="M2816 7863 c4 -10 10 -47 12 -82 3 -54 0 -68 -18 -93 -22 -29 -22
-30 -1 -19 50 27 66 121 31 179 -21 34 -38 44 -24 15z"/>
<path d="M2172 7848 c-16 -16 -15 -28 3 -28 8 0 15 9 15 20 0 23 -2 24 -18 8z"/>
<path d="M2260 7836 c0 -26 13 -35 25 -16 3 6 -1 17 -9 26 -15 14 -16 13 -16
-10z"/>
<path d="M2269 7751 c-43 -43 -38 -76 15 -95 19 -6 19 -6 3 12 -24 26 -21 59
8 87 13 14 19 25 14 25 -6 0 -24 -13 -40 -29z"/>
<path d="M268 6630 c22 -9 22 -12 22 -185 0 -173 0 -176 -22 -185 -18 -7 -11
-9 32 -9 42 0 51 2 38 10 -16 9 -18 29 -18 194 l0 185 -37 -1 c-33 0 -35 -1
-15 -9z"/>
<path d="M3267 6614 c-14 -15 -6 -34 14 -34 14 0 19 5 17 17 -3 18 -20 27 -31
17z"/>
<path d="M911 6555 c-2 -24 -19 -47 -46 -63 -19 -11 -18 -11 8 -12 l27 0 0
-93 c0 -97 14 -137 47 -137 14 0 14 2 -2 14 -16 12 -20 30 -23 115 l-4 101 43
1 44 2 -40 6 c-38 6 -40 8 -46 46 -3 22 -7 31 -8 20z"/>
<path d="M3081 6555 c-2 -24 -19 -47 -46 -63 -19 -11 -18 -11 8 -12 l27 0 0
-93 c0 -97 14 -137 47 -137 14 0 14 2 -2 14 -16 12 -20 30 -23 115 l-4 101 43
1 44 2 -40 6 c-38 6 -40 8 -46 46 -3 22 -7 31 -8 20z"/>
<path d="M72 6484 c-49 -34 -67 -116 -37 -174 14 -28 71 -67 82 -57 2 3 -5 8
-17 12 -64 20 -65 188 -3 224 10 6 13 11 8 11 -6 0 -21 -7 -33 -16z"/>
<path d="M158 6484 c13 -9 24 -30 28 -55 4 -23 12 -39 20 -39 8 0 14 5 14 10
0 24 -30 79 -48 89 -31 16 -40 13 -14 -5z"/>
<path d="M452 6484 c-49 -34 -67 -116 -37 -174 14 -28 71 -67 82 -57 2 3 -5 8
-17 12 -64 20 -65 188 -3 224 10 6 13 11 8 11 -6 0 -21 -7 -33 -16z"/>
<path d="M538 6484 c13 -9 24 -30 28 -55 4 -23 12 -39 20 -39 8 0 14 5 14 10
0 24 -30 79 -48 89 -31 16 -40 13 -14 -5z"/>
<path d="M692 6487 c-28 -13 -62 -75 -62 -113 0 -40 30 -93 61 -109 40 -21 41
-19 10 13 -52 51 -48 159 6 201 28 23 22 26 -15 8z"/>
<path d="M1086 6491 c-19 -7 -19 -8 2 -13 21 -6 22 -12 22 -107 0 -96 -1 -102
-22 -111 -18 -7 -9 -9 37 -9 55 -1 58 0 35 12 -23 12 -25 18 -26 92 -2 158 -1
155 -48 136z"/>
<path d="M1193 6493 c9 -2 17 -11 17 -19 0 -8 7 -14 15 -14 8 0 15 4 15 8 0
15 -24 32 -44 31 -17 -1 -18 -2 -3 -6z"/>
<path d="M1546 6491 c-19 -7 -19 -8 2 -13 21 -6 22 -12 22 -107 0 -96 -1 -102
-22 -111 -18 -7 -11 -9 32 -9 42 0 51 2 38 10 -15 8 -18 24 -18 87 0 95 -9
152 -24 151 -6 0 -20 -4 -30 -8z"/>
<path d="M1670 6493 c42 -7 50 -29 50 -130 0 -88 -1 -94 -22 -103 -18 -7 -11
-9 32 -9 42 0 51 2 38 10 -15 8 -18 25 -18 100 0 82 -2 92 -25 114 -15 16 -34
24 -52 24 -27 -2 -27 -2 -3 -6z"/>
<path d="M1820 6493 c42 -7 50 -29 50 -130 0 -88 -1 -94 -22 -103 -18 -7 -11
-9 31 -9 46 -1 52 1 39 12 -12 9 -17 35 -20 106 -4 83 -7 96 -27 112 -13 11
-35 18 -50 18 l-26 -2 25 -4z"/>
<path d="M2104 6479 c24 -19 26 -26 26 -103 0 -86 15 -126 48 -126 16 1 16 1
0 11 -15 8 -18 24 -18 87 0 99 -6 120 -41 137 -40 21 -46 19 -15 -6z"/>
<path d="M2287 6480 c-21 -17 -27 -30 -27 -60 0 -21 5 -42 11 -45 6 -4 8 -12
6 -19 -3 -6 6 -12 19 -12 20 -2 21 0 9 12 -39 40 -22 126 27 132 52 6 80 -86
38 -128 -25 -25 -10 -26 21 -2 16 14 22 29 21 53 -2 61 -6 75 -22 76 -8 1 -29
5 -45 8 -22 5 -37 1 -58 -15z"/>
<path d="M2460 6484 c0 -8 5 -12 10 -9 6 4 8 11 5 16 -9 14 -15 11 -15 -7z"/>
<path d="M2516 6491 c-19 -7 -19 -8 2 -13 21 -6 22 -12 22 -107 0 -96 -1 -102
-22 -111 -18 -7 -11 -9 32 -9 42 0 51 2 38 10 -15 8 -18 24 -18 87 0 95 -9
152 -24 151 -6 0 -20 -4 -30 -8z"/>
<path d="M2640 6493 c42 -7 50 -29 50 -130 0 -88 -1 -94 -22 -103 -18 -7 -11
-9 31 -9 46 -1 52 1 39 12 -12 9 -17 35 -20 106 -4 83 -7 96 -27 112 -13 11
-35 18 -50 18 l-26 -2 25 -4z"/>
<path d="M2852 6484 c-49 -34 -67 -116 -37 -174 14 -28 71 -67 82 -57 2 3 -5
8 -17 12 -64 20 -65 188 -3 224 10 6 13 11 8 11 -6 0 -21 -7 -33 -16z"/>
<path d="M2938 6484 c13 -9 24 -30 28 -55 4 -23 12 -39 20 -39 8 0 14 5 14 10
0 24 -30 79 -48 89 -31 16 -40 13 -14 -5z"/>
<path d="M3246 6491 c-19 -7 -19 -8 2 -13 21 -6 22 -12 22 -107 0 -96 -1 -102
-22 -111 -18 -7 -11 -9 32 -9 42 0 51 2 38 10 -16 9 -18 26 -18 124 0 124 -2
127 -54 106z"/>
<path d="M3442 6487 c-28 -13 -62 -75 -62 -113 0 -40 30 -93 61 -109 40 -21
41 -19 10 13 -52 51 -48 159 6 201 28 23 22 26 -15 8z"/>
<path d="M1317 6479 c-48 -28 -62 -124 -24 -179 31 -47 53 -51 26 -6 -27 46
-24 143 6 176 20 22 19 24 -8 9z"/>
<path d="M1439 6464 c16 -21 21 -41 21 -91 0 -58 -3 -68 -29 -94 -16 -16 -25
-29 -19 -29 5 0 26 16 45 35 34 34 35 38 31 95 -3 45 -10 66 -28 85 -31 33
-47 32 -21 -1z"/>
<path d="M1619 6473 c-13 -16 -12 -17 4 -4 9 7 17 15 17 17 0 8 -8 3 -21 -13z"/>
<path d="M2589 6473 c-13 -16 -12 -17 4 -4 16 13 21 21 13 21 -2 0 -10 -8 -17
-17z"/>
<path d="M804 6462 c3 -5 1 -12 -6 -14 -7 -3 -9 -12 -5 -22 4 -9 11 -14 17
-11 14 8 13 42 -2 51 -6 4 -8 3 -4 -4z"/>
<path d="M3554 6462 c3 -5 1 -12 -6 -14 -7 -3 -9 -12 -5 -22 4 -9 11 -14 17
-11 14 8 13 42 -2 51 -6 4 -8 3 -4 -4z"/>
<path d="M2000 6436 c0 -16 5 -26 15 -26 8 0 15 6 15 14 0 7 -7 19 -15 26 -13
11 -15 8 -15 -14z"/>
<path d="M2025 6368 c-28 -16 -44 -39 -45 -65 0 -23 34 -53 59 -53 11 0 8 5
-7 16 -30 21 -28 59 4 89 28 26 23 32 -11 13z"/>
<path d="M2260 6315 c0 -12 6 -27 13 -34 10 -10 8 -15 -10 -29 -37 -29 -34
-76 7 -97 37 -19 54 -19 18 0 -35 19 -44 50 -24 80 14 22 24 25 74 25 71 0
106 -17 110 -52 3 -22 -3 -32 -30 -48 -39 -23 -30 -27 12 -5 37 19 48 57 26
90 -16 25 -43 33 -126 37 -36 3 -47 8 -57 28 -11 22 -13 23 -13 5z"/>
<path d="M980 6260 c-9 -6 -10 -10 -3 -10 6 0 15 5 18 10 8 12 4 12 -15 0z"/>
<path d="M3150 6260 c-9 -6 -10 -10 -3 -10 6 0 15 5 18 10 8 12 4 12 -15 0z"/>
<path d="M1048 5840 c22 -9 22 -12 22 -185 0 -173 0 -176 -22 -185 -18 -7 -11
-9 32 -9 42 0 51 2 38 10 -16 9 -18 29 -18 194 l0 185 -37 -1 c-33 0 -35 -1
-15 -9z"/>
<path d="M1677 5824 c-14 -15 -6 -34 14 -34 14 0 19 5 17 17 -3 18 -20 27 -31
17z"/>
<path d="M2511 5765 c-2 -24 -19 -47 -46 -63 -19 -11 -18 -11 8 -12 l27 0 0
-93 c0 -97 14 -137 47 -137 14 0 14 2 -2 14 -16 12 -20 30 -23 115 l-4 101 43
1 44 2 -40 6 c-38 6 -40 8 -46 46 -3 22 -7 31 -8 20z"/>
<path d="M592 5697 c-28 -13 -62 -75 -62 -113 0 -40 30 -93 61 -109 40 -21 41
-19 10 13 -52 51 -48 159 6 201 28 23 22 26 -15 8z"/>
<path d="M884 5689 c24 -19 26 -26 26 -103 0 -86 15 -126 48 -126 16 1 16 1 0
11 -15 8 -18 24 -18 87 0 99 -6 120 -41 137 -40 21 -46 19 -15 -6z"/>
<path d="M1446 5701 c-19 -7 -19 -8 2 -13 21 -6 22 -12 22 -107 0 -96 -1 -102
-22 -111 -18 -7 -9 -9 37 -9 55 -1 58 0 35 12 -23 12 -25 18 -26 92 -2 158 -1
155 -48 136z"/>
<path d="M1553 5703 c9 -2 17 -11 17 -19 0 -8 7 -14 15 -14 8 0 15 4 15 8 0
15 -24 32 -44 31 -17 -1 -18 -2 -3 -6z"/>
<path d="M1656 5701 c-19 -7 -19 -8 2 -13 21 -6 22 -12 22 -107 0 -96 -1 -102
-22 -111 -18 -7 -11 -9 32 -9 42 0 51 2 38 10 -16 9 -18 26 -18 124 0 124 -2
127 -54 106z"/>
<path d="M1796 5701 c-19 -7 -19 -8 2 -13 21 -6 22 -12 22 -107 0 -96 -1 -102
-22 -111 -18 -7 -11 -9 32 -9 42 0 51 2 38 10 -15 8 -18 24 -18 87 0 95 -9
152 -24 151 -6 0 -20 -4 -30 -8z"/>
<path d="M1920 5703 c42 -7 50 -29 50 -130 0 -88 -1 -94 -22 -103 -18 -7 -11
-9 32 -9 42 0 51 2 38 10 -15 8 -18 25 -18 100 0 82 -2 92 -25 114 -15 16 -34
24 -52 24 -27 -2 -27 -2 -3 -6z"/>
<path d="M2070 5703 c42 -7 50 -29 50 -130 0 -88 -1 -94 -22 -103 -18 -7 -11
-9 31 -9 46 -1 52 1 39 12 -12 9 -17 35 -20 106 -4 83 -7 96 -27 112 -13 11
-35 18 -50 18 l-26 -2 25 -4z"/>
<path d="M2272 5694 c-49 -34 -67 -116 -37 -174 14 -28 71 -67 82 -57 2 3 -5
8 -17 12 -64 20 -65 188 -3 224 10 6 13 11 8 11 -6 0 -21 -7 -33 -16z"/>
<path d="M2358 5694 c13 -9 24 -30 28 -55 4 -23 12 -39 20 -39 8 0 14 5 14 10
0 24 -30 79 -48 89 -31 16 -40 13 -14 -5z"/>
<path d="M2712 5694 c-49 -34 -67 -116 -37 -174 14 -28 71 -67 82 -57 2 3 -5
8 -17 12 -64 20 -65 188 -3 224 10 6 13 11 8 11 -6 0 -21 -7 -33 -16z"/>
<path d="M2798 5694 c13 -9 24 -30 28 -55 4 -23 12 -39 20 -39 8 0 14 5 14 10
0 24 -30 79 -48 89 -31 16 -40 13 -14 -5z"/>
<path d="M2906 5701 c-19 -7 -19 -8 2 -13 21 -6 22 -12 22 -107 0 -96 -1 -102
-22 -111 -18 -7 -9 -9 37 -9 55 -1 58 0 35 12 -23 12 -25 18 -26 92 -2 158 -1
155 -48 136z"/>
<path d="M3013 5703 c9 -2 17 -11 17 -19 0 -8 7 -14 15 -14 8 0 15 4 15 8 0
15 -24 32 -44 31 -17 -1 -18 -2 -3 -6z"/>
<path d="M1217 5689 c-48 -28 -62 -124 -24 -179 31 -47 53 -51 26 -6 -27 46
-24 143 6 176 20 22 19 24 -8 9z"/>
<path d="M1339 5674 c16 -21 21 -41 21 -91 0 -58 -3 -68 -29 -94 -16 -16 -25
-29 -19 -29 5 0 26 16 45 35 34 34 35 38 31 95 -3 45 -10 66 -28 85 -31 33
-47 32 -21 -1z"/>
<path d="M1869 5683 c-13 -16 -12 -17 4 -4 9 7 17 15 17 17 0 8 -8 3 -21 -13z"/>
<path d="M704 5672 c3 -5 1 -12 -6 -14 -7 -3 -9 -12 -5 -22 4 -9 11 -14 17
-11 14 8 13 42 -2 51 -6 4 -8 3 -4 -4z"/>
<path d="M780 5646 c0 -16 5 -26 15 -26 8 0 15 6 15 14 0 7 -7 19 -15 26 -13
11 -15 8 -15 -14z"/>
<path d="M805 5578 c-28 -16 -44 -39 -45 -65 0 -23 34 -53 59 -53 11 0 8 5 -7
16 -30 21 -28 59 4 89 28 26 23 32 -11 13z"/>
<path d="M2580 5470 c-9 -6 -10 -10 -3 -10 6 0 15 5 18 10 8 12 4 12 -15 0z"/>
<path d="M1548 4530 c22 -9 22 -12 22 -185 0 -173 0 -176 -22 -185 -18 -7 -11
-9 32 -9 47 0 52 2 33 11 -32 16 -32 76 0 107 l24 22 37 -56 c30 -45 35 -59
25 -71 -10 -12 -4 -14 37 -14 39 1 45 3 31 11 -22 13 -107 128 -107 146 0 15
62 66 92 75 15 4 7 6 -26 7 -39 1 -47 -2 -38 -11 10 -10 2 -23 -35 -60 -26
-26 -51 -48 -55 -48 -4 0 -8 61 -8 135 l0 135 -32 -1 c-30 0 -31 -1 -10 -9z"/>
<path d="M701 4455 c-2 -24 -19 -47 -46 -63 -19 -11 -18 -11 8 -12 l27 0 0
-93 c0 -97 14 -137 47 -137 14 0 14 2 -2 14 -16 12 -20 30 -23 115 l-4 101 43
1 44 2 -40 6 c-38 6 -40 8 -46 46 -3 22 -7 31 -8 20z"/>
<path d="M866 4391 c-19 -7 -19 -8 2 -13 21 -6 22 -12 22 -107 0 -96 -1 -102
-22 -111 -18 -7 -9 -9 37 -9 55 -1 58 0 35 12 -23 12 -25 18 -26 92 -2 158 -1
155 -48 136z"/>
<path d="M973 4393 c9 -2 17 -11 17 -19 0 -8 7 -14 15 -14 8 0 15 4 15 8 0 15
-24 32 -44 31 -17 -1 -18 -2 -3 -6z"/>
<path d="M1174 4379 c24 -19 26 -26 26 -103 0 -86 15 -126 48 -126 16 1 16 1
0 11 -15 8 -18 24 -18 87 0 99 -6 120 -41 137 -40 21 -46 19 -15 -6z"/>
<path d="M1379 4385 c-27 -15 -59 -78 -59 -116 0 -36 31 -89 61 -104 40 -21
41 -19 9 13 -53 53 -49 158 7 201 30 24 20 27 -18 6z"/>
<path d="M1852 4384 c-72 -50 -68 -180 8 -219 37 -19 54 -19 18 0 -56 31 -65
168 -14 212 31 26 22 31 -12 7z"/>
<path d="M1938 4384 c13 -9 24 -30 28 -55 4 -23 12 -39 20 -39 8 0 14 5 14 10
0 24 -30 79 -48 89 -31 16 -40 13 -14 -5z"/>
<path d="M2046 4391 c-19 -7 -19 -8 2 -13 21 -6 22 -12 22 -107 0 -96 -1 -102
-22 -111 -18 -7 -9 -9 37 -9 55 -1 58 0 35 12 -23 12 -25 18 -26 92 -2 158 -1
155 -48 136z"/>
<path d="M2153 4393 c9 -2 17 -11 17 -19 0 -8 7 -14 15 -14 8 0 15 4 15 8 0
15 -24 32 -44 31 -17 -1 -18 -2 -3 -6z"/>
<path d="M1494 4362 c3 -5 1 -12 -6 -14 -7 -3 -9 -12 -5 -22 4 -9 11 -14 17
-11 14 8 13 42 -2 51 -6 4 -8 3 -4 -4z"/>
<path d="M1070 4336 c0 -16 5 -26 15 -26 8 0 15 6 15 14 0 7 -7 19 -15 26 -13
11 -15 8 -15 -14z"/>
<path d="M1095 4268 c-28 -16 -44 -39 -45 -65 0 -23 34 -53 59 -53 11 0 8 5
-7 16 -29 20 -28 59 3 89 26 27 22 31 -10 13z"/>
<path d="M770 4160 c-9 -6 -10 -10 -3 -10 6 0 15 5 18 10 8 12 4 12 -15 0z"/>
<path d="M2703 3484 c-3 -9 2 -31 11 -50 30 -63 20 -74 -79 -89 -27 -4 -58
-11 -67 -16 -27 -15 -21 -56 17 -119 54 -89 49 -98 -66 -120 -32 -6 -64 -19
-74 -30 -19 -21 -20 -18 46 -136 31 -55 19 -69 -71 -84 -44 -7 -75 -18 -86
-31 -17 -19 -17 -21 4 -62 12 -23 32 -59 44 -79 21 -33 21 -39 8 -53 -9 -8
-42 -20 -75 -26 -69 -12 -105 -32 -105 -57 0 -10 14 -40 31 -67 48 -76 52 -92
26 -109 -12 -8 -48 -19 -81 -25 -97 -18 -105 -36 -53 -123 19 -30 36 -62 40
-71 9 -25 -18 -45 -71 -53 -26 -3 -62 -12 -79 -20 -43 -17 -43 -44 2 -114 34
-54 44 -93 26 -105 -6 -3 -36 -10 -68 -16 -111 -20 -125 -48 -68 -139 55 -85
49 -97 -64 -120 -93 -18 -102 -43 -46 -130 46 -73 46 -96 -2 -109 -21 -6 -46
-11 -56 -11 -37 0 -87 -29 -87 -49 0 -12 -6 -21 -12 -21 -7 0 -4 -8 8 -18 12
-9 24 -26 28 -36 6 -17 2 -18 -45 -13 -33 4 -61 14 -74 27 -13 12 -42 27 -66
34 l-43 13 -25 94 c-13 52 -25 96 -27 97 -3 5 -110 -19 -124 -28 -8 -5 -2 -40
20 -119 16 -61 30 -123 30 -137 0 -24 -3 -26 -37 -22 l-36 4 32 -27 32 -26
-78 -20 c-58 -14 -79 -24 -81 -37 -7 -34 12 -38 93 -17 83 21 81 22 60 -34 -8
-18 -6 -18 17 3 23 21 25 21 40 5 9 -10 30 -73 48 -140 20 -75 37 -120 44
-118 6 2 36 11 67 19 l56 16 -27 100 -27 101 33 33 c19 19 37 48 40 65 4 20
21 43 46 63 45 35 65 29 48 -17 -6 -15 -8 -30 -6 -33 3 -2 37 26 76 64 50 48
73 65 79 56 6 -10 26 -6 84 17 43 16 77 26 77 23 0 -4 -4 -23 -10 -42 -8 -33
-4 -30 66 45 49 53 77 76 82 68 5 -8 31 3 86 38 l79 51 -7 -41 c-3 -23 -4 -41
-2 -41 3 0 28 38 56 85 33 55 55 82 64 79 8 -3 47 11 86 31 l73 37 -6 -39 -6
-38 23 26 23 26 38 -103 c21 -57 41 -104 45 -104 18 0 120 43 120 51 0 4 -16
52 -35 105 l-35 97 20 22 c11 11 23 36 26 53 4 18 18 42 33 53 l26 21 5 -39 6
-38 47 92 c34 66 51 91 61 87 9 -3 43 14 79 40 36 25 67 46 70 46 3 0 7 -15 9
-32 3 -31 5 -29 50 52 25 47 52 84 59 82 7 -2 29 13 49 33 l38 37 9 -39 9 -38
30 95 c19 59 35 94 43 92 7 -1 42 24 79 57 l67 60 5 -42 5 -42 29 73 c16 39
30 72 31 72 2 0 23 -11 48 -25 40 -23 49 -35 92 -129 l48 -104 56 24 c31 14
59 28 63 32 4 4 -13 51 -38 104 -45 96 -45 97 -28 129 29 57 15 141 -31 179
-15 12 -11 16 30 32 62 24 71 16 77 -77 7 -112 29 -125 126 -80 95 44 112 34
112 -67 0 -26 4 -58 10 -72 13 -34 50 -34 124 0 31 14 64 24 73 22 21 -4 31
-36 32 -110 1 -63 20 -93 55 -85 12 3 49 17 84 32 80 33 88 28 94 -70 7 -112
29 -125 126 -80 95 44 112 34 112 -67 0 -26 4 -58 10 -72 13 -34 50 -34 124 0
31 14 64 24 73 22 21 -4 31 -36 32 -110 1 -64 20 -93 55 -84 63 19 75 18 120
-9 65 -38 69 -25 5 15 -46 30 -54 32 -83 22 -72 -26 -86 -13 -86 80 0 26 -4
58 -10 72 -13 34 -54 34 -121 0 -87 -43 -105 -28 -108 92 -1 37 -6 56 -21 69
-22 20 -8 23 -140 -31 -55 -23 -66 -11 -72 81 -7 112 -24 123 -122 80 -99 -44
-116 -34 -116 67 0 26 -4 58 -10 72 -13 34 -54 34 -121 0 -87 -43 -105 -28
-108 92 -1 37 -6 56 -21 69 -22 20 -8 23 -140 -31 -55 -23 -66 -11 -72 81 -5
79 -18 105 -51 105 -18 0 -16 5 18 40 l40 41 10 -41 10 -40 34 95 c18 53 32
98 29 100 -6 6 -188 -49 -188 -57 0 -5 14 -8 30 -8 17 0 30 -4 30 -8 0 -4 -27
-34 -59 -66 -34 -34 -57 -64 -54 -72 3 -10 -2 -14 -18 -13 -46 1 -60 15 -104
109 -25 52 -49 94 -53 93 -4 -1 -33 -13 -64 -27 l-57 -25 49 -105 c48 -102 48
-105 42 -172 l-7 -69 -79 -21 c-55 -14 -74 -23 -62 -27 10 -4 27 -7 38 -7 28
0 21 -12 -47 -71 -33 -29 -60 -59 -60 -68 0 -10 -29 -25 -87 -46 -102 -36
-115 -45 -65 -45 20 0 37 -4 37 -8 0 -4 -15 -23 -34 -41 -19 -18 -32 -39 -30
-46 4 -9 -22 -16 -90 -25 -53 -8 -96 -17 -96 -20 0 -4 15 -11 33 -17 l32 -9
-72 -49 c-40 -28 -70 -55 -68 -62 5 -15 -8 -19 -112 -34 -87 -13 -92 -17 -40
-35 l32 -11 -25 -13 c-40 -21 -125 -92 -122 -101 1 -5 -29 -9 -68 -9 -38 0
-73 -1 -77 -2 -14 -5 -15 63 -2 93 23 56 99 90 155 69 16 -6 41 -23 57 -38 15
-14 27 -21 27 -15 0 19 -59 62 -93 68 -31 6 -34 11 -67 106 -19 54 -40 99 -47
99 -13 0 -123 -40 -123 -44 0 -2 18 -52 40 -112 38 -102 40 -112 30 -156 -7
-26 -9 -51 -6 -57 4 -5 2 -13 -4 -16 -6 -4 -1 -14 12 -25 13 -10 21 -20 18
-23 -3 -3 -33 -19 -67 -36 -35 -17 -63 -38 -63 -45 0 -10 -17 -16 -57 -21 -32
-3 -78 -8 -103 -12 l-45 -6 33 -13 c17 -8 32 -16 32 -18 0 -3 -31 -24 -70 -48
-38 -24 -70 -49 -70 -55 0 -16 -4 -16 -109 -3 -46 6 -85 9 -88 7 -2 -3 10 -13
28 -24 l31 -20 -78 -31 c-44 -16 -78 -35 -76 -41 3 -14 0 -14 -74 0 -83 14
-94 18 -94 34 0 20 25 31 95 44 64 12 99 39 88 69 -3 9 -22 43 -41 75 -45 75
-39 86 57 108 40 9 80 24 89 33 15 14 14 19 -6 58 -12 24 -32 60 -44 80 -21
34 -22 39 -7 53 9 9 46 22 84 30 110 23 115 37 55 135 -22 36 -40 70 -40 77 0
17 27 29 80 38 67 11 110 31 110 52 0 10 -9 34 -20 53 -59 104 -62 112 -48
126 7 7 41 17 75 23 115 18 126 39 68 136 -49 81 -45 97 30 113 123 27 136 49
81 140 -55 89 -50 101 58 121 98 18 108 43 51 131 -57 90 -48 105 70 125 87
15 95 44 39 135 -53 87 -49 93 79 120 73 15 86 34 57 89 -11 22 -17 47 -14 55
3 9 3 16 0 16 -4 0 -9 -7 -13 -16z m1066 -888 c-8 -8 -113 -46 -116 -42 -11
11 54 46 85 46 19 0 33 -2 31 -4z m111 -117 c0 -108 -108 -174 -197 -119 -32
19 -49 68 -20 57 6 -2 29 11 49 31 39 37 43 36 51 -18 2 -18 9 -4 26 50 12 41
24 82 27 90 4 11 12 7 35 -18 22 -24 29 -42 29 -73z m-203 13 c-21 -22 -37
-44 -35 -49 2 -6 -1 -13 -7 -14 -12 -5 -19 44 -11 77 6 21 12 24 48 24 l42 0
-37 -38z m-902 -866 c-9 -19 -28 -42 -42 -51 -27 -18 -93 -32 -93 -20 0 11 54
85 63 85 4 0 7 -5 7 -10 0 -6 17 1 37 14 20 14 39 24 41 22 2 -3 -4 -20 -13
-40z m-1260 -400 c46 -20 45 -30 -2 -22 l-38 7 32 -23 c18 -13 33 -26 33 -29
0 -4 -16 -10 -35 -13 -19 -4 -38 -14 -43 -22 -8 -14 -17 -14 -65 -4 -36 7 -57
17 -57 25 0 24 50 75 83 84 45 13 53 13 92 -3z m1 -137 c44 12 49 10 35 -17
-19 -36 -12 -46 14 -22 33 31 32 10 0 -29 -35 -41 -86 -57 -135 -42 -65 19
-67 33 -14 80 31 27 50 38 54 30 5 -8 18 -8 46 0z"/>
<path d="M4188 3061 c-48 -20 -90 -40 -94 -44 -4 -4 12 -7 35 -7 l43 0 -61
-71 c-34 -38 -61 -74 -61 -78 0 -4 8 -15 18 -24 17 -16 21 -13 76 53 58 72 76
83 76 53 0 -10 4 -24 9 -32 6 -9 16 18 31 83 12 54 20 99 18 101 -1 2 -42 -13
-90 -34z"/>
<path d="M985 1038 l30 -26 -45 -12 c-117 -30 -121 -32 -114 -54 4 -12 8 -23
10 -25 2 -2 40 6 84 17 73 18 81 18 75 4 -23 -55 -15 -54 53 7 40 34 72 66 72
70 0 4 -29 13 -65 19 -36 7 -79 15 -97 19 l-33 6 30 -25z"/>
<path d="M684 957 l29 -25 -54 -15 c-30 -9 -66 -19 -81 -22 -16 -4 -28 -14
-28 -21 0 -10 -7 -13 -22 -9 -44 10 -169 35 -176 35 -4 0 7 -11 23 -24 34 -27
36 -25 -60 -52 -71 -19 -75 -23 -64 -51 l8 -22 68 20 c95 27 96 26 78 -18
l-15 -36 22 19 c13 10 47 40 76 67 52 46 72 56 72 38 0 -5 34 0 75 12 41 11
77 18 80 15 3 -3 1 -17 -4 -32 -6 -14 -8 -26 -5 -26 13 0 143 125 136 131 -4
3 -36 12 -72 18 -36 7 -76 15 -90 17 l-25 5 29 -24z"/>
</g>
</svg>
