<?xml version="1.0" standalone="no"?>
<!DOCTYPE svg PUBLIC "-//W3C//DTD SVG 20010904//EN"
 "http://www.w3.org/TR/2001/REC-SVG-20010904/DTD/svg10.dtd">
<svg version="1.0" xmlns="http://www.w3.org/2000/svg"
 width="1257.000000pt" height="660.000000pt" viewBox="0 0 1257.000000 660.000000"
 preserveAspectRatio="xMidYMid meet">

<g transform="translate(0.000000,660.000000) scale(0.100000,-0.100000)"
fill="#000000" stroke="none">
<path d="M1603 6423 c-9 -3 -13 -27 -13 -68 0 -50 4 -66 18 -74 16 -10 16 -10
0 -11 -14 0 -18 -9 -18 -40 0 -22 -4 -40 -10 -40 -6 0 -10 -45 -10 -115 0 -70
-4 -115 -10 -115 -6 0 -10 -45 -10 -115 0 -70 -4 -115 -10 -115 -6 0 -10 -43
-10 -110 0 -67 -4 -110 -10 -110 -6 0 -10 -45 -10 -115 0 -70 -4 -115 -10
-115 -6 0 -10 -42 -10 -105 0 -63 -4 -105 -10 -105 -6 0 -10 -45 -10 -115 0
-64 -4 -115 -9 -115 -5 0 -10 -48 -10 -107 -1 -63 -5 -109 -11 -111 -14 -5
-13 -125 2 -140 9 -9 9 -12 0 -12 -7 0 -12 -16 -12 -40 0 -29 -4 -40 -15 -40
-12 0 -15 -19 -15 -115 0 -70 -4 -115 -10 -115 -6 0 -10 -42 -10 -105 0 -63
-4 -105 -10 -105 -6 0 -10 -45 -10 -115 0 -70 -4 -115 -10 -115 -6 0 -10 -48
-10 -125 0 -77 -4 -125 -10 -125 -6 0 -10 -43 -10 -110 0 -67 -4 -110 -10
-110 -5 0 -10 -16 -10 -35 0 -19 5 -35 10 -35 6 0 10 -4 10 -10 0 -5 -25 -10
-55 -10 -30 0 -55 5 -55 10 0 6 -20 10 -45 10 -33 0 -45 4 -45 15 0 12 -13 15
-60 15 -33 0 -60 4 -60 10 0 6 -27 10 -60 10 -33 0 -60 4 -60 10 0 6 -28 10
-65 10 -37 0 -65 4 -65 10 0 6 -27 10 -60 10 -33 0 -60 4 -60 10 0 6 -30 10
-70 10 -68 0 -70 -1 -70 -25 0 -24 3 -25 54 -25 30 0 58 -4 61 -10 3 -5 30
-10 60 -10 30 0 57 -4 60 -10 3 -5 31 -10 61 -10 41 0 54 -4 54 -15 0 -12 14
-15 64 -15 36 0 68 -4 71 -10 3 -5 30 -10 60 -10 30 0 57 -4 60 -10 3 -5 28
-10 55 -10 27 0 52 -4 55 -10 3 -5 26 -10 51 -10 l44 0 0 -45 c0 -25 -4 -45
-10 -45 -5 0 -10 -18 -10 -40 0 -29 4 -40 15 -40 8 0 15 -4 15 -10 0 -5 -7
-10 -15 -10 -10 0 -15 -11 -15 -35 l0 -35 -390 0 c-253 0 -390 -4 -390 -10 0
-6 137 -10 390 -10 253 0 390 -4 390 -10 0 -5 -4 -10 -10 -10 -6 0 -10 -45
-10 -115 0 -70 -4 -115 -10 -115 -6 0 -10 -43 -10 -110 0 -67 -4 -110 -10
-110 -6 0 -10 -45 -10 -115 0 -72 -4 -115 -10 -115 -7 0 -10 -74 -9 -217 1
-150 -3 -219 -10 -221 -7 -2 -11 -43 -11 -113 0 -66 -4 -109 -10 -109 -6 0
-10 -43 -10 -110 0 -91 -3 -110 -15 -110 -13 0 -15 -21 -15 -125 0 -77 -4
-125 -10 -125 -6 0 -10 -45 -10 -115 0 -70 -4 -115 -10 -115 -6 0 -10 -45 -10
-115 0 -75 -4 -115 -11 -115 -6 0 -10 -12 -9 -28 5 -74 -13 -96 -56 -67 -32
21 -32 20 -36 -22 l-3 -38 -222 -3 -223 -2 0 225 0 225 41 0 c22 0 39 3 37 8
-38 78 -63 141 -81 199 -11 40 -24 73 -27 73 -3 0 -17 -37 -31 -83 -15 -45
-38 -108 -52 -139 l-27 -58 40 0 40 0 0 -236 c0 -191 3 -238 14 -250 12 -11
60 -14 255 -14 l241 0 0 -41 c0 -32 3 -40 15 -35 12 4 15 -4 15 -39 0 -25 -4
-45 -10 -45 -5 0 -10 -20 -10 -45 0 -25 -4 -45 -10 -45 -5 0 -10 -18 -10 -40
0 -36 3 -40 25 -40 20 0 25 5 25 25 0 14 5 25 10 25 6 0 10 20 10 45 0 25 5
45 10 45 6 0 10 23 10 50 0 28 4 50 9 50 5 0 11 12 13 28 3 25 11 30 92 56
l89 30 -84 27 c-46 15 -78 27 -71 28 18 2 15 52 -5 67 -17 13 -17 13 0 14 10
0 17 8 17 20 0 11 4 20 9 20 5 0 11 12 13 27 2 14 15 35 30 46 l28 21 28 -27
c15 -15 39 -27 51 -27 27 0 101 69 101 94 0 23 -11 20 -43 -14 -31 -33 -63
-37 -111 -17 l-29 13 84 76 c90 81 133 138 105 138 -8 0 -20 -9 -26 -20 -14
-26 -26 -25 -62 5 -39 33 -53 32 -94 -9 l-34 -34 0 84 c0 46 4 84 8 84 5 0 12
84 15 188 14 397 20 512 28 512 4 0 8 46 8 102 0 62 4 104 11 106 6 2 10 47
10 118 0 69 4 114 10 114 6 0 10 43 10 110 0 67 4 110 10 110 6 0 10 45 10
115 0 70 4 115 10 115 6 0 10 43 10 109 0 63 4 112 10 116 5 3 10 15 10 26 0
17 7 19 80 19 l80 0 0 -80 0 -80 175 0 175 0 0 -45 0 -45 180 0 c173 0 180 1
180 20 0 19 7 20 150 20 l150 0 0 -94 c0 -52 3 -101 6 -110 5 -12 21 -16 75
-16 l69 0 0 -35 c0 -28 -4 -35 -20 -35 -13 0 -20 -7 -20 -20 0 -11 -4 -20 -10
-20 -5 0 -10 -7 -10 -16 0 -18 -23 -44 -39 -44 -6 0 -11 -9 -11 -21 0 -19 -1
-19 -16 -5 -13 13 -43 16 -170 16 l-154 0 0 134 c0 74 -3 141 -6 150 -5 14
-31 16 -180 16 l-174 0 0 -225 0 -225 165 0 165 0 0 -75 0 -75 95 0 c78 0 95
-3 95 -15 0 -8 -4 -15 -10 -15 -5 0 -10 -11 -10 -25 0 -14 -4 -25 -8 -25 -14
0 -33 -51 -27 -71 8 -25 25 -24 25 2 0 25 17 59 42 80 10 9 18 22 18 28 0 27
29 41 84 41 l56 0 0 95 c0 57 4 95 10 95 6 0 10 9 10 20 0 11 5 20 11 20 15 0
39 26 39 42 0 8 9 20 20 28 11 8 20 22 20 32 0 10 5 18 10 18 6 0 10 14 10 30
0 23 4 30 20 30 14 0 20 7 20 21 0 46 13 49 259 49 l231 0 0 -190 c0 -162 2
-190 15 -190 8 0 15 -4 15 -10 0 -6 60 -10 160 -10 l160 0 0 -25 0 -25 -175 0
-175 0 0 -130 0 -130 175 0 175 0 0 -80 0 -80 155 0 155 0 0 -220 0 -220 190
0 190 0 0 114 0 114 70 4 c39 2 70 -1 70 -5 0 -5 22 -30 50 -57 27 -27 50 -53
50 -59 0 -6 9 -11 20 -11 11 0 20 -4 20 -10 0 -5 9 -10 20 -10 11 0 20 -4 20
-9 0 -14 91 -106 113 -114 9 -3 17 -13 17 -22 0 -8 7 -15 16 -15 10 0 13 -6
10 -18 -4 -11 2 -23 14 -32 11 -8 20 -18 20 -23 0 -18 51 -57 75 -57 22 0 25
-3 20 -20 -4 -11 -3 -20 2 -19 21 4 33 -2 33 -16 0 -9 20 -36 45 -60 36 -37
51 -45 81 -45 29 0 35 3 30 16 -3 9 -6 20 -6 25 0 5 -7 9 -15 9 -9 0 -35 19
-59 43 -24 23 -58 53 -75 66 -17 13 -31 29 -31 37 0 8 -7 14 -15 14 -8 0 -15
5 -15 10 0 14 -66 80 -80 80 -6 0 -13 7 -16 15 -4 8 -12 15 -19 15 -7 0 -15 7
-19 15 -3 8 -1 15 4 15 12 0 -82 97 -95 98 -5 0 -12 11 -15 24 -3 13 -15 25
-25 27 -11 2 -39 23 -62 47 l-43 44 59 0 c44 0 60 4 65 16 3 9 6 74 6 145 l0
129 -170 0 c-107 0 -170 4 -170 10 0 6 -25 10 -56 10 -46 0 -60 4 -77 23 -13
15 -21 18 -24 9 -3 -6 -9 -10 -14 -6 -5 3 -12 -2 -15 -10 -5 -13 -23 -16 -85
-16 l-79 0 0 62 c0 61 0 61 19 40 10 -12 23 -22 30 -22 6 0 11 -4 11 -10 0 -5
14 -10 30 -10 17 0 30 -4 30 -10 0 -5 11 -10 25 -10 16 0 25 6 25 16 0 11 -6
14 -20 9 -12 -4 -20 -2 -20 5 0 12 -24 40 -35 40 -10 0 -55 48 -55 59 0 5 -9
13 -20 16 -11 3 -20 15 -20 26 0 18 9 19 175 19 l175 0 0 145 0 145 155 0 155
0 0 -115 0 -115 165 0 165 0 0 -244 c0 -134 3 -251 6 -260 5 -14 32 -16 190
-16 l184 0 0 115 0 115 165 0 165 0 0 185 0 185 165 0 165 0 0 85 0 85 150 0
150 0 0 -125 0 -125 180 0 c153 0 180 -2 180 -15 0 -13 -24 -15 -160 -15 -88
0 -160 3 -160 8 0 4 -79 7 -175 7 -133 0 -175 -3 -175 -12 0 -7 -4 -13 -10
-13 -6 0 -10 -52 -10 -135 l0 -135 165 0 165 0 0 -145 0 -145 195 0 195 0 0
80 0 80 150 0 150 0 0 -225 0 -225 165 0 165 0 0 -24 c0 -57 -3 -56 196 -56
l184 0 0 279 c0 245 -2 280 -16 285 -9 3 -87 6 -175 6 l-159 0 0 225 0 225
-165 0 -165 0 0 80 0 80 325 0 325 0 0 -250 0 -250 185 0 185 0 0 155 0 155
150 0 150 0 0 -70 c0 -40 4 -70 10 -70 6 0 10 -7 10 -15 0 -13 43 -15 330 -15
l330 0 0 -80 0 -80 333 0 332 0 -3 -185 -3 -185 180 0 181 0 0 -65 0 -65 180
0 180 0 0 155 0 155 315 0 315 0 0 -90 0 -90 360 0 360 0 0 90 0 90 405 0 405
0 0 180 0 180 -575 0 -575 0 0 40 0 40 -190 0 -190 0 0 -50 0 -50 -157 -2
c-196 -3 -257 0 -261 13 -3 6 -27 7 -64 3 -55 -6 -60 -5 -65 15 -4 17 -13 21
-44 21 l-38 0 -3 48 -3 47 -373 0 c-291 0 -372 3 -372 13 0 18 -95 16 -114 -3
-17 -17 -46 -20 -46 -5 0 6 9 10 20 10 11 0 20 4 20 9 0 12 -80 25 -117 19
-28 -4 -28 -4 -28 58 l0 62 -235 6 c-129 3 -283 5 -342 6 l-108 0 0 74 c0 58
-3 75 -16 80 -9 3 -83 6 -164 6 l-149 0 -3 82 -3 83 -162 3 -163 2 0 130 0
130 165 0 165 0 0 30 0 30 165 0 165 0 0 105 0 105 -165 0 -165 0 0 425 0 425
-185 0 -185 0 0 -395 0 -395 -150 0 -150 0 0 60 0 60 -190 0 -190 0 0 -30 0
-30 -149 0 -148 0 -5 170 c-3 94 -3 247 0 340 l5 170 157 0 c186 0 170 -15
170 158 l0 112 -180 0 -180 0 0 -135 0 -135 -140 0 c-87 0 -140 4 -140 10 0 6
5 10 10 10 6 0 10 9 10 20 0 11 5 20 10 20 6 0 10 9 10 20 0 11 5 20 10 20 6
0 10 9 10 20 0 11 5 20 10 20 6 0 10 9 10 20 0 11 5 20 10 20 6 0 10 9 10 20
0 11 5 20 10 20 6 0 10 7 10 15 0 8 -4 15 -10 15 -18 0 -11 18 10 25 14 4 20
15 20 33 0 16 8 34 20 42 11 8 20 22 20 32 0 10 7 18 15 18 8 0 15 9 15 20 0
11 5 20 10 20 6 0 10 9 10 20 0 11 5 20 10 20 6 0 10 9 10 20 0 11 5 20 10 20
6 0 10 16 10 35 0 19 5 35 11 35 6 0 9 6 6 14 -3 8 1 20 9 26 8 7 14 25 14 41
0 19 6 30 20 34 11 3 20 15 20 26 0 10 5 19 10 19 6 0 10 9 10 20 0 11 5 20
10 20 6 0 10 28 10 65 0 51 -3 65 -15 65 -8 0 -15 -9 -15 -20 0 -11 -4 -20
-10 -20 -5 0 -10 -16 -10 -35 0 -19 -4 -35 -10 -35 -5 0 -10 -9 -10 -20 0 -11
-4 -20 -10 -20 -5 0 -10 -9 -10 -20 0 -11 -4 -20 -10 -20 -5 0 -10 -9 -10 -20
0 -11 -4 -20 -9 -20 -5 0 -11 -13 -14 -29 -3 -16 -13 -36 -22 -44 -8 -9 -15
-29 -15 -46 0 -17 -4 -31 -10 -31 -5 0 -10 -9 -10 -20 0 -11 -7 -20 -15 -20
-8 0 -15 -9 -15 -20 0 -11 -4 -20 -10 -20 -5 0 -10 -9 -10 -20 0 -11 -4 -20
-10 -20 -5 0 -10 -9 -10 -20 0 -11 -4 -20 -10 -20 -5 0 -10 -9 -10 -20 0 -11
-4 -20 -10 -20 -5 0 -10 -11 -10 -25 0 -14 -5 -25 -11 -25 -6 0 -8 -9 -4 -20
5 -14 2 -20 -9 -20 -9 0 -16 -9 -16 -20 0 -11 -4 -20 -10 -20 -5 0 -10 -9 -10
-20 0 -11 -4 -20 -10 -20 -5 0 -10 -9 -10 -20 0 -11 -4 -20 -9 -20 -5 0 -12
-10 -14 -22 -2 -13 -5 14 -6 60 l-1 82 -195 0 -195 0 0 -225 0 -225 -150 0
-150 0 0 115 0 115 -180 0 -180 0 0 -35 0 -35 -160 0 -160 0 0 35 0 35 -165 0
c-103 0 -165 4 -165 10 0 6 -67 10 -180 10 l-180 0 0 -115 0 -115 -170 0 -170
0 0 -30 0 -30 -160 0 c-153 0 -160 1 -160 20 0 19 -7 20 -175 20 -168 0 -175
-1 -175 -20 0 -19 -7 -20 -170 -20 l-170 0 0 -55 0 -55 -151 0 c-173 0 -179
-3 -179 -74 l0 -46 -40 0 -40 0 0 60 c0 33 -4 60 -10 60 -6 0 -10 52 -10 135
0 83 -4 135 -10 135 -6 0 -10 52 -10 135 0 83 -4 135 -10 135 -6 0 -10 48 -10
125 0 77 -4 125 -10 125 -6 0 -10 52 -10 135 0 83 -4 135 -10 135 -6 0 -10 52
-10 135 0 83 -4 135 -10 135 -6 0 -10 52 -10 135 0 83 -4 135 -10 135 -6 0
-10 48 -10 125 0 77 -4 125 -10 125 -6 0 -10 52 -10 135 0 83 -4 135 -10 135
-6 0 -10 52 -10 135 0 83 -4 135 -10 135 -6 0 -10 52 -10 135 0 113 -2 135
-15 135 -13 0 -15 23 -15 145 0 90 -4 145 -10 145 -5 0 -10 20 -10 45 0 41 -2
45 -25 45 -24 0 -25 -3 -25 -60 0 -33 4 -60 10 -60 6 0 10 -55 10 -145 0 -90
4 -145 10 -145 6 0 10 -52 10 -135 0 -83 4 -135 10 -135 6 0 10 -52 10 -135 0
-113 2 -135 15 -135 13 0 15 -21 15 -130 0 -80 4 -130 10 -130 6 0 10 -50 10
-130 0 -80 4 -130 10 -130 6 0 10 -50 10 -129 0 -86 4 -131 11 -133 8 -3 11
-48 10 -141 -1 -90 2 -137 9 -137 6 0 10 -46 10 -130 0 -80 4 -130 10 -130 6
0 10 -50 10 -130 0 -80 4 -130 10 -130 6 0 10 -52 10 -135 0 -83 4 -135 10
-135 6 0 10 -50 10 -129 0 -76 4 -132 10 -136 6 -3 10 -26 10 -51 l0 -44 -100
0 -100 0 0 30 0 30 -180 0 -180 0 0 -125 0 -125 -159 0 c-118 0 -161 -3 -165
-12 -5 -10 -7 -10 -12 0 -4 8 -29 12 -75 12 -39 0 -69 4 -69 10 0 6 -25 10
-55 10 -30 0 -55 5 -55 10 0 6 -27 10 -60 10 -33 0 -60 4 -60 10 0 6 -25 10
-55 10 l-55 0 0 40 c0 22 5 40 10 40 6 0 10 43 10 110 0 67 4 110 10 110 6 0
10 48 10 125 0 77 4 125 10 125 6 0 10 45 10 115 0 96 3 115 15 115 12 0 15
18 15 105 0 63 4 105 10 105 6 0 10 45 10 115 0 67 4 115 10 115 5 0 11 49 13
113 2 103 3 100 5 -40 2 -122 5 -155 18 -167 13 -13 42 -16 167 -16 84 0 162
3 175 6 22 6 22 8 22 185 l0 179 -185 0 -185 0 0 95 c0 57 4 95 10 95 6 0 10
45 10 115 0 70 4 115 10 115 6 0 10 42 10 105 0 63 4 105 10 105 6 0 10 45 10
115 0 70 4 115 10 115 6 0 10 43 10 110 0 67 4 110 10 110 6 0 10 45 10 115 0
70 4 115 10 115 6 0 10 45 10 115 0 67 4 115 10 115 5 0 9 47 9 112 0 70 4
114 11 116 5 2 10 12 10 23 0 19 -27 25 -57 12z m3617 -2903 c0 -19 -7 -20
-175 -20 l-175 0 0 -25 0 -25 -150 0 -150 0 0 30 0 30 160 0 c134 0 162 3 166
15 5 12 33 15 165 15 152 0 159 -1 159 -20z m258 -107 c-43 -2 -113 -2 -155 0
-43 1 -8 3 77 3 85 0 120 -2 78 -3z m1038 -73 l54 0 0 -130 0 -130 -120 0
c-98 0 -120 3 -120 14 0 8 5 18 10 21 6 3 10 17 10 31 0 13 5 24 10 24 6 0 10
11 10 25 0 14 5 25 10 25 6 0 10 15 10 33 0 21 7 36 20 45 11 7 20 22 20 33 0
15 4 19 16 15 9 -3 40 -6 70 -6z m-143 -7 c-7 -2 -13 -13 -13 -24 0 -10 -4
-19 -10 -19 -5 0 -10 -9 -10 -20 0 -11 -4 -20 -10 -20 -5 0 -10 -9 -10 -20 0
-11 -4 -20 -10 -20 -5 0 -10 -16 -10 -35 0 -19 -4 -35 -10 -35 -5 0 -10 -7
-10 -16 0 -8 -7 -22 -15 -30 -13 -14 -15 -1 -15 115 l0 131 68 -1 c37 0 61 -3
55 -6z m-1653 -83 c0 -17 -2 -19 -14 -8 -10 9 -11 15 -2 20 16 11 16 10 16
-12z m-180 -150 c0 -19 -7 -20 -155 -20 -148 0 -155 1 -155 20 0 19 7 20 155
20 148 0 155 -1 155 -20z m-3050 -21 c19 0 50 -7 68 -15 34 -16 82 -12 82 6 0
6 7 10 15 10 8 0 15 -9 15 -19 0 -25 44 -35 116 -26 l54 6 0 -50 0 -51 -175 0
-175 0 0 -35 c0 -24 5 -35 15 -35 8 0 15 -4 15 -10 0 -5 7 -10 15 -10 8 0 15
-4 15 -10 0 -5 -11 -10 -25 -10 -14 0 -25 5 -25 10 0 6 -35 10 -85 10 l-85 0
-1 38 c-3 61 2 107 12 110 5 2 9 24 9 49 l0 46 53 -8 c28 -4 68 -7 87 -6z
m2780 -129 c0 -5 -18 -10 -40 -10 -22 0 -40 5 -40 10 0 6 18 10 40 10 22 0 40
-4 40 -10z m-984 -25 c9 -9 13 -23 9 -35 -6 -18 -2 -20 39 -20 25 0 46 5 46
10 0 6 -11 10 -25 10 -16 0 -25 6 -25 15 0 9 9 15 24 15 17 0 26 -7 30 -25 6
-23 11 -25 66 -25 l60 0 0 36 c0 19 4 33 8 30 4 -2 6 -23 4 -45 l-4 -41 -119
0 -119 0 0 35 0 35 -50 0 c-27 0 -50 5 -50 10 0 16 90 12 106 -5z m-236 -20
c0 -11 -12 -15 -45 -15 -33 0 -45 4 -45 15 0 11 12 15 45 15 33 0 45 -4 45
-15z m-120 -25 c0 -5 -7 -10 -15 -10 -8 0 -15 5 -15 10 0 6 7 10 15 10 8 0 15
-4 15 -10z m-40 -20 c0 -5 -25 -10 -55 -10 -30 0 -55 5 -55 10 0 6 25 10 55
10 30 0 55 -4 55 -10z m710 0 c0 -5 -7 -10 -15 -10 -8 0 -15 5 -15 10 0 6 7
10 15 10 8 0 15 -4 15 -10z m590 0 c0 -6 -30 -10 -70 -10 -40 0 -70 4 -70 10
0 6 30 10 70 10 40 0 70 -4 70 -10z m-1990 -20 c0 -5 -16 -10 -35 -10 -19 0
-35 5 -35 10 0 6 16 10 35 10 19 0 35 -4 35 -10z m90 0 c0 -5 -11 -10 -25 -10
-14 0 -25 5 -25 10 0 6 11 10 25 10 14 0 25 -4 25 -10z m60 0 c0 -5 -9 -10
-20 -10 -11 0 -20 5 -20 10 0 6 9 10 20 10 11 0 20 -4 20 -10z m30 0 c0 -5 -4
-10 -10 -10 -5 0 -10 5 -10 10 0 6 5 10 10 10 6 0 10 -4 10 -10z m110 0 c0 -5
-16 -10 -35 -10 -19 0 -35 5 -35 10 0 6 16 10 35 10 19 0 35 -4 35 -10z m280
0 c0 -6 -52 -10 -135 -10 -83 0 -135 4 -135 10 0 6 52 10 135 10 83 0 135 -4
135 -10z m480 0 c0 -5 9 -10 20 -10 11 0 20 -4 20 -10 0 -5 -11 -10 -25 -10
-14 0 -25 5 -25 10 0 6 -45 10 -115 10 -70 0 -115 4 -115 10 0 6 47 10 120 10
73 0 120 -4 120 -10z m743 -2 c4 -10 8 -9 17 2 9 11 13 12 17 3 2 -8 22 -13
44 -13 21 0 39 -4 39 -10 0 -6 -32 -10 -75 -10 -41 0 -75 2 -75 4 0 2 -3 11
-6 20 -8 20 32 23 39 4z m3917 -18 l0 -30 -150 0 -150 0 0 30 0 30 150 0 150
0 0 -30z m-4970 0 c0 -5 -11 -10 -25 -10 -14 0 -25 5 -25 10 0 6 11 10 25 10
14 0 25 -4 25 -10z m1290 0 c0 -5 -13 -10 -30 -10 -16 0 -30 5 -30 10 0 6 14
10 30 10 17 0 30 -4 30 -10z m110 0 c0 -5 -11 -10 -25 -10 -14 0 -25 5 -25 10
0 6 11 10 25 10 14 0 25 -4 25 -10z m60 0 c0 -5 -11 -10 -25 -10 -14 0 -25 5
-25 10 0 6 11 10 25 10 14 0 25 -4 25 -10z m50 0 c0 -5 -7 -10 -15 -10 -8 0
-15 5 -15 10 0 6 7 10 15 10 8 0 15 -4 15 -10z m120 -20 c0 -5 -16 -10 -35
-10 -19 0 -35 5 -35 10 0 6 16 10 35 10 19 0 35 -4 35 -10z m2330 -525 l0 -35
-161 0 c-152 0 -161 -1 -166 -20 -5 -19 -14 -20 -164 -20 l-159 0 0 55 0 55
325 0 325 0 0 -35z m-3540 5 c0 -5 -4 -10 -10 -10 -5 0 -10 5 -10 10 0 6 5 10
10 10 6 0 10 -4 10 -10z m180 -162 c0 -5 -4 -8 -10 -8 -5 0 -10 10 -10 23 0
18 2 19 10 7 5 -8 10 -18 10 -22z m310 -3 c0 -12 -20 -15 -116 -15 -89 0 -119
3 -130 15 -14 13 -1 15 115 15 110 0 131 -2 131 -15z m-2561 -1306 c18 -6 31
-14 29 -18 -2 -3 -42 -44 -90 -90 l-88 -85 0 62 c0 48 3 62 15 62 10 0 15 10
15 27 0 14 3 23 6 20 4 -3 18 3 32 13 29 23 37 24 81 9z"/>
<path d="M5557 6423 c-4 -3 -7 -39 -7 -80 l0 -73 -150 0 c-93 0 -150 -4 -150
-10 0 -5 -7 -10 -16 -10 -14 0 -15 -19 -11 -166 l4 -166 169 2 c119 0 171 4
176 13 4 7 8 58 8 115 l0 103 165 -3 165 -3 0 143 0 142 -173 0 c-96 0 -177
-3 -180 -7z"/>
<path d="M3880 6330 c0 -5 -7 -10 -15 -10 -13 0 -15 -21 -15 -130 l0 -130 190
0 190 0 0 126 c0 109 -2 129 -17 140 -22 16 -333 20 -333 4z"/>
<path d="M12550 5910 c0 -5 5 -10 10 -10 6 0 10 5 10 10 0 6 -4 10 -10 10 -5
0 -10 -4 -10 -10z"/>
<path d="M3534 5853 c-9 -36 4 -485 14 -495 5 -5 80 -7 168 -6 l159 3 3 263 2
262 -170 0 -170 0 -6 -27z"/>
<path d="M12550 5870 c0 -5 5 -10 10 -10 6 0 10 5 10 10 0 6 -4 10 -10 10 -5
0 -10 -4 -10 -10z"/>
<path d="M12490 5700 c0 -5 5 -10 10 -10 6 0 10 5 10 10 0 6 -4 10 -10 10 -5
0 -10 -4 -10 -10z"/>
<path d="M12550 5700 c0 -5 5 -10 10 -10 6 0 10 5 10 10 0 6 -4 10 -10 10 -5
0 -10 -4 -10 -10z"/>
<path d="M12550 5620 c0 -5 5 -10 10 -10 6 0 10 5 10 10 0 6 -4 10 -10 10 -5
0 -10 -4 -10 -10z"/>
<path d="M12550 5570 c0 -11 5 -20 10 -20 6 0 10 9 10 20 0 11 -4 20 -10 20
-5 0 -10 -9 -10 -20z"/>
<path d="M12530 5390 c0 -5 5 -10 10 -10 6 0 10 5 10 10 0 6 -4 10 -10 10 -5
0 -10 -4 -10 -10z"/>
<path d="M8252 5185 l3 -195 30 -5 c17 -3 95 -5 175 -3 l145 3 3 198 2 197
-180 0 -181 0 3 -195z"/>
<path d="M4202 5194 l3 -146 168 1 167 2 0 -153 c0 -84 4 -158 8 -165 5 -9 57
-13 177 -13 l170 -2 3 176 2 176 -169 0 -168 0 -7 31 c-10 50 -7 179 4 179 6
0 10 14 10 30 l0 30 -185 0 -186 0 3 -146z"/>
<path d="M12550 5165 c0 -8 5 -15 10 -15 6 0 10 7 10 15 0 8 -4 15 -10 15 -5
0 -10 -7 -10 -15z"/>
<path d="M12550 5100 c0 -5 5 -10 10 -10 6 0 10 5 10 10 0 6 -4 10 -10 10 -5
0 -10 -4 -10 -10z"/>
<path d="M12490 5080 c0 -5 5 -10 10 -10 6 0 10 5 10 10 0 6 -4 10 -10 10 -5
0 -10 -4 -10 -10z"/>
<path d="M12470 4980 c0 -5 5 -10 10 -10 6 0 10 5 10 10 0 6 -4 10 -10 10 -5
0 -10 -4 -10 -10z"/>
<path d="M5550 4701 c0 -127 3 -231 8 -233 4 -2 85 -2 180 0 l172 3 0 229 0
230 -180 0 -180 0 0 -229z"/>
<path d="M12550 4800 c0 -11 5 -20 10 -20 6 0 10 9 10 20 0 11 -4 20 -10 20
-5 0 -10 -9 -10 -20z"/>
<path d="M2862 4564 l3 -137 162 2 162 2 3 -136 3 -136 178 -2 177 -2 0 148 0
147 -165 0 -165 0 0 125 0 125 -180 0 -181 0 3 -136z"/>
<path d="M12510 4670 c0 -5 9 -10 20 -10 11 0 20 5 20 10 0 6 -9 10 -20 10
-11 0 -20 -4 -20 -10z"/>
<path d="M6210 4415 l0 -225 26 -10 c27 -11 305 -14 342 -4 l22 6 0 229 0 229
-195 0 -195 0 0 -225z"/>
<path d="M12550 4380 c0 -5 5 -10 10 -10 6 0 10 5 10 10 0 6 -4 10 -10 10 -5
0 -10 -4 -10 -10z"/>
<path d="M12550 4340 c0 -5 5 -10 10 -10 6 0 10 5 10 10 0 6 -4 10 -10 10 -5
0 -10 -4 -10 -10z"/>
<path d="M8250 4056 l0 -164 26 -6 c14 -4 95 -6 180 -5 l154 1 0 169 0 169
-180 0 -180 0 0 -164z m17 -138 c-3 -7 -5 -2 -5 12 0 14 2 19 5 13 2 -7 2 -19
0 -25z"/>
<path d="M12490 4170 c0 -5 5 -10 10 -10 6 0 10 5 10 10 0 6 -4 10 -10 10 -5
0 -10 -4 -10 -10z"/>
<path d="M12550 4170 c0 -5 5 -10 10 -10 6 0 10 5 10 10 0 6 -4 10 -10 10 -5
0 -10 -4 -10 -10z"/>
<path d="M4542 3963 l3 -158 175 0 175 0 3 158 3 157 -181 0 -181 0 3 -157z"/>
<path d="M12550 4090 c0 -5 5 -10 10 -10 6 0 10 5 10 10 0 6 -4 10 -10 10 -5
0 -10 -4 -10 -10z"/>
<path d="M12470 4045 c0 -8 5 -15 10 -15 6 0 10 7 10 15 0 8 -4 15 -10 15 -5
0 -10 -7 -10 -15z"/>
<path d="M12550 4035 c0 -14 5 -25 10 -25 6 0 10 11 10 25 0 14 -4 25 -10 25
-5 0 -10 -11 -10 -25z"/>
<path d="M3540 3846 c0 -57 3 -118 6 -135 l7 -31 162 0 162 0 2 135 2 135
-170 0 -171 0 0 -104z"/>
<path d="M12530 3860 c0 -5 5 -10 10 -10 6 0 10 5 10 10 0 6 -4 10 -10 10 -5
0 -10 -4 -10 -10z"/>
<path d="M8586 3774 c-3 -9 -6 -143 -6 -299 0 -156 3 -290 6 -299 5 -14 32
-16 190 -16 l183 0 1 315 0 315 -184 0 c-158 0 -185 -2 -190 -16z"/>
<path d="M12550 3630 c0 -5 5 -10 10 -10 6 0 10 5 10 10 0 6 -4 10 -10 10 -5
0 -10 -4 -10 -10z"/>
<path d="M12550 3570 c0 -5 5 -10 10 -10 6 0 10 5 10 10 0 6 -4 10 -10 10 -5
0 -10 -4 -10 -10z"/>
<path d="M12490 3550 c0 -5 5 -10 10 -10 6 0 10 5 10 10 0 6 -4 10 -10 10 -5
0 -10 -4 -10 -10z"/>
<path d="M12470 3440 c0 -5 5 -10 10 -10 6 0 10 5 10 10 0 6 -4 10 -10 10 -5
0 -10 -4 -10 -10z"/>
<path d="M12550 3270 c0 -11 5 -20 10 -20 6 0 10 9 10 20 0 11 -4 20 -10 20
-5 0 -10 -9 -10 -20z"/>
<path d="M9280 3175 l0 -95 -175 0 -175 0 0 -115 0 -115 190 0 190 0 0 85 0
85 155 0 155 0 0 125 0 125 -170 0 -170 0 0 -95z"/>
<path d="M12510 3130 c0 -5 9 -10 20 -10 11 0 20 5 20 10 0 6 -9 10 -20 10
-11 0 -20 -4 -20 -10z"/>
<path d="M10280 2998 c1 -46 1 -98 1 -115 l-1 -33 -150 0 -150 0 0 45 0 45
-195 0 -195 0 0 -45 c0 -25 5 -45 10 -45 6 0 10 -68 10 -185 l0 -185 175 0
c168 0 175 -1 175 -20 0 -11 5 -20 11 -20 5 0 7 -4 4 -10 -10 -16 296 -13 318
4 15 12 17 35 17 215 l0 201 165 0 165 0 0 115 0 115 -181 0 -180 0 1 -82z"/>
<path d="M12550 2840 c0 -5 5 -10 10 -10 6 0 10 5 10 10 0 6 -4 10 -10 10 -5
0 -10 -4 -10 -10z"/>
<path d="M10946 2793 c-3 -10 -5 -37 -4 -60 l2 -43 188 0 188 0 0 60 0 60
-184 0 c-167 0 -185 -2 -190 -17z"/>
<path d="M12550 2800 c0 -5 5 -10 10 -10 6 0 10 5 10 10 0 6 -4 10 -10 10 -5
0 -10 -4 -10 -10z"/>
<path d="M10940 2545 l0 -105 190 0 190 0 0 105 0 105 -190 0 -190 0 0 -105z"/>
<path d="M12490 2635 c0 -8 5 -15 10 -15 6 0 10 7 10 15 0 8 -4 15 -10 15 -5
0 -10 -7 -10 -15z"/>
<path d="M12550 2635 c0 -8 5 -15 10 -15 6 0 10 7 10 15 0 8 -4 15 -10 15 -5
0 -10 -7 -10 -15z"/>
<path d="M12550 2550 c0 -5 5 -10 10 -10 6 0 10 5 10 10 0 6 -4 10 -10 10 -5
0 -10 -4 -10 -10z"/>
<path d="M12470 2510 c0 -5 5 -10 10 -10 6 0 10 5 10 10 0 6 -4 10 -10 10 -5
0 -10 -4 -10 -10z"/>
<path d="M12550 2500 c0 -11 5 -20 10 -20 6 0 10 9 10 20 0 11 -4 20 -10 20
-5 0 -10 -9 -10 -20z"/>
<path d="M12530 2320 c0 -5 5 -10 10 -10 6 0 10 5 10 10 0 6 -4 10 -10 10 -5
0 -10 -4 -10 -10z"/>
<path d="M12550 2100 c0 -5 5 -10 10 -10 6 0 10 5 10 10 0 6 -4 10 -10 10 -5
0 -10 -4 -10 -10z"/>
<path d="M12550 2030 c0 -5 5 -10 10 -10 6 0 10 5 10 10 0 6 -4 10 -10 10 -5
0 -10 -4 -10 -10z"/>
<path d="M12490 2010 c0 -5 5 -10 10 -10 6 0 10 5 10 10 0 6 -4 10 -10 10 -5
0 -10 -4 -10 -10z"/>
<path d="M12470 1910 c0 -5 5 -10 10 -10 6 0 10 5 10 10 0 6 -4 10 -10 10 -5
0 -10 -4 -10 -10z"/>
<path d="M414 1750 c-27 -11 -64 -57 -64 -81 0 -31 17 -22 37 19 21 42 53 56
53 22 0 -12 -4 -30 -10 -40 -5 -10 -16 -44 -25 -75 -12 -49 -12 -62 -1 -90 16
-36 53 -51 100 -39 26 6 26 5 16 -22 -17 -44 -60 -84 -90 -84 -37 0 -42 8 -18
32 18 18 18 22 5 35 -20 21 -57 1 -57 -31 0 -81 129 -71 193 16 27 36 100 319
86 333 -22 22 -44 -13 -70 -111 -14 -55 -31 -110 -38 -122 -12 -23 -52 -39
-70 -27 -17 10 -13 77 9 140 11 32 20 68 20 80 0 35 -39 58 -76 45z"/>
<path d="M12550 1730 c0 -11 5 -20 10 -20 6 0 10 9 10 20 0 11 -4 20 -10 20
-5 0 -10 -9 -10 -20z"/>
<path d="M2170 1549 l0 -189 180 0 180 0 0 190 0 190 -180 -1 -180 -1 0 -189z"/>
<path d="M12510 1600 c0 -5 9 -10 20 -10 11 0 20 5 20 10 0 6 -9 10 -20 10
-11 0 -20 -4 -20 -10z"/>
<path d="M5557 1514 c-4 -4 -7 -83 -7 -176 l0 -168 180 0 180 0 -2 173 -3 172
-171 3 c-93 1 -173 -1 -177 -4z"/>
<path d="M12550 1310 c0 -5 5 -10 10 -10 6 0 10 5 10 10 0 6 -4 10 -10 10 -5
0 -10 -4 -10 -10z"/>
<path d="M12550 1270 c0 -5 5 -10 10 -10 6 0 10 5 10 10 0 6 -4 10 -10 10 -5
0 -10 -4 -10 -10z"/>
<path d="M8593 1263 c-10 -3 -13 -40 -13 -134 l0 -129 -335 0 -335 0 0 -55 0
-55 -337 -2 -338 -3 -3 -135 c-4 -199 -23 -180 178 -180 l170 0 0 -115 0 -115
165 0 c103 0 165 -4 165 -10 0 -6 68 -10 185 -10 117 0 185 4 185 10 0 6 57
10 150 10 93 0 150 -4 150 -10 0 -6 70 -10 190 -10 l190 0 0 120 0 120 -175 0
-175 0 0 160 0 160 160 0 160 0 0 -90 0 -90 179 0 c154 0 180 2 185 16 8 20 8
332 0 362 -6 22 -9 22 -170 22 l-164 0 0 79 c0 63 -3 80 -16 85 -19 7 -333 7
-351 -1z m-343 -648 c0 -13 -23 -15 -150 -15 -127 0 -150 2 -150 15 0 13 23
15 150 15 127 0 150 -2 150 -15z"/>
<path d="M12490 1100 c0 -5 5 -10 10 -10 6 0 10 5 10 10 0 6 -4 10 -10 10 -5
0 -10 -4 -10 -10z"/>
<path d="M12550 1100 c0 -5 5 -10 10 -10 6 0 10 5 10 10 0 6 -4 10 -10 10 -5
0 -10 -4 -10 -10z"/>
<path d="M3860 1052 c-6 -2 -10 -60 -10 -148 l0 -144 190 0 191 0 -3 146 -3
146 -177 1 c-98 1 -182 1 -188 -1z"/>
<path d="M12550 1020 c0 -5 5 -10 10 -10 6 0 10 5 10 10 0 6 -4 10 -10 10 -5
0 -10 -4 -10 -10z"/>
<path d="M6570 815 l0 -185 170 0 c144 0 170 2 170 15 0 8 5 15 10 15 7 0 10
58 8 168 l-3 167 -177 3 -178 2 0 -185z"/>
<path d="M12470 980 c0 -5 5 -10 10 -10 6 0 10 5 10 10 0 6 -4 10 -10 10 -5 0
-10 -4 -10 -10z"/>
<path d="M12550 970 c0 -11 5 -20 10 -20 6 0 10 9 10 20 0 11 -4 20 -10 20 -5
0 -10 -9 -10 -20z"/>
<path d="M12530 890 c0 -5 5 -10 10 -10 6 0 10 5 10 10 0 6 -4 10 -10 10 -5 0
-10 -4 -10 -10z"/>
<path d="M12530 790 c0 -5 5 -10 10 -10 6 0 10 5 10 10 0 6 -4 10 -10 10 -5 0
-10 -4 -10 -10z"/>
<path d="M1500 771 c-5 -11 -10 -65 -10 -120 l0 -101 190 0 190 0 0 114 c0 95
-3 115 -16 120 -9 3 -89 6 -179 6 -152 0 -165 -1 -175 -19z"/>
<path d="M5035 703 c-3 -9 -1 -21 5 -27 5 -5 10 -16 10 -23 0 -16 44 -63 60
-63 5 0 10 -4 10 -10 0 -5 16 -10 35 -10 43 0 44 13 5 50 -16 15 -30 33 -30
39 0 6 -5 11 -11 11 -7 0 -19 8 -28 18 -24 27 -48 33 -56 15z"/>
<path d="M5204 529 c-8 -14 103 -119 126 -119 33 0 23 33 -24 77 -42 39 -91
59 -102 42z"/>
<path d="M6900 260 l0 -260 180 0 180 0 0 260 0 260 -180 0 -180 0 0 -260z"/>
<path d="M12550 500 c0 -5 5 -10 10 -10 6 0 10 5 10 10 0 6 -4 10 -10 10 -5 0
-10 -4 -10 -10z"/>
<path d="M12490 480 c0 -5 5 -10 10 -10 6 0 10 5 10 10 0 6 -4 10 -10 10 -5 0
-10 -4 -10 -10z"/>
<path d="M5360 365 c0 -14 5 -25 11 -25 6 0 28 -18 49 -40 21 -22 47 -40 59
-40 11 0 22 -9 26 -20 3 -11 13 -20 21 -20 8 0 14 -4 14 -9 0 -13 96 -111 109
-111 6 0 11 -5 11 -11 0 -14 25 -39 39 -39 6 0 11 -4 11 -9 0 -21 33 -41 66
-41 l36 0 -24 29 c-13 16 -35 31 -50 35 -16 3 -28 12 -28 21 0 8 -4 15 -10 15
-5 0 -10 11 -10 25 0 14 -5 25 -11 25 -6 0 -28 18 -49 40 -21 22 -46 40 -54
40 -9 0 -16 8 -16 20 0 13 -7 20 -20 20 -13 0 -20 7 -20 20 0 11 -7 20 -15 20
-17 0 -65 43 -65 58 0 8 -45 22 -71 22 -5 0 -9 -11 -9 -25z"/>
<path d="M12470 380 c0 -5 5 -10 10 -10 6 0 10 5 10 10 0 6 -4 10 -10 10 -5 0
-10 -4 -10 -10z"/>
<path d="M12550 200 c0 -11 5 -20 10 -20 6 0 10 9 10 20 0 11 -4 20 -10 20 -5
0 -10 -9 -10 -20z"/>
<path d="M12510 60 c0 -5 9 -10 20 -10 11 0 20 5 20 10 0 6 -9 10 -20 10 -11
0 -20 -4 -20 -10z"/>
<path d="M8353 3 c48 -2 126 -2 175 0 48 1 8 3 -88 3 -96 0 -136 -2 -87 -3z"/>
</g>
</svg>
